<?xml version="1.0" encoding="UTF-8"?>
<svg version="1.1" xmlns="http://www.w3.org/2000/svg" width="1366" height="768">
<path d="M0 0 C450.78 0 901.56 0 1366 0 C1366 253.44 1366 506.88 1366 768 C915.22 768 464.44 768 0 768 C0 514.56 0 261.12 0 0 Z " fill="#F4FAFE" transform="translate(0,0)"/>
<path d="M0 0 C450.78 0 901.56 0 1366 0 C1366 253.44 1366 506.88 1366 768 C915.22 768 464.44 768 0 768 C0 514.56 0 261.12 0 0 Z M127 72 C126.6981888 73.96167756 126.6981888 73.96167756 126.74930167 76.24720192 C126.74429464 77.14563639 126.7392876 78.04407086 126.73412883 78.96973062 C126.73881117 79.96501645 126.7434935 80.96030228 126.74831772 81.98574829 C126.74541084 83.04100197 126.74250396 84.09625564 126.73950899 85.1834867 C126.73214181 88.76121538 126.73918345 92.33877614 126.74603271 95.91650391 C126.74373094 98.49068096 126.74055633 101.06485736 126.73657823 103.63903236 C126.72933353 109.25728428 126.729587 114.87549781 126.73467255 120.49375153 C126.7422143 128.84806271 126.73838216 137.20234131 126.73225593 145.55665225 C126.72170457 160.4744285 126.72264513 175.39218766 126.72841376 190.30996555 C126.73343732 203.36446211 126.73476181 216.41895238 126.73236847 229.47344971 C126.7322157 230.33810237 126.73206293 231.20275503 126.73190553 232.09360929 C126.73128289 235.6031793 126.7306461 239.11274931 126.729986 242.62231932 C126.72386275 275.57044468 126.72942325 308.51855914 126.7401798 341.46668282 C126.74967159 370.76360168 126.74882235 400.06050316 126.73925781 429.35742188 C126.7285574 462.24381718 126.72429694 495.13020285 126.73048234 528.01659966 C126.73112381 531.51991653 126.73174949 535.02323341 126.73236847 538.52655029 C126.73252662 539.38920835 126.73268478 540.2518664 126.73284773 541.14066561 C126.73512633 554.18958456 126.73245532 567.23849656 126.72740936 580.28741455 C126.72170281 595.11894159 126.72309486 609.95044881 126.73397085 624.78197336 C126.73986228 633.0910535 126.74019973 641.40009075 126.7326785 649.70916981 C126.72769253 655.89795552 126.73306358 662.08669012 126.74262765 668.27546954 C126.74487691 670.79090581 126.74369167 673.30634777 126.73887607 675.82178044 C126.73286656 679.21935518 126.73895854 682.6166899 126.74831772 686.01425171 C126.74363539 687.00953754 126.73895305 688.00482337 126.73412883 689.03026938 C126.73913587 689.92870385 126.74414291 690.82713832 126.74930167 691.75279808 C126.74943719 692.53069392 126.74957271 693.30858975 126.74971233 694.11005819 C126.83721199 696.24264791 126.83721199 696.24264791 129 698 C131.48696308 698.19678107 133.86248263 698.2671035 136.35062408 698.25069833 C137.12235727 698.25350296 137.89409045 698.2563076 138.68920949 698.25919722 C141.30773618 698.26622613 143.92603198 698.25884859 146.54455566 698.25168228 C148.43589673 698.25376618 150.32723701 698.25672689 152.21857548 698.26049101 C157.46066535 698.26833866 162.70268237 698.26358825 167.94477117 698.25693511 C173.63076998 698.25189213 179.31675704 698.25836937 185.00275421 698.26342177 C194.98299331 698.27067015 204.96321081 698.27041075 214.94345093 698.26532745 C225.65644828 698.25988566 236.36943024 698.25865827 247.08242798 698.26280212 C248.09593429 698.26318964 248.09593429 698.26318964 249.12991548 698.26358499 C251.88164205 698.26465148 254.63336861 698.26574889 257.38509515 698.26688554 C283.03920322 698.27747499 308.6933028 698.27817686 334.34741211 698.27259064 C335.48863294 698.27234225 335.48863294 698.27234225 336.65290874 698.27208885 C337.41493195 698.27192299 338.17695516 698.27175713 338.96206999 698.27158624 C362.15122802 698.26654554 385.34038255 698.26523446 408.52954102 698.26763153 C410.08069708 698.26778649 411.63185314 698.2679408 413.18300921 698.26809447 C419.41602172 698.26871537 425.64903422 698.2693527 431.88204673 698.270014 C449.30731009 698.27184827 466.73257347 698.27298928 484.15783691 698.27358627 C485.34822411 698.27362721 485.34822411 698.27362721 486.56265952 698.27366897 C511.86058052 698.27448787 537.15850029 698.27223199 562.4564209 698.26788712 C563.6877029 698.26767637 563.6877029 698.26767637 564.94385929 698.26746136 C578.27510539 698.2651713 591.60635146 698.26273245 604.93759753 698.26028102 C657.81517258 698.25056789 710.6927375 698.25101871 763.5703125 698.26074219 C776.89473469 698.26318445 790.21915688 698.2656065 803.5435791 698.26788712 C804.77412774 698.26809846 804.77412774 698.26809846 806.02953596 698.26831407 C831.30041183 698.27262462 856.57128686 698.27445534 881.84216309 698.27358627 C882.63517626 698.2735591 883.42818944 698.27353194 884.24523332 698.27350394 C901.6509401 698.27287906 919.0566468 698.27161194 936.46235349 698.26976527 C942.68988792 698.26910695 948.91742236 698.26848079 955.14495679 698.26786385 C956.69429134 698.26770907 958.24362589 698.26755161 959.79296044 698.26739145 C982.9776722 698.26500148 1006.16238 698.26704255 1029.34709126 698.27208885 C1030.48831209 698.27233723 1030.48831209 698.27233723 1031.65258789 698.27259064 C1032.79171557 698.27283868 1032.79171557 698.27283868 1033.95385593 698.27309174 C1059.53195861 698.27860051 1085.11005109 698.27659462 1110.68815231 698.26602915 C1113.43129221 698.26492437 1116.17443211 698.26385097 1118.91757202 698.26280212 C1119.92743325 698.2624115 1119.92743325 698.2624115 1120.95769572 698.26201299 C1132.29564937 698.25781779 1143.63358637 698.26154667 1154.97153941 698.2673215 C1164.81338259 698.27178327 1174.65520628 698.26905711 1184.49704656 698.26031196 C1190.11659597 698.25552322 1195.73609718 698.25399172 1201.35564518 698.26112393 C1206.45704552 698.26753296 1211.55835443 698.26491534 1216.65974796 698.2547626 C1218.5041797 698.25273039 1220.34861883 698.2541267 1222.19304478 698.25917448 C1224.67860231 698.26549987 1227.16383406 698.25973129 1229.64937592 698.25069833 C1230.73717383 698.25787055 1230.73717383 698.25787055 1231.84694746 698.26518767 C1235.87094868 698.34730011 1235.87094868 698.34730011 1239 696 C1239.3018112 694.03832244 1239.3018112 694.03832244 1239.25069833 691.75279808 C1239.25570536 690.85436361 1239.2607124 689.95592914 1239.26587117 689.03026938 C1239.26118883 688.03498355 1239.2565065 687.03969772 1239.25168228 686.01425171 C1239.25458916 684.95899803 1239.25749604 683.90374436 1239.26049101 682.8165133 C1239.26785819 679.23878462 1239.26081655 675.66122386 1239.25396729 672.08349609 C1239.25626906 669.50931904 1239.25944367 666.93514264 1239.26342177 664.36096764 C1239.27066647 658.74271572 1239.270413 653.12450219 1239.26532745 647.50624847 C1239.2577857 639.15193729 1239.26161784 630.79765869 1239.26774407 622.44334775 C1239.27829543 607.5255715 1239.27735487 592.60781234 1239.27158624 577.69003445 C1239.26656268 564.63553789 1239.26523819 551.58104762 1239.26763153 538.52655029 C1239.2677843 537.66189763 1239.26793707 536.79724497 1239.26809447 535.90639071 C1239.26871711 532.3968207 1239.2693539 528.88725069 1239.270014 525.37768068 C1239.27613725 492.42955532 1239.27057675 459.48144086 1239.2598202 426.53331718 C1239.25032841 397.23639832 1239.25117765 367.93949684 1239.26074219 338.64257812 C1239.2714426 305.75618282 1239.27570306 272.86979715 1239.26951766 239.98340034 C1239.26887619 236.48008347 1239.26825051 232.97676659 1239.26763153 229.47344971 C1239.26747338 228.61079165 1239.26731522 227.7481336 1239.26715227 226.85933439 C1239.26487367 213.81041544 1239.26754468 200.76150344 1239.27259064 187.71258545 C1239.27829719 172.88105841 1239.27690514 158.04955119 1239.26602915 143.21802664 C1239.26013772 134.9089465 1239.25980027 126.59990925 1239.2673215 118.29083019 C1239.27230747 112.10204448 1239.26693642 105.91330988 1239.25737235 99.72453046 C1239.25512309 97.20909419 1239.25630833 94.69365223 1239.26112393 92.17821956 C1239.26713344 88.78064482 1239.26104146 85.3833101 1239.25168228 81.98574829 C1239.25636461 80.99046246 1239.26104695 79.99517663 1239.26587117 78.96973062 C1239.25836061 77.62207891 1239.25836061 77.62207891 1239.25069833 76.24720192 C1239.25056281 75.46930608 1239.25042729 74.69141025 1239.25028767 73.88994181 C1239.16278801 71.75735209 1239.16278801 71.75735209 1237 70 C1234.51303692 69.80321893 1232.13751737 69.7328965 1229.64937592 69.74930167 C1228.87764273 69.74649704 1228.10590955 69.7436924 1227.31079051 69.74080278 C1224.69226382 69.73377387 1222.07396802 69.74115141 1219.45544434 69.74831772 C1217.56410327 69.74623382 1215.67276299 69.74327311 1213.78142452 69.73950899 C1208.53933465 69.73166134 1203.29731763 69.73641175 1198.05522883 69.74306489 C1192.36923002 69.74810787 1186.68324296 69.74163063 1180.99724579 69.73657823 C1171.01700669 69.72932985 1161.03678919 69.72958925 1151.05654907 69.73467255 C1140.34355172 69.74011434 1129.63056976 69.74134173 1118.91757202 69.73719788 C1117.90406571 69.73681036 1117.90406571 69.73681036 1116.87008452 69.73641501 C1114.11835795 69.73534852 1111.36663139 69.73425111 1108.61490485 69.73311446 C1082.96079678 69.72252501 1057.3066972 69.72182314 1031.65258789 69.72740936 C1030.891774 69.72757495 1030.13096011 69.72774054 1029.34709126 69.72791115 C1028.20405644 69.72815994 1028.20405644 69.72815994 1027.03793001 69.72841376 C1003.84877198 69.73345446 980.65961745 69.73476554 957.47045898 69.73236847 C955.91930292 69.73221351 954.36814686 69.7320592 952.81699079 69.73190553 C946.58397828 69.73128463 940.35096578 69.7306473 934.11795327 69.729986 C916.69268991 69.72815173 899.26742653 69.72701072 881.84216309 69.72641373 C881.04857162 69.72638644 880.25498016 69.72635914 879.43734048 69.72633103 C854.13941948 69.72551213 828.84149971 69.72776801 803.5435791 69.73211288 C802.72272443 69.73225338 801.90186977 69.73239388 801.05614071 69.73253864 C787.72489461 69.7348287 774.39364854 69.73726755 761.06240247 69.73971898 C708.18482742 69.74943211 655.3072625 69.74898129 602.4296875 69.73925781 C589.10526531 69.73681555 575.78084312 69.7343935 562.4564209 69.73211288 C561.22587226 69.73190154 561.22587226 69.73190154 559.97046404 69.73168593 C534.69958817 69.72737538 509.42871314 69.72554466 484.15783691 69.72641373 C483.36482374 69.7264409 482.57181056 69.72646806 481.75476668 69.72649606 C464.3490599 69.72712094 446.9433532 69.72838806 429.53764651 69.73023473 C423.31011208 69.73089305 417.08257764 69.73151921 410.85504321 69.73213615 C409.30570866 69.73229093 407.75637411 69.73244839 406.20703956 69.73260855 C383.0223278 69.73499852 359.83762 69.73295745 336.65290874 69.72791115 C335.89209485 69.72774556 335.13128096 69.72757997 334.34741211 69.72740936 C333.20828443 69.72716132 333.20828443 69.72716132 332.04614407 69.72690826 C306.46804139 69.72139949 280.88994891 69.72340538 255.31184769 69.73397085 C252.56870779 69.73507563 249.82556789 69.73614903 247.08242798 69.73719788 C246.07256675 69.7375885 246.07256675 69.7375885 245.04230428 69.73798701 C233.70435063 69.74218221 222.36641363 69.73845333 211.02846059 69.7326785 C201.18661741 69.72821673 191.34479372 69.73094289 181.50295344 69.73968804 C175.88340403 69.74447678 170.26390282 69.74600828 164.64435482 69.73887607 C159.54295448 69.73246704 154.44164557 69.73508466 149.34025204 69.7452374 C147.4958203 69.74726961 145.65138117 69.7458733 143.80695522 69.74082552 C141.32139769 69.73450013 138.83616594 69.74026871 136.35062408 69.74930167 C135.26282617 69.74212945 135.26282617 69.74212945 134.15305254 69.73481233 C130.12905132 69.65269989 130.12905132 69.65269989 127 72 Z " fill="#DFF5FE" transform="translate(0,0)"/>
<path d="M0 0 C0.80011727 -0.00467997 1.60023455 -0.00935994 2.4245978 -0.01418173 C5.1147395 -0.02618007 7.80437631 -0.01665572 10.49452209 -0.00723267 C12.41948749 -0.01129625 14.34445056 -0.01663693 16.26940918 -0.02316284 C21.50492822 -0.03686847 26.74027041 -0.03152416 31.97579265 -0.02202559 C37.44855787 -0.0144447 42.92130768 -0.02147032 48.39407349 -0.02618408 C57.58676377 -0.03164668 66.77938183 -0.02443727 75.97206116 -0.01016235 C86.6063281 0.00616025 97.24042247 0.00088047 107.87468523 -0.01564157 C116.99661613 -0.02924785 126.11849503 -0.03118015 135.2404328 -0.02332556 C140.6921872 -0.01864371 146.14386045 -0.01803818 151.59560966 -0.02793503 C156.72148925 -0.03658974 161.84714601 -0.03061009 166.97300148 -0.01325226 C168.85639958 -0.00927921 170.73981638 -0.01043539 172.62320709 -0.01704025 C175.19022156 -0.0252137 177.75651786 -0.01498526 180.32348633 0 C181.07241447 -0.00669217 181.82134261 -0.01338433 182.59296554 -0.02027929 C185.70398169 0.0150519 187.91949063 0.21812471 190.68773746 1.69237328 C193.16009418 4.40767281 192.77600862 7.48733536 192.72132874 10.97079468 C192.72278397 11.71172867 192.7242392 12.45266266 192.72573853 13.21604919 C192.72407971 14.78204278 192.7125201 16.34805269 192.69178772 17.91390991 C192.66287786 20.30662618 192.67116809 22.6971202 192.68421936 25.0899353 C192.67798024 26.6127325 192.66958793 28.13552271 192.65882874 29.65829468 C192.66176437 30.37194687 192.66470001 31.08559906 192.66772461 31.82087708 C192.61387834 34.6681883 192.41523233 36.97975685 191.18869781 39.56967926 C188.240263 42.28957615 185.21572897 41.9338694 181.40577698 41.8888855 C180.60087059 41.89512546 179.79596419 41.90136542 178.9666667 41.90779448 C176.26024347 41.92379335 173.55471232 41.91109365 170.84828186 41.89852905 C168.91183953 41.90394712 166.97540131 41.911068 165.03897095 41.91976929 C159.77248388 41.93804308 154.50630937 41.93091836 149.23981667 41.91825294 C143.73588322 41.90814627 138.23197706 41.91751212 132.7280426 41.92379761 C123.4840564 41.93108082 114.24019791 41.92146861 104.99623108 41.9024353 C94.29941495 41.88066532 83.60290376 41.88771621 72.90609503 41.90974092 C63.73236395 41.92787571 54.55872483 41.93046265 45.38498163 41.91998625 C39.90137895 41.91374075 34.41791972 41.91294468 28.93432617 41.9261322 C23.77965921 41.93766212 18.62538649 41.92971732 13.47076225 41.90655518 C11.57565911 41.90125277 9.68052295 41.90280788 7.78543282 41.91160583 C5.20473382 41.92248477 2.62531001 41.90889149 0.04469299 41.8888855 C-1.0889049 41.90226983 -1.0889049 41.90226983 -2.24540377 41.91592455 C-5.49579693 41.86681219 -7.29839098 41.82017857 -9.73921967 39.56967926 C-11.27359094 36.32663259 -11.20311347 33.17337724 -11.17320251 29.65829468 C-11.17607269 28.91640396 -11.17894287 28.17451324 -11.18190002 27.41014099 C-11.18393681 25.84595982 -11.17843385 24.28175296 -11.1658783 22.71762085 C-11.14979502 20.32291865 -11.1657503 17.92989821 -11.18492126 15.5352478 C-11.18293921 14.0137597 -11.17909631 12.49227265 -11.17320251 10.97079468 C-11.17927521 10.25511826 -11.1853479 9.53944183 -11.19160461 8.80207825 C-11.12282945 3.94698381 -11.12282945 3.94698381 -9.73642635 1.69237328 C-6.69150285 -0.3432384 -3.53997675 -0.03153808 0 0 Z " fill="#DEF5FD" transform="translate(135.77476501464844,705.6190490722656)"/>
<path d="M0 0 C0.77345724 -0.00420695 1.54691447 -0.0084139 2.34380981 -0.01274834 C4.96228308 -0.02327297 7.58023465 -0.01223535 10.19870096 -0.00147593 C12.09230913 -0.00460248 13.9859155 -0.00904409 15.87951782 -0.01468903 C21.12328091 -0.02645048 26.36687994 -0.01934012 31.61064057 -0.00935517 C37.30019321 -0.00178588 42.98971951 -0.01150851 48.67926848 -0.01908517 C58.6642551 -0.0299542 68.64919313 -0.02957078 78.63418204 -0.02194369 C89.35160496 -0.01377922 100.06899326 -0.01194138 110.78641707 -0.01815569 C111.80057989 -0.01873697 111.80057989 -0.01873697 112.83523084 -0.01932999 C115.58877059 -0.02092974 118.34231031 -0.02257586 121.09585 -0.02428082 C146.7633302 -0.04016267 172.4307913 -0.04121881 198.09827429 -0.03283846 C199.23995476 -0.03246588 199.23995476 -0.03246588 200.40469949 -0.03208578 C201.54819695 -0.03171259 201.54819695 -0.03171259 202.71479536 -0.03133187 C225.91646253 -0.02376981 249.1181218 -0.02180466 272.31978995 -0.0253998 C273.87198374 -0.02563224 275.42417754 -0.02586371 276.97637134 -0.02609421 C283.21361701 -0.02702557 289.45086267 -0.02798157 295.68810833 -0.02897351 C313.12513688 -0.03172488 330.56216546 -0.03343643 347.9991942 -0.03433192 C348.79331488 -0.03437286 349.58743555 -0.03441379 350.40562048 -0.03445597 C375.71946356 -0.03568427 401.03330388 -0.03230074 426.34714609 -0.02578318 C427.16848439 -0.02557243 427.98982268 -0.02536169 428.83605001 -0.02514455 C442.17500877 -0.02170949 455.51396748 -0.0180512 468.85292618 -0.01437403 C521.75802036 0.00019487 574.66309178 -0.00048002 627.56818587 -0.01506579 C640.89913849 -0.01872921 654.23009111 -0.0223623 667.5610438 -0.02578318 C668.38182348 -0.02599453 669.20260317 -0.02620587 670.04825497 -0.02642362 C695.33421905 -0.03289002 720.62018123 -0.0356354 745.90614611 -0.03433192 C747.09647849 -0.03427079 747.09647849 -0.03427079 748.31085799 -0.03420842 C765.72895627 -0.03327108 783.14705435 -0.03137034 800.56515242 -0.02860041 C806.79721998 -0.02761294 813.02928755 -0.0266737 819.26135512 -0.02574828 C820.81180407 -0.02551611 822.36225303 -0.02527992 823.91270198 -0.02503969 C847.1089345 -0.02145552 870.30515813 -0.02451481 893.50138954 -0.03208578 C894.64294582 -0.03245836 894.64294582 -0.03245836 895.80756384 -0.03283846 C896.56720425 -0.03308651 897.32684466 -0.03333456 898.10950448 -0.03359012 C923.70231148 -0.0418556 949.29509555 -0.03883971 974.88789927 -0.02299623 C977.63337126 -0.02133909 980.37884328 -0.01972899 983.12431532 -0.01815569 C983.79812332 -0.01776507 984.47193132 -0.01737445 985.16615775 -0.016972 C996.50746351 -0.01068252 1007.84873179 -0.01626942 1019.19003617 -0.02493476 C1029.03857201 -0.03163201 1038.88706406 -0.02752972 1048.73559338 -0.01442045 C1054.35732259 -0.00724379 1059.97894347 -0.00492694 1065.6006695 -0.0156384 C1070.70639871 -0.02526809 1075.81192266 -0.02130174 1080.91763666 -0.00609642 C1082.76137483 -0.00305388 1084.60512968 -0.00512787 1086.44885476 -0.01271423 C1088.9384181 -0.02223784 1091.42725543 -0.01351642 1093.91678429 0 C1094.63750626 -0.00717223 1095.35822823 -0.01434445 1096.10079027 -0.02173402 C1099.10795266 0.01177746 1101.26972025 0.24749134 1103.965069 1.62608102 C1105.91159026 3.8152532 1106.02113622 4.84631993 1106.02131271 7.7515586 C1106.03594949 9.1039627 1106.03594949 9.1039627 1106.05088195 10.48368809 C1106.04123144 11.47737956 1106.03158093 12.47107103 1106.02163798 13.49487436 C1106.02715214 14.55237106 1106.03266631 15.60986776 1106.03834757 16.69940981 C1106.05205249 20.27894144 1106.03698614 23.85779176 1106.02227217 27.43731153 C1106.02616108 30.01505328 1106.03179822 32.59279289 1106.03904307 35.1705274 C1106.05198107 40.79355836 1106.04995798 46.41643197 1106.03826338 52.0394634 C1106.0209209 60.4009407 1106.02636513 68.76229361 1106.03643029 77.12377724 C1106.05364953 92.05510031 1106.04806411 106.98635011 1106.0330731 121.91767169 C1106.0200379 134.98468064 1106.01482215 148.05166413 1106.01739126 161.1186794 C1106.01755168 161.98435942 1106.0177121 162.85003944 1106.01787737 163.74195219 C1106.01854092 167.25575536 1106.01924333 170.76955853 1106.02000271 174.28336168 C1106.0270321 207.2684041 1106.0115178 240.25340169 1105.98537925 273.2384327 C1105.962265 302.56239455 1105.95687469 331.8863071 1105.96711165 361.21027601 C1105.96971352 368.71795593 1105.9722985 376.22563584 1105.97470957 383.73331583 C1105.97500702 384.65751471 1105.97530447 385.5817136 1105.97561093 386.53391851 C1105.98322113 411.01465014 1105.97681781 435.49537771 1105.96601355 459.97610754 C1105.96486571 462.60943688 1105.96372253 465.24276622 1105.96258673 467.87609556 C1105.96183148 469.62308169 1105.96106583 471.37006781 1105.96028972 473.11705393 C1105.9546244 486.17716394 1105.95596607 499.23726121 1105.96051794 512.29737127 C1105.96561877 527.14383446 1105.95980394 541.99024984 1105.93962365 556.83670109 C1105.92861253 565.15204684 1105.92586695 573.46729867 1105.93491218 581.78264734 C1105.94072289 587.97962419 1105.93094999 594.17648196 1105.91491253 600.37343872 C1105.91084534 602.88955131 1105.91190552 605.40567811 1105.91843139 607.92178553 C1105.92650738 611.32517557 1105.91635995 614.72802461 1105.90138346 618.13137949 C1105.90812111 619.12272979 1105.91485876 620.11408009 1105.92180058 621.13547131 C1105.9140338 622.03957756 1105.90626702 622.94368381 1105.89826488 623.87518722 C1105.89783787 624.6537952 1105.89741085 625.43240318 1105.89697089 626.23460534 C1105.38564365 629.14752252 1104.73391972 630.38432556 1102.52106673 632.37604749 C1099.88852735 632.77626732 1097.66941951 632.91225188 1095.03457075 632.87744415 C1094.26029486 632.88305342 1093.48601897 632.88866268 1092.68828017 632.89444193 C1090.06688114 632.90847558 1087.44640847 632.89375863 1084.8250218 632.87941206 C1082.92940362 632.88358079 1081.03378862 632.88950293 1079.13818079 632.89702952 C1073.88880606 632.91271161 1068.63972269 632.90323107 1063.39035231 632.88991771 C1057.69477028 632.87982534 1051.99923501 632.8927888 1046.3036595 632.90289104 C1036.30811817 632.9173831 1026.31266314 632.91687188 1016.31711775 632.9067024 C1005.58839905 632.89581645 994.85974183 632.89336596 984.13102156 632.90165174 C983.11579311 632.90242678 983.11579311 632.90242678 982.08005499 632.90321747 C979.32362426 632.90535047 976.56719359 632.90754529 973.81076297 632.90981857 C948.11653165 632.93099423 922.42233424 632.93240266 896.72809798 632.92122877 C895.96619118 632.92089758 895.20428439 632.9205664 894.41928951 632.92022519 C893.27461123 632.91972761 893.27461123 632.91972761 892.10680813 632.91921998 C868.88160898 632.90913741 845.65642385 632.90651695 822.43122298 632.91131055 C820.87748224 632.91162047 819.3237415 632.9119291 817.77000076 632.91223643 C811.5265569 632.91347824 805.28311305 632.9147529 799.03966922 632.91607549 C781.58538909 632.91974398 764.13110891 632.92202605 746.67682844 632.92322004 C745.48447231 632.92330191 745.48447231 632.92330191 744.26802817 632.92338544 C718.92935789 632.92502316 693.5906925 632.92051183 668.25202376 632.91182172 C667.01881086 632.91140023 667.01881086 632.91140023 665.76068458 632.91097022 C652.40864526 632.90639013 639.05660604 632.90151242 625.70456684 632.89660953 C572.74494909 632.87718337 519.78537179 632.878085 466.82575423 632.89753187 C453.48053942 632.90241641 440.13532461 632.90726052 426.79010969 632.91182172 C425.96845683 632.91210352 425.14680396 632.91238531 424.30025253 632.91267564 C398.98860271 632.9212971 373.67695625 632.9249581 348.36530501 632.92322004 C347.57098062 632.9231657 346.77665623 632.92311136 345.9582614 632.92305538 C328.52354987 632.9218056 311.0888387 632.91927132 293.65412752 632.91557803 C287.41618062 632.91426139 281.1782337 632.91300908 274.94028679 632.91177518 C273.3883706 632.91146563 271.83645442 632.91115071 270.28453824 632.9108304 C247.06396755 632.90605102 223.84341266 632.91013149 200.62284394 632.92022519 C199.47998375 632.92072196 199.47998375 632.92072196 198.31403548 632.92122877 C197.55352695 632.9215595 196.79301843 632.92189023 196.00946419 632.92223098 C170.39114827 632.93325001 144.77287309 632.92923367 119.15456301 632.90810579 C116.40674601 632.90589625 113.65892898 632.90374945 110.91111189 632.90165174 C109.89953309 632.9008705 109.89953309 632.9008705 108.86751836 632.90007348 C97.51336852 632.89168528 86.1592852 632.89913876 74.80513781 632.91069049 C64.94735832 632.9196171 55.08965661 632.91415613 45.23188871 632.89667141 C39.60403832 632.88709815 33.97638036 632.8840221 28.3485356 632.89829534 C23.23839182 632.91112432 18.12861289 632.90586262 13.01849622 632.8855727 C11.17206017 632.88151212 9.32559457 632.88429123 7.47918171 632.89439645 C4.98818974 632.90707217 2.49849275 632.89548978 0.0075627 632.87744415 C-1.07827246 632.8917886 -1.07827246 632.8917886 -2.18604368 632.90642284 C-5.32458379 632.85966414 -7.04627259 632.76545787 -9.4233363 630.62601397 C-10.58061725 628.15931181 -10.85427208 626.58964442 -10.85498077 623.87518722 C-10.8662466 622.51902785 -10.8662466 622.51902785 -10.87774003 621.13547131 C-10.87071653 620.14412101 -10.86369303 619.15277071 -10.8564567 618.13137949 C-10.86299718 616.54295427 -10.86299718 616.54295427 -10.8696698 614.92243966 C-10.88069146 611.34409894 -10.87017169 607.76613827 -10.8598842 604.18779981 C-10.86333802 601.60848342 -10.86810072 599.0291685 -10.87406594 596.4498567 C-10.88492035 590.82653298 -10.8845605 585.2032956 -10.87692446 579.57996786 C-10.86560041 571.21810258 -10.87136597 562.85631046 -10.88054938 554.49444571 C-10.89636725 539.56249561 -10.89496927 524.63058395 -10.88631264 509.69863017 C-10.87877448 496.63228259 -10.87679189 483.56594912 -10.88038057 470.49959981 C-10.88060973 469.63384341 -10.88083888 468.76808701 -10.88107498 467.87609556 C-10.88200895 464.36197247 -10.88296415 460.84784938 -10.88395427 457.3337263 C-10.8931369 424.35039216 -10.88480182 391.36708255 -10.86866358 358.38375219 C-10.85442488 329.05963761 -10.85570105 299.73556212 -10.87004656 270.41144788 C-10.8860989 237.48803536 -10.89248701 204.56464451 -10.88320976 171.64122862 C-10.88224757 168.13371222 -10.88130905 164.62619581 -10.88038057 161.1186794 C-10.88014334 160.25499862 -10.87990611 159.39131784 -10.87966169 158.50146492 C-10.87624461 145.44044681 -10.88024871 132.37944434 -10.88781923 119.3184284 C-10.89638094 104.47306199 -10.89428686 89.62774015 -10.877977 74.78237932 C-10.86914329 66.46681557 -10.86862875 58.15134822 -10.87991552 49.83578689 C-10.88739945 43.64047166 -10.87933083 37.44527119 -10.8649918 31.24997009 C-10.86162027 28.73323078 -10.86339066 26.21647868 -10.87061916 23.6997475 C-10.87964581 20.29793425 -10.8704831 16.89665874 -10.8564567 13.49487436 C-10.8634802 12.50118289 -10.87050369 11.50749142 -10.87774003 10.48368809 C-10.87022947 9.58208536 -10.86271891 8.68048263 -10.85498077 7.7515586 C-10.85477749 6.97301838 -10.85457421 6.19447816 -10.85436478 5.39234581 C-10.47893327 3.37604749 -10.47893327 3.37604749 -9.42286364 1.62608102 C-6.44259946 -0.29036116 -3.4299983 -0.03402059 0 0 Z M-8.47893327 4.37604749 C-8.78074447 6.33772505 -8.78074447 6.33772505 -8.7296316 8.62324941 C-8.73463864 9.52168388 -8.73964568 10.42011835 -8.74480444 11.34577811 C-8.74012211 12.34106394 -8.73543978 13.33634977 -8.73061556 14.36179578 C-8.73352244 15.41704946 -8.73642932 16.47230313 -8.73942429 17.55953419 C-8.74679146 21.13726287 -8.73974983 24.71482363 -8.73290056 28.2925514 C-8.73520234 30.86672845 -8.73837695 33.44090485 -8.74235505 36.01507986 C-8.74959975 41.63333177 -8.74934627 47.2515453 -8.74426073 52.86979902 C-8.73671898 61.2241102 -8.74055111 69.5783888 -8.74667734 77.93269974 C-8.75722871 92.85047599 -8.75628815 107.76823515 -8.75051952 122.68601304 C-8.74549596 135.7405096 -8.74417147 148.79499988 -8.74656481 161.8494972 C-8.74671758 162.71414986 -8.74687035 163.57880252 -8.74702775 164.46965678 C-8.74765038 167.97922679 -8.74828718 171.4887968 -8.74894727 174.99836681 C-8.75507053 207.94649218 -8.74951003 240.89460663 -8.73875348 273.84273031 C-8.72926169 303.13964918 -8.73011092 332.43655066 -8.73967546 361.73346937 C-8.75037587 394.61986468 -8.75463634 427.50625034 -8.74845093 460.39264715 C-8.74780946 463.89596402 -8.74718379 467.3992809 -8.74656481 470.90259778 C-8.74640665 471.76525584 -8.7462485 472.62791389 -8.74608555 473.5167131 C-8.74380694 486.56563205 -8.74647796 499.61454405 -8.75152391 512.66346204 C-8.75723046 527.49498908 -8.75583841 542.3264963 -8.74496242 557.15802085 C-8.73907099 565.46710099 -8.73873354 573.77613824 -8.74625477 582.0852173 C-8.75124074 588.27400302 -8.74586969 594.46273761 -8.73630562 600.65151703 C-8.73405637 603.16695331 -8.73524161 605.68239527 -8.7400572 608.19782794 C-8.74606672 611.59540267 -8.73997474 614.9927374 -8.73061556 618.3902992 C-8.73529789 619.38558503 -8.73998022 620.38087087 -8.74480444 621.40631688 C-8.73979741 622.30475135 -8.73479037 623.20318582 -8.7296316 624.12884557 C-8.72949608 624.90674141 -8.72936057 625.68463724 -8.72922094 626.48610568 C-8.64172128 628.61869541 -8.64172128 628.61869541 -6.47893327 630.37604749 C-3.99197019 630.57282857 -1.61645064 630.64315099 0.87169081 630.62674582 C1.64342399 630.62955045 2.41515718 630.63235509 3.21027622 630.63524471 C5.8288029 630.64227363 8.44709871 630.63489609 11.06562239 630.62772977 C12.95696346 630.62981367 14.84830373 630.63277438 16.7396422 630.63653851 C21.98173208 630.64438616 27.2237491 630.63963575 32.4658379 630.6329826 C38.15183671 630.62793962 43.83782376 630.63441687 49.52382094 630.63946927 C59.50406004 630.64671765 69.48427753 630.64645824 79.46451765 630.64137495 C90.177515 630.63593316 100.89049696 630.63470576 111.6034947 630.63884962 C112.61700101 630.63923713 112.61700101 630.63923713 113.6509822 630.63963248 C116.40270877 630.64069897 119.15443533 630.64179638 121.90616187 630.64293303 C147.56026995 630.65352249 173.21436952 630.65422436 198.86847883 630.64863813 C200.00969967 630.64838974 200.00969967 630.64838974 201.17397547 630.64813634 C201.93599868 630.64797048 202.69802189 630.64780462 203.48313671 630.64763374 C226.67229475 630.64259303 249.86144927 630.64128195 273.05060774 630.64367902 C274.6017638 630.64383398 276.15291987 630.64398829 277.70407593 630.64414196 C283.93708844 630.64476286 290.17010095 630.64540019 296.40311345 630.64606149 C313.82837682 630.64789576 331.25364019 630.64903678 348.67890364 630.64963377 C349.86929083 630.6496747 349.86929083 630.6496747 351.08372625 630.64971647 C376.38164724 630.65053536 401.67956701 630.64827948 426.97748762 630.64393461 C428.20876963 630.64372386 428.20876963 630.64372386 429.46492601 630.64350886 C442.79617211 630.64121879 456.12741818 630.63877995 469.45866425 630.63632851 C522.3362393 630.62661538 575.21380422 630.6270662 628.09137923 630.63678968 C641.41580142 630.63923194 654.74022361 630.64165399 668.06464583 630.64393461 C669.29519447 630.64414595 669.29519447 630.64414595 670.55060268 630.64436157 C695.82147855 630.64867211 721.09235358 630.65050283 746.36322981 630.64963377 C747.15624299 630.6496066 747.94925617 630.64957943 748.76630004 630.64955144 C766.17200683 630.64892656 783.57771352 630.64765943 800.98342022 630.64581276 C807.21095465 630.64515444 813.43848908 630.64452828 819.66602352 630.64391134 C821.21535807 630.64375656 822.76469262 630.6435991 824.31402717 630.64343894 C847.49873892 630.64104897 870.68344672 630.64309004 893.86815798 630.64813634 C895.00937882 630.64838473 895.00937882 630.64838473 896.17365462 630.64863813 C897.3127823 630.64888618 897.3127823 630.64888618 898.47492266 630.64913923 C924.05302534 630.654648 949.63111782 630.65264211 975.20921904 630.64207664 C977.95235893 630.64097187 980.69549883 630.63989847 983.43863875 630.63884962 C984.44849998 630.638459 984.44849998 630.638459 985.47876245 630.63806048 C996.8167161 630.63386528 1008.1546531 630.63759417 1019.49260613 630.64336899 C1029.33444931 630.64783076 1039.17627301 630.6451046 1049.01811329 630.63635945 C1054.63766269 630.63157071 1060.2571639 630.63003921 1065.87671191 630.63717142 C1070.97811224 630.64358046 1076.07942115 630.64096284 1081.18081468 630.6308101 C1083.02524642 630.62877789 1084.86968555 630.63017419 1086.71411151 630.63522197 C1089.19966903 630.64154737 1091.68490079 630.63577878 1094.17044264 630.62674582 C1095.25824056 630.63391805 1095.25824056 630.63391805 1096.36801419 630.64123517 C1100.39201541 630.7233476 1100.39201541 630.7233476 1103.52106673 628.37604749 C1103.82287792 626.41436993 1103.82287792 626.41436993 1103.77176505 624.12884557 C1103.77677209 623.2304111 1103.78177913 622.33197663 1103.78693789 621.40631688 C1103.78225556 620.41103104 1103.77757323 619.41574521 1103.77274901 618.3902992 C1103.77565589 617.33504553 1103.77856277 616.27979185 1103.78155774 615.19256079 C1103.78892492 611.61483211 1103.78188328 608.03727135 1103.77503401 604.45954359 C1103.77733579 601.88536653 1103.7805104 599.31119014 1103.7844885 596.73701513 C1103.7917332 591.11876321 1103.79147972 585.50054968 1103.78639418 579.88229597 C1103.77885243 571.52798478 1103.78268456 563.17370619 1103.78881079 554.81939524 C1103.79936216 539.90161899 1103.7984216 524.98385983 1103.79265297 510.06608194 C1103.78762941 497.01158539 1103.78630492 483.95709511 1103.78869826 470.90259778 C1103.78885103 470.03794512 1103.7890038 469.17329246 1103.7891612 468.2824382 C1103.78978383 464.77286819 1103.79042063 461.26329818 1103.79108072 457.75372817 C1103.79720398 424.80560281 1103.79164348 391.85748835 1103.78088693 358.90936467 C1103.77139514 329.61244581 1103.77224437 300.31554433 1103.78180891 271.01862562 C1103.79250932 238.13223031 1103.79676979 205.24584464 1103.79058439 172.35944784 C1103.78994291 168.85613096 1103.78931724 165.35281408 1103.78869826 161.8494972 C1103.7885401 160.98683915 1103.78838195 160.12418109 1103.788219 159.23538189 C1103.78594039 146.18646293 1103.78861141 133.13755093 1103.79365736 120.08863294 C1103.79936391 105.2571059 1103.79797186 90.42559869 1103.78709587 75.59407413 C1103.78120444 67.28499399 1103.780867 58.97595674 1103.78838822 50.66687768 C1103.7933742 44.47809197 1103.78800314 38.28935737 1103.77843907 32.10057795 C1103.77618982 29.58514168 1103.77737506 27.06969972 1103.78219065 24.55426705 C1103.78820017 21.15669232 1103.78210819 17.75935759 1103.77274901 14.36179578 C1103.77743134 13.36650995 1103.78211367 12.37122412 1103.78693789 11.34577811 C1103.77942734 9.9981264 1103.77942734 9.9981264 1103.77176505 8.62324941 C1103.77162954 7.84535358 1103.77149402 7.06745774 1103.77135439 6.2659893 C1103.68385473 4.13339958 1103.68385473 4.13339958 1101.52106673 2.37604749 C1099.03410364 2.17926642 1096.65858409 2.10894399 1094.17044264 2.12534916 C1093.39870946 2.12254453 1092.62697627 2.1197399 1091.83185723 2.11685027 C1089.21333055 2.10982136 1086.59503474 2.1171989 1083.97651106 2.12436521 C1082.08516999 2.12228131 1080.19382972 2.1193206 1078.30249125 2.11555648 C1073.06040137 2.10770883 1067.81838435 2.11245924 1062.57629555 2.11911238 C1056.89029674 2.12415536 1051.20430969 2.11767812 1045.51831251 2.11262572 C1035.53807341 2.10537734 1025.55785592 2.10563675 1015.5776158 2.11072004 C1004.86461845 2.11616183 994.15163649 2.11738922 983.43863875 2.11324537 C982.42513244 2.11285785 982.42513244 2.11285785 981.39115125 2.1124625 C978.63942468 2.11139601 975.88769812 2.1102986 973.13597158 2.10916195 C947.48186351 2.0985725 921.82776393 2.09787063 896.17365462 2.10345685 C895.41284073 2.10362245 894.65202684 2.10378804 893.86815798 2.10395865 C892.72512317 2.10420743 892.72512317 2.10420743 891.55899674 2.10446125 C868.3698387 2.10950196 845.18068418 2.11081303 821.99152571 2.10841596 C820.44036965 2.108261 818.88921358 2.10810669 817.33805752 2.10795302 C811.10504501 2.10733212 804.8720325 2.10669479 798.63902 2.10603349 C781.21375663 2.10419922 763.78849326 2.10305821 746.36322981 2.10246122 C745.56963835 2.10243393 744.77604689 2.10240664 743.9584072 2.10237852 C718.66048621 2.10155962 693.36256644 2.1038155 668.06464583 2.10816038 C667.24379116 2.10830087 666.42293649 2.10844137 665.57720744 2.10858613 C652.24596134 2.11087619 638.91471527 2.11331504 625.5834692 2.11576648 C572.70589415 2.1254796 519.82832923 2.12502878 466.95075423 2.1153053 C453.62633204 2.11286304 440.30190984 2.11044099 426.97748762 2.10816038 C425.74693898 2.10794903 425.74693898 2.10794903 424.49153077 2.10773342 C399.2206549 2.10342287 373.94977987 2.10159216 348.67890364 2.10246122 C347.88589046 2.10248839 347.09287729 2.10251556 346.27583341 2.10254355 C328.87012662 2.10316843 311.46441993 2.10443555 294.05871323 2.10628222 C287.8311788 2.10694055 281.60364437 2.1075667 275.37610994 2.10818365 C273.82677538 2.10833842 272.27744083 2.10849588 270.72810628 2.10865604 C247.54339453 2.11104601 224.35868673 2.10900494 201.17397547 2.10395865 C200.41316158 2.10379305 199.65234769 2.10362746 198.86847883 2.10345685 C197.72935115 2.10320881 197.72935115 2.10320881 196.56721079 2.10295575 C170.98910811 2.09744698 145.41101563 2.09945287 119.83291441 2.11001834 C117.08977452 2.11112312 114.34663462 2.11219652 111.6034947 2.11324537 C110.59363347 2.11363599 110.59363347 2.11363599 109.563371 2.1140345 C98.22541735 2.1182297 86.88748035 2.11450082 75.54952732 2.10872599 C65.70768414 2.10426422 55.86586044 2.10699038 46.02402017 2.11573553 C40.40447076 2.12052428 34.78496955 2.12205578 29.16542155 2.11492357 C24.06402121 2.10851453 18.9627123 2.11113215 13.86131877 2.12128489 C12.01688703 2.1233171 10.1724479 2.12192079 8.32802194 2.11687301 C5.84246442 2.11054762 3.35723266 2.1163162 0.87169081 2.12534916 C-0.21610711 2.11817694 -0.21610711 2.11817694 -1.32588074 2.11085982 C-5.34988196 2.02874738 -5.34988196 2.02874738 -8.47893327 4.37604749 Z " fill="#158CBA" transform="translate(135.47893327474594,67.62395250797272)"/>
<path d="M0 0 C16.10145868 -0.12032643 16.10145868 -0.12032643 22.95898438 -0.14648438 C27.64032171 -0.1644258 32.3214832 -0.18566215 37.00268555 -0.22631836 C40.77632259 -0.25888769 44.5497711 -0.2768478 48.32353783 -0.28463173 C49.76408036 -0.29017965 51.20461246 -0.30101336 52.64507484 -0.31719017 C54.6608234 -0.33892959 56.67676121 -0.3402251 58.69262695 -0.34057617 C59.84068314 -0.34723801 60.98873932 -0.35389984 62.17158508 -0.36076355 C65 0 65 0 66.87193298 1.31739807 C68.76314629 4.13829356 68.35175734 6.92361555 68.328125 10.2578125 C68.32625183 10.96146942 68.32437866 11.66512634 68.32244873 12.3901062 C68.3157351 13.87453972 68.30183409 15.35895574 68.28125 16.84326172 C68.25002002 19.12353828 68.2402715 21.40312427 68.234375 23.68359375 C68.16344455 34.83655545 68.16344455 34.83655545 67 36 C64.91380978 36.09417773 62.82439523 36.11742878 60.73608398 36.11352539 C59.7556311 36.11374443 59.7556311 36.11374443 58.75537109 36.1139679 C56.58557872 36.11326883 54.41587121 36.10547678 52.24609375 36.09765625 C50.74536689 36.09579205 49.24463943 36.09436816 47.74391174 36.09336853 C43.78681774 36.08954352 39.82976022 36.0797134 35.87268066 36.06866455 C31.1286825 36.05665533 26.38467215 36.05204811 21.64066315 36.04621124 C14.42708336 36.03650162 7.21358369 36.01734498 0 36 C0 24.12 0 12.24 0 0 Z " fill="#DCF3FD" transform="translate(259,707)"/>
<path d="M0 0 C20.79 0 41.58 0 63 0 C63 11.88 63 23.76 63 36 C42.21 36 21.42 36 0 36 C0 24.12 0 12.24 0 0 Z " fill="#DEF4FD" transform="translate(195,707)"/>
<path d="M0 0 C0.76313004 -0.00287018 1.52626007 -0.00574036 2.31251526 -0.00869751 C3.92555483 -0.01073773 5.53861917 -0.00521074 7.15161133 0.00732422 C9.61661369 0.02335754 12.07997102 0.00748674 14.54492188 -0.01171875 C16.11328486 -0.00973588 17.68164683 -0.00589129 19.25 0 C20.35328896 -0.00910904 20.35328896 -0.00910904 21.47886658 -0.0184021 C24.46844537 0.02252626 26.89493257 0.27210295 29.65673828 1.44897461 C31.98417948 4.405484 31.74407099 7.38434686 31.6875 10.98828125 C31.68895523 11.72921524 31.69041046 12.47014923 31.69190979 13.23353577 C31.69025097 14.79952935 31.67869136 16.36553926 31.65795898 17.93139648 C31.62904912 20.32411275 31.63733935 22.71460677 31.65039062 25.10742188 C31.6441515 26.63021907 31.63575919 28.15300928 31.625 29.67578125 C31.62793564 30.38943344 31.63087128 31.10308563 31.63389587 31.83836365 C31.57867332 34.75845091 31.29759863 37.14421938 30.16821289 39.84790039 C27.09352172 42.25957924 23.87341624 41.96944696 20.12890625 41.9296875 C19.3412085 41.9335144 18.55351074 41.93734131 17.74194336 41.94128418 C16.07762371 41.94400446 14.41326139 41.93663496 12.74902344 41.91992188 C10.20020313 41.8985114 7.6542013 41.91971689 5.10546875 41.9453125 C3.48827502 41.94266924 1.87108305 41.9375443 0.25390625 41.9296875 C-0.50865479 41.93778442 -1.27121582 41.94588135 -2.05688477 41.95422363 C-5.18868121 41.89867267 -7.2780421 41.81412138 -9.78759766 39.84790039 C-11.19885386 36.46216785 -11.23773406 33.28392186 -11.20703125 29.67578125 C-11.20990143 28.93389053 -11.21277161 28.19199982 -11.21572876 27.42762756 C-11.21776555 25.86344639 -11.21226258 24.29923953 -11.19970703 22.73510742 C-11.18362376 20.34040522 -11.19957903 17.94738479 -11.21875 15.55273438 C-11.21676794 14.03124628 -11.21292504 12.50975922 -11.20703125 10.98828125 C-11.21310394 10.27260483 -11.21917664 9.55692841 -11.22543335 8.81956482 C-11.1866674 6.08293208 -11.07007455 3.89006081 -9.77172852 1.44897461 C-6.64782717 -0.22272636 -3.45620832 -0.02845703 0 0 Z " fill="#DFF5FE" transform="translate(1209.80859375,705.6015625)"/>
<path d="M0 0 C0.76313004 -0.00287018 1.52626007 -0.00574036 2.31251526 -0.00869751 C3.92555483 -0.01073773 5.53861917 -0.00521074 7.15161133 0.00732422 C9.61661369 0.02335754 12.07997102 0.00748674 14.54492188 -0.01171875 C16.11328486 -0.00973588 17.68164683 -0.00589129 19.25 0 C20.35328896 -0.00910904 20.35328896 -0.00910904 21.47886658 -0.0184021 C24.46844537 0.02252626 26.89493257 0.27210295 29.65673828 1.44897461 C31.98417948 4.405484 31.74407099 7.38434686 31.6875 10.98828125 C31.68895523 11.72921524 31.69041046 12.47014923 31.69190979 13.23353577 C31.69025097 14.79952935 31.67869136 16.36553926 31.65795898 17.93139648 C31.62904912 20.32411275 31.63733935 22.71460677 31.65039062 25.10742188 C31.6441515 26.63021907 31.63575919 28.15300928 31.625 29.67578125 C31.62793564 30.38943344 31.63087128 31.10308563 31.63389587 31.83836365 C31.57867332 34.75845091 31.29759863 37.14421938 30.16821289 39.84790039 C27.09352172 42.25957924 23.87341624 41.96944696 20.12890625 41.9296875 C19.3412085 41.9335144 18.55351074 41.93734131 17.74194336 41.94128418 C16.07762371 41.94400446 14.41326139 41.93663496 12.74902344 41.91992188 C10.20020313 41.8985114 7.6542013 41.91971689 5.10546875 41.9453125 C3.48827502 41.94266924 1.87108305 41.9375443 0.25390625 41.9296875 C-0.50865479 41.93778442 -1.27121582 41.94588135 -2.05688477 41.95422363 C-5.18868121 41.89867267 -7.2780421 41.81412138 -9.78759766 39.84790039 C-11.19885386 36.46216785 -11.23773406 33.28392186 -11.20703125 29.67578125 C-11.20990143 28.93389053 -11.21277161 28.19199982 -11.21572876 27.42762756 C-11.21776555 25.86344639 -11.21226258 24.29923953 -11.19970703 22.73510742 C-11.18362376 20.34040522 -11.19957903 17.94738479 -11.21875 15.55273438 C-11.21676794 14.03124628 -11.21292504 12.50975922 -11.20703125 10.98828125 C-11.21310394 10.27260483 -11.21917664 9.55692841 -11.22543335 8.81956482 C-11.1866674 6.08293208 -11.07007455 3.89006081 -9.77172852 1.44897461 C-6.64782717 -0.22272636 -3.45620832 -0.02845703 0 0 Z " fill="#DEF5FE" transform="translate(1164.80859375,705.6015625)"/>
<path d="M0 0 C0.80011727 -0.00467997 1.60023455 -0.00935994 2.4245978 -0.01418173 C5.1147395 -0.02618007 7.80437631 -0.01665572 10.49452209 -0.00723267 C12.41948749 -0.01129625 14.34445056 -0.01663693 16.26940918 -0.02316284 C21.50492822 -0.03686847 26.74027041 -0.03152416 31.97579265 -0.02202559 C37.44855787 -0.0144447 42.92130768 -0.02147032 48.39407349 -0.02618408 C57.58676377 -0.03164668 66.77938183 -0.02443727 75.97206116 -0.01016235 C86.6063281 0.00616025 97.24042247 0.00088047 107.87468523 -0.01564157 C116.99661613 -0.02924785 126.11849503 -0.03118015 135.2404328 -0.02332556 C140.6921872 -0.01864371 146.14386045 -0.01803818 151.59560966 -0.02793503 C156.72148925 -0.03658974 161.84714601 -0.03061009 166.97300148 -0.01325226 C168.85639958 -0.00927921 170.73981638 -0.01043539 172.62320709 -0.01704025 C175.19022156 -0.0252137 177.75651786 -0.01498526 180.32348633 0 C181.07241447 -0.00669217 181.82134261 -0.01338433 182.59296554 -0.02027929 C185.70398169 0.0150519 187.91949063 0.21812471 190.68773746 1.69237328 C193.16009418 4.40767281 192.77600862 7.48733536 192.72132874 10.97079468 C192.72278397 11.71172867 192.7242392 12.45266266 192.72573853 13.21604919 C192.72407971 14.78204278 192.7125201 16.34805269 192.69178772 17.91390991 C192.66287786 20.30662618 192.67116809 22.6971202 192.68421936 25.0899353 C192.67798024 26.6127325 192.66958793 28.13552271 192.65882874 29.65829468 C192.66176437 30.37194687 192.66470001 31.08559906 192.66772461 31.82087708 C192.61387834 34.6681883 192.41523233 36.97975685 191.18869781 39.56967926 C188.240263 42.28957615 185.21572897 41.9338694 181.40577698 41.8888855 C180.60087059 41.89512546 179.79596419 41.90136542 178.9666667 41.90779448 C176.26024347 41.92379335 173.55471232 41.91109365 170.84828186 41.89852905 C168.91183953 41.90394712 166.97540131 41.911068 165.03897095 41.91976929 C159.77248388 41.93804308 154.50630937 41.93091836 149.23981667 41.91825294 C143.73588322 41.90814627 138.23197706 41.91751212 132.7280426 41.92379761 C123.4840564 41.93108082 114.24019791 41.92146861 104.99623108 41.9024353 C94.29941495 41.88066532 83.60290376 41.88771621 72.90609503 41.90974092 C63.73236395 41.92787571 54.55872483 41.93046265 45.38498163 41.91998625 C39.90137895 41.91374075 34.41791972 41.91294468 28.93432617 41.9261322 C23.77965921 41.93766212 18.62538649 41.92971732 13.47076225 41.90655518 C11.57565911 41.90125277 9.68052295 41.90280788 7.78543282 41.91160583 C5.20473382 41.92248477 2.62531001 41.90889149 0.04469299 41.8888855 C-1.0889049 41.90226983 -1.0889049 41.90226983 -2.24540377 41.91592455 C-5.49579693 41.86681219 -7.29839098 41.82017857 -9.73921967 39.56967926 C-11.27359094 36.32663259 -11.20311347 33.17337724 -11.17320251 29.65829468 C-11.17607269 28.91640396 -11.17894287 28.17451324 -11.18190002 27.41014099 C-11.18393681 25.84595982 -11.17843385 24.28175296 -11.1658783 22.71762085 C-11.14979502 20.32291865 -11.1657503 17.92989821 -11.18492126 15.5352478 C-11.18293921 14.0137597 -11.17909631 12.49227265 -11.17320251 10.97079468 C-11.17927521 10.25511826 -11.1853479 9.53944183 -11.19160461 8.80207825 C-11.12282945 3.94698381 -11.12282945 3.94698381 -9.73642635 1.69237328 C-6.69150285 -0.3432384 -3.53997675 -0.03153808 0 0 Z M-8.646698 2.698349 C-10.5379113 5.51924449 -10.12652235 8.30456648 -10.10289001 11.63876343 C-10.10101685 12.34242035 -10.09914368 13.04607727 -10.09721375 13.77105713 C-10.09050011 15.25549064 -10.07659911 16.73990667 -10.05601501 18.22421265 C-10.02478503 20.50448921 -10.01503651 22.7840752 -10.00914001 25.06454468 C-10.640331 31.73173272 -10.640331 31.73173272 -8.77476501 37.38095093 C-6.68857479 37.47512866 -4.59916024 37.4983797 -2.510849 37.49447632 C-1.85721375 37.49462234 -1.20357849 37.49476837 -0.53013611 37.49491882 C1.63965627 37.49421976 3.80936378 37.4864277 5.97914124 37.47860718 C7.47986809 37.47674297 8.98059556 37.47531908 10.48132324 37.47431946 C14.43841725 37.47049445 18.39547477 37.46066432 22.35255432 37.44961548 C27.09655249 37.43760626 31.84056283 37.43299903 36.58457184 37.42716217 C43.79815163 37.41745255 51.0116513 37.39829591 58.22523499 37.38095093 C58.22523499 25.50095093 58.22523499 13.62095093 58.22523499 1.38095093 C46.74576496 1.29370915 46.74576496 1.29370915 35.26625061 1.23446655 C30.58491328 1.21652513 25.90375178 1.19528878 21.22254944 1.15463257 C17.4489124 1.12206324 13.67546389 1.10410312 9.90169716 1.0963192 C8.46115462 1.09077127 7.02062253 1.07993757 5.58016014 1.06376076 C3.56441159 1.04202134 1.54847378 1.04072582 -0.46739197 1.04037476 C-2.18947624 1.030382 -2.18947624 1.030382 -3.9463501 1.02018738 C-6.76457612 1.15571833 -6.76457612 1.15571833 -8.646698 2.698349 Z M59.22523499 1.38095093 C59.22523499 13.26095093 59.22523499 25.14095093 59.22523499 37.38095093 C80.01523499 37.38095093 100.80523499 37.38095093 122.22523499 37.38095093 C122.22523499 25.50095093 122.22523499 13.62095093 122.22523499 1.38095093 C101.43523499 1.38095093 80.64523499 1.38095093 59.22523499 1.38095093 Z M123.22523499 1.38095093 C123.22523499 13.26095093 123.22523499 25.14095093 123.22523499 37.38095093 C135.10902166 37.41001601 135.10902166 37.41001601 146.99281311 37.42977905 C151.83665557 37.43576688 156.68047921 37.44286558 161.52430725 37.45639038 C165.4275947 37.46722136 169.33086197 37.47322821 173.23416328 37.47582817 C174.72657146 37.47768204 176.21897847 37.48130193 177.7113781 37.48668098 C179.79471638 37.49389423 181.8779703 37.49494175 183.96131897 37.49447632 C185.74335976 37.49780724 185.74335976 37.49780724 187.56140137 37.50120544 C190.14644191 37.68457688 190.14644191 37.68457688 191.22523499 36.38095093 C191.46793305 31.85720616 191.45375756 27.32797024 191.46546936 22.7984314 C191.47516585 20.52217954 191.50617128 18.24683401 191.53773499 15.97079468 C191.54426577 14.52678964 191.54951595 13.08277812 191.55335999 11.63876343 C191.56270569 10.32021362 191.57205139 9.00166382 191.5816803 7.64315796 C191.49313127 4.49961118 191.49313127 4.49961118 190.09716797 2.698349 C187.35977887 0.77187452 185.24308487 1.02107946 181.91786194 1.04037476 C180.61673965 1.04060135 179.31561737 1.04082794 177.97506714 1.0410614 C176.55454668 1.05638141 175.13402973 1.0720294 173.71351624 1.08798218 C172.26049232 1.09357817 170.80746275 1.09784825 169.35443115 1.10084534 C165.53203169 1.11229397 161.70997479 1.14176094 157.88771057 1.17495728 C153.30058115 1.2110567 148.71333711 1.22481926 144.12610626 1.2423172 C137.158911 1.27139871 130.1924672 1.3288847 123.22523499 1.38095093 Z " fill="#168CBA" transform="translate(135.77476501464844,705.6190490722656)"/>
<path d="M0 0 C1.8125 1.1875 1.8125 1.1875 3 3 C3.46856135 6.74849077 3.15502531 7.76746204 1 11 C1.66 10.67 2.32 10.34 3 10 C3.40729228 7.67843403 3.74438677 5.3431213 4 3 C4.99 3 5.98 3 7 3 C7 5.31 7 7.62 7 10 C7.66 9.67 8.32 9.34 9 9 C9.65772428 5.97065509 9.65772428 5.97065509 10 3 C10.66 3 11.32 3 12 3 C12 5.64 12 8.28 12 11 C12.66 11 13.32 11 14 11 C14 8.36 14 5.72 14 3 C14.66 3 15.32 3 16 3 C16.33 3.99 16.66 4.98 17 6 C17.4125 5.505 17.825 5.01 18.25 4.5 C20 3 20 3 24 3 C24 3.66 24 4.32 24 5 C22.68 5 21.36 5 20 5 C20 6.32 20 7.64 20 9 C21.65 9 23.3 9 25 9 C25 6.03 25 3.06 25 0 C25.99 0 26.98 0 28 0 C28.495 2.475 28.495 2.475 29 5 C30.32 4.34 31.64 3.68 33 3 C32.34 4.32 31.68 5.64 31 7 C31.66 7.99 32.32 8.98 33 10 C33.33 6.7 33.66 3.4 34 0 C38.59037956 1.14759489 39.33669182 2.29039218 42 6 C42.33 4.02 42.66 2.04 43 0 C43.99 0 44.98 0 46 0 C46.495 1.98 46.495 1.98 47 4 C47.763125 3.79375 48.52625 3.5875 49.3125 3.375 C52 3 52 3 55 5 C55 4.34 55 3.68 55 3 C55.66 3 56.32 3 57 3 C57.33 2.34 57.66 1.68 58 1 C58 1.66 58 2.32 58 3 C60.53946923 3.84648974 61.90562398 4.02071669 64.5625 3.4375 C67 3 67 3 70 5 C70 4.34 70 3.68 70 3 C71.98 3 73.96 3 76 3 C74.68 3.66 73.36 4.32 72 5 C72 6.98 72 8.96 72 11 C71.34 11.33 70.68 11.66 70 12 C70 12.66 70 13.32 70 14 C69.34 14 68.68 14 68 14 C68 14.66 68 15.32 68 16 C66.68 16 65.36 16 64 16 C64 15.34 64 14.68 64 14 C63.34 14 62.68 14 62 14 C62 14.66 62 15.32 62 16 C60.68 16 59.36 16 58 16 C58 15.34 58 14.68 58 14 C57.34 14 56.68 14 56 14 C56 14.66 56 15.32 56 16 C54.68 16 53.36 16 52 16 C52 15.34 52 14.68 52 14 C51.34 14 50.68 14 50 14 C50 14.66 50 15.32 50 16 C48.68 16 47.36 16 46 16 C46 15.34 46 14.68 46 14 C45.34 14 44.68 14 44 14 C44 14.66 44 15.32 44 16 C42.68 16 41.36 16 40 16 C40 15.34 40 14.68 40 14 C39.34 14 38.68 14 38 14 C38 14.66 38 15.32 38 16 C36.68 16 35.36 16 34 16 C34 15.34 34 14.68 34 14 C33.34 14 32.68 14 32 14 C32 14.66 32 15.32 32 16 C30.68 16 29.36 16 28 16 C28 15.34 28 14.68 28 14 C27.34 14 26.68 14 26 14 C26 14.66 26 15.32 26 16 C24.68 16 23.36 16 22 16 C22 15.34 22 14.68 22 14 C21.34 14 20.68 14 20 14 C20 14.66 20 15.32 20 16 C18.68 16 17.36 16 16 16 C16 15.34 16 14.68 16 14 C15.34 14 14.68 14 14 14 C14 14.66 14 15.32 14 16 C12.68 16 11.36 16 10 16 C10 15.34 10 14.68 10 14 C9.34 14 8.68 14 8 14 C8 14.66 8 15.32 8 16 C6.68 16 5.36 16 4 16 C4 15.34 4 14.68 4 14 C3.34 14 2.68 14 2 14 C2 14.66 2 15.32 2 16 C0.68 16 -0.64 16 -2 16 C-2 15.34 -2 14.68 -2 14 C-2.66 14 -3.32 14 -4 14 C-4.28875 13.38125 -4.5775 12.7625 -4.875 12.125 C-5.93720042 9.86674235 -5.93720042 9.86674235 -8 8 C-8.3125 5 -8.3125 5 -8 2 C-4.76746204 -0.15502531 -3.74849077 -0.46856135 0 0 Z " fill="#F0DCD1" transform="translate(138,79)"/>
<path d="M0 0 C4.11868765 2.05934383 6.32459522 3.73946839 8 8 C8.71784252 14.17158118 8.66083424 19.7702368 5 25 C2.8125 26.875 2.8125 26.875 1 28 C1.99 28.66 2.98 29.32 4 30 C3.67 31.32 3.34 32.64 3 34 C1.1796875 34.671875 1.1796875 34.671875 -1 35 C-2.5116732 33.55405172 -4.01543786 32.0953765 -5.421875 30.546875 C-7.08054468 28.7549676 -7.08054468 28.7549676 -10.125 27.5 C-13.89118977 25.53503142 -15.15940577 23.82277263 -17 20 C-17.80340454 14.48663636 -17.12079853 9.15051072 -15 4 C-10.95040347 -0.93544577 -5.95432132 -0.95269141 0 0 Z " fill="#1C8DBC" transform="translate(604,22)"/>
<path d="M0 0 C2.64 0 5.28 0 8 0 C9.98 3.63 11.96 7.26 14 11 C14.33 7.37 14.66 3.74 15 0 C17.31 0 19.62 0 22 0 C22 9.24 22 18.48 22 28 C19.69 28 17.38 28 15 28 C13.00390625 25.8125 13.00390625 25.8125 11.5625 23 C11.06878906 22.071875 10.57507813 21.14375 10.06640625 20.1875 C9.71449219 19.465625 9.36257813 18.74375 9 18 C8.67 21.3 8.34 24.6 8 28 C5.36 28 2.72 28 0 28 C0 18.76 0 9.52 0 0 Z " fill="#218EBB" transform="translate(686,22)"/>
<path d="M0 0 C2.31 0 4.62 0 7 0 C7.33 4.29 7.66 8.58 8 13 C8.99 11.35 9.98 9.7 11 8 C14.6875 7.6875 14.6875 7.6875 18 8 C17.65324219 8.52207031 17.30648437 9.04414063 16.94921875 9.58203125 C15.51874842 12.11081936 14.5838547 14.14197001 14 17 C15.11249646 20.99883521 16.89472006 24.43568112 19 28 C16.36 28 13.72 28 11 28 C10.01 26.02 9.02 24.04 8 22 C7.67 23.98 7.34 25.96 7 28 C4.69 28 2.38 28 0 28 C0 18.76 0 9.52 0 0 Z " fill="#1D8DBC" transform="translate(665,22)"/>
<path d="M0 0 C3.05645998 0.57308625 4.36116845 1.89967614 6.125 4.3984375 C7.66097454 7.47038658 7.3515038 10.00088043 7.125 13.3984375 C4.82267442 19.04960029 4.82267442 19.04960029 2.125 20.3984375 C0.1015625 20.63671875 0.1015625 20.63671875 -2.25 20.7109375 C-3.40628906 20.76701172 -3.40628906 20.76701172 -4.5859375 20.82421875 C-7.82592064 20.22155977 -8.931621 19.02592077 -10.875 16.3984375 C-11.40625 13.5234375 -11.40625 13.5234375 -11.375 10.3984375 C-11.3853125 9.3671875 -11.395625 8.3359375 -11.40625 7.2734375 C-10.18145165 0.64511704 -5.95289821 -0.25456473 0 0 Z " fill="#1E8EBC" transform="translate(722.875,29.6015625)"/>
<path d="M0 0 C1.8125 1.1875 1.8125 1.1875 3 3 C3.46856135 6.74849077 3.15502531 7.76746204 1 11 C1.66 10.67 2.32 10.34 3 10 C3.40729228 7.67843403 3.74438677 5.3431213 4 3 C4.99 3 5.98 3 7 3 C7 5.31 7 7.62 7 10 C7.66 9.67 8.32 9.34 9 9 C9.65772428 5.97065509 9.65772428 5.97065509 10 3 C10.66 3 11.32 3 12 3 C12 5.64 12 8.28 12 11 C12.66 11 13.32 11 14 11 C14 8.36 14 5.72 14 3 C14.66 3 15.32 3 16 3 C16.33 3.99 16.66 4.98 17 6 C17.4125 5.505 17.825 5.01 18.25 4.5 C20 3 20 3 24 3 C24 3.66 24 4.32 24 5 C22.68 5 21.36 5 20 5 C20 6.32 20 7.64 20 9 C21.65 9 23.3 9 25 9 C24.505 9.45375 24.01 9.9075 23.5 10.375 C21.77390663 11.87635519 21.77390663 11.87635519 22 14 C21.34 14 20.68 14 20 14 C20 14.66 20 15.32 20 16 C18.68 16 17.36 16 16 16 C16 15.34 16 14.68 16 14 C15.34 14 14.68 14 14 14 C14 14.66 14 15.32 14 16 C12.68 16 11.36 16 10 16 C10 15.34 10 14.68 10 14 C9.34 14 8.68 14 8 14 C8 14.66 8 15.32 8 16 C6.68 16 5.36 16 4 16 C4 15.34 4 14.68 4 14 C3.34 14 2.68 14 2 14 C2 14.66 2 15.32 2 16 C0.68 16 -0.64 16 -2 16 C-2 15.34 -2 14.68 -2 14 C-2.66 14 -3.32 14 -4 14 C-4.28875 13.38125 -4.5775 12.7625 -4.875 12.125 C-5.93720042 9.86674235 -5.93720042 9.86674235 -8 8 C-8.3125 5 -8.3125 5 -8 2 C-4.76746204 -0.15502531 -3.74849077 -0.46856135 0 0 Z " fill="#A6898D" transform="translate(138,79)"/>
<path d="M0 0 C2.31 0 4.62 0 7 0 C7 4.62 7 9.24 7 14 C7.99 13.67 8.98 13.34 10 13 C10.33 8.71 10.66 4.42 11 0 C12.98 0 14.96 0 17 0 C17 4.29 17 8.58 17 13 C17.99 13.33 18.98 13.66 20 14 C19.67 15.98 19.34 17.96 19 20 C16.39472895 20.10792837 13.79391689 20.18724878 11.1875 20.25 C10.44951172 20.28351562 9.71152344 20.31703125 8.95117188 20.3515625 C5.77311629 20.40908387 3.59416697 20.44562523 1 18.5 C-0.42870694 14.92823264 -0.31765359 11.52779148 -0.1875 7.75 C-0.17396484 7.00492188 -0.16042969 6.25984375 -0.14648438 5.4921875 C-0.11127204 3.66114584 -0.05746851 1.83047831 0 0 Z " fill="#218EBC" transform="translate(615,30)"/>
<path d="M0 0 C2.5 1.625 2.5 1.625 4 4 C4.5 7.0625 4.5 7.0625 4 10 C2.375 11.875 2.375 11.875 0 13 C-3.25 13.1875 -3.25 13.1875 -6 13 C-6 13.66 -6 14.32 -6 15 C-3.36 14.67 -0.72 14.34 2 14 C2.33 15.65 2.66 17.3 3 19 C-0.49474739 20.7473737 -4.18678856 20.55225821 -8 20 C-11.0625 18.125 -11.0625 18.125 -13 15 C-14.0077149 9.91978438 -13.81268324 6.26981757 -11 1.875 C-6.83594076 -0.72753703 -4.86097528 -0.69442504 0 0 Z " fill="#2490BD" transform="translate(760,30)"/>
<path d="M0 0 C0.76313004 -0.00287018 1.52626007 -0.00574036 2.31251526 -0.00869751 C3.92555483 -0.01073773 5.53861917 -0.00521074 7.15161133 0.00732422 C9.61661369 0.02335754 12.07997102 0.00748674 14.54492188 -0.01171875 C16.11328486 -0.00973588 17.68164683 -0.00589129 19.25 0 C20.35328896 -0.00910904 20.35328896 -0.00910904 21.47886658 -0.0184021 C24.46844537 0.02252626 26.89493257 0.27210295 29.65673828 1.44897461 C31.98417948 4.405484 31.74407099 7.38434686 31.6875 10.98828125 C31.68895523 11.72921524 31.69041046 12.47014923 31.69190979 13.23353577 C31.69025097 14.79952935 31.67869136 16.36553926 31.65795898 17.93139648 C31.62904912 20.32411275 31.63733935 22.71460677 31.65039062 25.10742188 C31.6441515 26.63021907 31.63575919 28.15300928 31.625 29.67578125 C31.62793564 30.38943344 31.63087128 31.10308563 31.63389587 31.83836365 C31.57867332 34.75845091 31.29759863 37.14421938 30.16821289 39.84790039 C27.09352172 42.25957924 23.87341624 41.96944696 20.12890625 41.9296875 C19.3412085 41.9335144 18.55351074 41.93734131 17.74194336 41.94128418 C16.07762371 41.94400446 14.41326139 41.93663496 12.74902344 41.91992188 C10.20020313 41.8985114 7.6542013 41.91971689 5.10546875 41.9453125 C3.48827502 41.94266924 1.87108305 41.9375443 0.25390625 41.9296875 C-0.50865479 41.93778442 -1.27121582 41.94588135 -2.05688477 41.95422363 C-5.18868121 41.89867267 -7.2780421 41.81412138 -9.78759766 39.84790039 C-11.19885386 36.46216785 -11.23773406 33.28392186 -11.20703125 29.67578125 C-11.20990143 28.93389053 -11.21277161 28.19199982 -11.21572876 27.42762756 C-11.21776555 25.86344639 -11.21226258 24.29923953 -11.19970703 22.73510742 C-11.18362376 20.34040522 -11.19957903 17.94738479 -11.21875 15.55273438 C-11.21676794 14.03124628 -11.21292504 12.50975922 -11.20703125 10.98828125 C-11.21310394 10.27260483 -11.21917664 9.55692841 -11.22543335 8.81956482 C-11.1866674 6.08293208 -11.07007455 3.89006081 -9.77172852 1.44897461 C-6.64782717 -0.22272636 -3.45620832 -0.02845703 0 0 Z M-8.76464844 2.46972656 C-10.41018239 5.50988517 -10.16103116 8.22610483 -10.13671875 11.65625 C-10.13484558 12.35990692 -10.13297241 13.06356384 -10.13104248 13.7885437 C-10.12432885 15.27297722 -10.11042784 16.75739324 -10.08984375 18.24169922 C-10.05861377 20.52197578 -10.04886525 22.80156177 -10.04296875 25.08203125 C-10.67415974 31.74921929 -10.67415974 31.74921929 -8.80859375 37.3984375 C-6.00865778 37.49947005 -3.23390731 37.53813838 -0.43359375 37.53125 C0.40606934 37.53220673 1.24573242 37.53316345 2.11083984 37.53414917 C3.8896492 37.53483098 5.66846102 37.53297667 7.44726562 37.52880859 C10.17974401 37.52346033 12.91205801 37.52875355 15.64453125 37.53515625 C17.36848995 37.53449547 19.09244854 37.53321431 20.81640625 37.53125 C21.63931152 37.53327423 22.4622168 37.53529846 23.31005859 37.53738403 C27.05520491 37.8841921 27.05520491 37.8841921 30.19140625 36.3984375 C30.43410431 31.87469273 30.41992882 27.34545681 30.43164062 22.81591797 C30.44133712 20.53966611 30.47234254 18.26432058 30.50390625 15.98828125 C30.51043704 14.54427621 30.51568721 13.10026469 30.51953125 11.65625 C30.52887695 10.3377002 30.53822266 9.01915039 30.54785156 7.66064453 C30.41205195 4.51607929 30.41205195 4.51607929 29.14746094 2.46972656 C26.08087368 0.79022271 22.97408058 0.97121122 19.56640625 1 C18.82310059 0.99712982 18.07979492 0.99425964 17.31396484 0.99130249 C15.74380735 0.98926274 14.17362439 0.9947865 12.60351562 1.00732422 C10.19994293 1.02338047 7.79805164 1.00747398 5.39453125 0.98828125 C3.86848587 0.9902637 2.34244154 0.99410741 0.81640625 1 C0.09759277 0.99392731 -0.6212207 0.98785461 -1.36181641 0.9815979 C-4.12602373 1.02056605 -6.31347937 1.12727401 -8.76464844 2.46972656 Z " fill="#1D90BC" transform="translate(1209.80859375,705.6015625)"/>
<path d="M0 0 C0.76313004 -0.00287018 1.52626007 -0.00574036 2.31251526 -0.00869751 C3.92555483 -0.01073773 5.53861917 -0.00521074 7.15161133 0.00732422 C9.61661369 0.02335754 12.07997102 0.00748674 14.54492188 -0.01171875 C16.11328486 -0.00973588 17.68164683 -0.00589129 19.25 0 C20.35328896 -0.00910904 20.35328896 -0.00910904 21.47886658 -0.0184021 C24.46844537 0.02252626 26.89493257 0.27210295 29.65673828 1.44897461 C31.98417948 4.405484 31.74407099 7.38434686 31.6875 10.98828125 C31.68895523 11.72921524 31.69041046 12.47014923 31.69190979 13.23353577 C31.69025097 14.79952935 31.67869136 16.36553926 31.65795898 17.93139648 C31.62904912 20.32411275 31.63733935 22.71460677 31.65039062 25.10742188 C31.6441515 26.63021907 31.63575919 28.15300928 31.625 29.67578125 C31.62793564 30.38943344 31.63087128 31.10308563 31.63389587 31.83836365 C31.57867332 34.75845091 31.29759863 37.14421938 30.16821289 39.84790039 C27.09352172 42.25957924 23.87341624 41.96944696 20.12890625 41.9296875 C19.3412085 41.9335144 18.55351074 41.93734131 17.74194336 41.94128418 C16.07762371 41.94400446 14.41326139 41.93663496 12.74902344 41.91992188 C10.20020313 41.8985114 7.6542013 41.91971689 5.10546875 41.9453125 C3.48827502 41.94266924 1.87108305 41.9375443 0.25390625 41.9296875 C-0.50865479 41.93778442 -1.27121582 41.94588135 -2.05688477 41.95422363 C-5.18868121 41.89867267 -7.2780421 41.81412138 -9.78759766 39.84790039 C-11.19885386 36.46216785 -11.23773406 33.28392186 -11.20703125 29.67578125 C-11.20990143 28.93389053 -11.21277161 28.19199982 -11.21572876 27.42762756 C-11.21776555 25.86344639 -11.21226258 24.29923953 -11.19970703 22.73510742 C-11.18362376 20.34040522 -11.19957903 17.94738479 -11.21875 15.55273438 C-11.21676794 14.03124628 -11.21292504 12.50975922 -11.20703125 10.98828125 C-11.21310394 10.27260483 -11.21917664 9.55692841 -11.22543335 8.81956482 C-11.1866674 6.08293208 -11.07007455 3.89006081 -9.77172852 1.44897461 C-6.64782717 -0.22272636 -3.45620832 -0.02845703 0 0 Z M-8.76464844 2.46972656 C-10.41018239 5.50988517 -10.16103116 8.22610483 -10.13671875 11.65625 C-10.13484558 12.35990692 -10.13297241 13.06356384 -10.13104248 13.7885437 C-10.12432885 15.27297722 -10.11042784 16.75739324 -10.08984375 18.24169922 C-10.05861377 20.52197578 -10.04886525 22.80156177 -10.04296875 25.08203125 C-10.67415974 31.74921929 -10.67415974 31.74921929 -8.80859375 37.3984375 C-6.00865778 37.49947005 -3.23390731 37.53813838 -0.43359375 37.53125 C0.40606934 37.53220673 1.24573242 37.53316345 2.11083984 37.53414917 C3.8896492 37.53483098 5.66846102 37.53297667 7.44726562 37.52880859 C10.17974401 37.52346033 12.91205801 37.52875355 15.64453125 37.53515625 C17.36848995 37.53449547 19.09244854 37.53321431 20.81640625 37.53125 C21.63931152 37.53327423 22.4622168 37.53529846 23.31005859 37.53738403 C27.05520491 37.8841921 27.05520491 37.8841921 30.19140625 36.3984375 C30.43410431 31.87469273 30.41992882 27.34545681 30.43164062 22.81591797 C30.44133712 20.53966611 30.47234254 18.26432058 30.50390625 15.98828125 C30.51043704 14.54427621 30.51568721 13.10026469 30.51953125 11.65625 C30.52887695 10.3377002 30.53822266 9.01915039 30.54785156 7.66064453 C30.41205195 4.51607929 30.41205195 4.51607929 29.14746094 2.46972656 C26.08087368 0.79022271 22.97408058 0.97121122 19.56640625 1 C18.82310059 0.99712982 18.07979492 0.99425964 17.31396484 0.99130249 C15.74380735 0.98926274 14.17362439 0.9947865 12.60351562 1.00732422 C10.19994293 1.02338047 7.79805164 1.00747398 5.39453125 0.98828125 C3.86848587 0.9902637 2.34244154 0.99410741 0.81640625 1 C0.09759277 0.99392731 -0.6212207 0.98785461 -1.36181641 0.9815979 C-4.12602373 1.02056605 -6.31347937 1.12727401 -8.76464844 2.46972656 Z " fill="#1D90BC" transform="translate(1164.80859375,705.6015625)"/>
<path d="M0 0 C0.33 0.66 0.66 1.32 1 2 C3.52511211 2.99200833 4.88809101 3.02456539 7.5625 2.4375 C10 2 10 2 13 4 C13 3.34 13 2.68 13 2 C14.98 2 16.96 2 19 2 C17.02 2.99 17.02 2.99 15 4 C15 5.98 15 7.96 15 10 C14.01 10.495 14.01 10.495 13 11 C13 11.66 13 12.32 13 13 C12.34 13 11.68 13 11 13 C11 13.66 11 14.32 11 15 C9.68 15 8.36 15 7 15 C7 14.34 7 13.68 7 13 C6.34 13 5.68 13 5 13 C5 13.66 5 14.32 5 15 C3.68 15 2.36 15 1 15 C1 14.34 1 13.68 1 13 C0.34 13 -0.32 13 -1 13 C-1 13.66 -1 14.32 -1 15 C-2.32 15 -3.64 15 -5 15 C-5 13.35 -5 11.7 -5 10 C-6.65 9.67 -8.3 9.34 -10 9 C-10 7.02 -10 5.04 -10 3 C-7.6875 2.375 -7.6875 2.375 -5 2 C-4.01 2.66 -3.02 3.32 -2 4 C-2 3.34 -2 2.68 -2 2 C-1.34 2 -0.68 2 0 2 C0 1.34 0 0.68 0 0 Z " fill="#DCD5DB" transform="translate(195,80)"/>
<path d="M0 0 C0.66 0.33 1.32 0.66 2 1 C1.67 2.98 1.34 4.96 1 7 C-1 7 -3 7 -5 7 C-5 8.98 -5 10.96 -5 13 C-2.03 13.495 -2.03 13.495 1 14 C1.042721 15.66611905 1.04063832 17.33382885 1 19 C-0.56941198 20.56941198 -2.14134994 20.2449847 -4.3125 20.3125 C-7.33254242 20.24517421 -8.83525106 20.0843836 -11.5625 18.6875 C-13.92886207 14.26343178 -13.81707432 9.88798441 -13 5 C-9.47056732 -0.62503334 -6.12517655 -0.60247638 0 0 Z " fill="#1E8EBC" transform="translate(661,30)"/>
<path d="M0 0 C0.33 0.66 0.66 1.32 1 2 C1.99 1.34 2.98 0.68 4 0 C10.56603774 0.56603774 10.56603774 0.56603774 12 2 C12.25 5.4375 12.25 5.4375 12 9 C8.69005531 11.2066298 8.40190187 11.18179105 4.75 10.5625 C1.47605136 10.08793741 -0.51161459 10.08251848 -3.875 10.625 C-7 11 -7 11 -8.9375 9.875 C-10.36066991 7.36352369 -10.42674516 5.84496772 -10 3 C-7.65127184 -1.00665392 -4.23309225 -0.239609 0 0 Z " fill="#4497C3" transform="translate(282,720)"/>
<path d="M0 0 C1.98 0 3.96 0 6 0 C6 1.32 6 2.64 6 4 C7.32 4 8.64 4 10 4 C10 5.98 10 7.96 10 10 C9.01 10 8.02 10 7 10 C7 14.62 7 19.24 7 24 C4.69 24 2.38 24 0 24 C0 19.05 0 14.1 0 9 C-0.99 9 -1.98 9 -3 9 C-3 7.35 -3 5.7 -3 4 C-2.01 4 -1.02 4 0 4 C0 2.68 0 1.36 0 0 Z " fill="#178DBC" transform="translate(735,26)"/>
<path d="M0 0 C2.33333333 0.33333333 4.66666667 0.66666667 7 1 C7.33 0.67 7.66 0.34 8 0 C9.66617115 -0.04063832 11.33388095 -0.042721 13 0 C14.33332095 2.6666419 13.67102033 4.16680303 13 7 C11.68 7 10.36 7 9 7 C9 11.29 9 15.58 9 20 C6.36 20 3.72 20 1 20 C0.93941406 19.07316406 0.87882813 18.14632812 0.81640625 17.19140625 C0.73261719 15.99386719 0.64882813 14.79632813 0.5625 13.5625 C0.48128906 12.36753906 0.40007813 11.17257813 0.31640625 9.94140625 C0.32343886 7.11429756 0.32343886 7.11429756 -1 6 C-1.125 3.5 -1.125 3.5 -1 1 C-0.67 0.67 -0.34 0.34 0 0 Z " fill="#2A92BE" transform="translate(767,30)"/>
<path d="M0 0 C3.375 0.5625 3.375 0.5625 7 2 C8.69764793 5.59901361 9.17393477 7.8818479 8.5625 11.8125 C6.28178993 15.00549409 3.73389888 15.23939097 0 16 C0 15.34 0 14.68 0 14 C-1.65 14 -3.3 14 -5 14 C-7.21538462 7.72307692 -7.21538462 7.72307692 -6.125 4.0625 C-5.75375 3.381875 -5.3825 2.70125 -5 2 C-3.35 2 -1.7 2 0 2 C0 1.34 0 0.68 0 0 Z " fill="#2F92BE" transform="translate(1219,717)"/>
<path d="M0 0 C2.64 0 5.28 0 8 0 C8 6.6 8 13.2 8 20 C5.36 20 2.72 20 0 20 C0 13.4 0 6.8 0 0 Z " fill="#2D93C0" transform="translate(637,30)"/>
<path d="M0 0 C10.00211416 -0.7230444 10.00211416 -0.7230444 12.84375 1.3359375 C14.1875 3 14.1875 3 16 6 C16.33 4.02 16.66 2.04 17 0 C17.66 0 18.32 0 19 0 C19 3.63 19 7.26 19 11 C15.00003714 9.66667905 14.16217663 7.5042173 12 4 C11.67 6.31 11.34 8.62 11 11 C7.37 11 3.74 11 0 11 C0 7.37 0 3.74 0 0 Z " fill="#CCEAF2" transform="translate(162,720)"/>
<path d="M0 0 C-0.14029419 2.1462026 -0.28738164 4.29196218 -0.4375 6.4375 C-0.51871094 7.63246094 -0.59992188 8.82742188 -0.68359375 10.05859375 C-1 13 -1 13 -2 14 C-3.8125 14.1328125 -3.8125 14.1328125 -6 14.125 C-6.721875 14.12757813 -7.44375 14.13015625 -8.1875 14.1328125 C-10 14 -10 14 -11 13 C-11.23481693 10.81707226 -11.41363323 8.62796826 -11.5625 6.4375 C-11.64628906 5.23996094 -11.73007813 4.04242187 -11.81640625 2.80859375 C-11.87699219 1.88175781 -11.93757813 0.95492187 -12 0 C-7.70272603 -1.30660357 -4.39784135 -0.6596762 0 0 Z " fill="#4397BE" transform="translate(1181,718)"/>
<path d="M0 0 C0.33 0.66 0.66 1.32 1 2 C1.66 2.33 2.32 2.66 3 3 C2.34 3 1.68 3 1 3 C1 4.65 1 6.3 1 8 C1.66 8 2.32 8 3 8 C3 8.66 3 9.32 3 10 C2.01 10.495 2.01 10.495 1 11 C1 11.66 1 12.32 1 13 C0.34 13 -0.32 13 -1 13 C-1 13.66 -1 14.32 -1 15 C-2.32 15 -3.64 15 -5 15 C-5 13.35 -5 11.7 -5 10 C-6.65 9.67 -8.3 9.34 -10 9 C-10 7.02 -10 5.04 -10 3 C-7.6875 2.375 -7.6875 2.375 -5 2 C-4.01 2.66 -3.02 3.32 -2 4 C-2 3.34 -2 2.68 -2 2 C-1.34 2 -0.68 2 0 2 C0 1.34 0 0.68 0 0 Z " fill="#DFC6BC" transform="translate(195,80)"/>
<path d="M0 0 C0.99 0 1.98 0 3 0 C3.33 1.65 3.66 3.3 4 5 C5.32 4.34 6.64 3.68 8 3 C7.34 4.32 6.68 5.64 6 7 C6.495 7.598125 6.99 8.19625 7.5 8.8125 C9 11 9 11 9 14 C8.34 14 7.68 14 7 14 C7 14.66 7 15.32 7 16 C5.68 16 4.36 16 3 16 C3 15.34 3 14.68 3 14 C2.34 14 1.68 14 1 14 C1 14.66 1 15.32 1 16 C-0.32 16 -1.64 16 -3 16 C-3 14.68 -3 13.36 -3 12 C-3.66 11.67 -4.32 11.34 -5 11 C-3.68 10.67 -2.36 10.34 -1 10 C-0.67 6.7 -0.34 3.4 0 0 Z " fill="#F2C7C6" transform="translate(163,79)"/>
<path d="M0 0 C1.8125 1.1875 1.8125 1.1875 3 3 C3.1875 5.4375 3.1875 5.4375 3 8 C3 9.32 3 10.64 3 12 C-0.42085146 12 -2.81720186 11.21894397 -6 10 C-8 8 -8 8 -8.3125 5 C-8.209375 4.01 -8.10625 3.02 -8 2 C-4.76746204 -0.15502531 -3.74849077 -0.46856135 0 0 Z " fill="#332A38" transform="translate(138,79)"/>
<path d="M0 0 C0.66 2.97 1.32 5.94 2 9 C-1.73661142 10.86830571 -3.03589176 11.508219 -7 11 C-8.8125 9.8125 -8.8125 9.8125 -10 8 C-10.42317323 5.17884512 -10.38718434 3.66049093 -8.9375 1.1875 C-6.00731249 -0.60842137 -3.3527047 -0.18977574 0 0 Z " fill="#9CCBE2" transform="translate(282,720)"/>
<path d="M0 0 C3.375 0.6875 3.375 0.6875 4.375 1.6875 C4.625 5.125 4.625 5.125 4.375 8.6875 C1.14246204 10.84252531 0.12349077 11.15606135 -3.625 10.6875 C-5.4375 9.5625 -5.4375 9.5625 -6.625 7.6875 C-7 4.625 -7 4.625 -6.625 1.6875 C-3.625 -0.3125 -3.625 -0.3125 0 0 Z " fill="#4297C3" transform="translate(145.625,720.3125)"/>
<path d="M0 0 C1.9375 0.8125 1.9375 0.8125 3.9375 2.8125 C4.28923852 6.61127599 4.46451444 8.95610153 2.4375 12.25 C1.9425 12.765625 1.4475 13.28125 0.9375 13.8125 C-1.92974686 13.23905063 -2.9239515 12.9510485 -5.0625 10.8125 C-5.62390351 3.73881579 -5.62390351 3.73881579 -3.8125 0.75 C-2.0625 -0.1875 -2.0625 -0.1875 0 0 Z " fill="#D8EDF6" transform="translate(600.0625,29.1875)"/>
<path d="M0 0 C0.99 0 1.98 0 3 0 C3 2.31 3 4.62 3 7 C3.99 7 4.98 7 6 7 C6 8.32 6 9.64 6 11 C5.34 11 4.68 11 4 11 C4 11.66 4 12.32 4 13 C2.68 13 1.36 13 0 13 C0 12.34 0 11.68 0 11 C-0.66 11 -1.32 11 -2 11 C-2 11.66 -2 12.32 -2 13 C-3.32 13 -4.64 13 -6 13 C-6 12.34 -6 11.68 -6 11 C-6.66 11 -7.32 11 -8 11 C-8 10.34 -8 9.68 -8 9 C-5.92446352 8.4465236 -4.15634036 8 -2 8 C-0.03177114 6.03177114 -0.33751619 2.65191291 0 0 Z " fill="#ACA0A3" transform="translate(142,82)"/>
<path d="M0 0 C0.66 0.33 1.32 0.66 2 1 C2 0.34 2 -0.32 2 -1 C3.98 -1 5.96 -1 8 -1 C6.02 -0.01 6.02 -0.01 4 1 C4 2.98 4 4.96 4 7 C1.26930259 8.01136941 0.13998707 8.04557718 -2.6875 7.125 C-5 6 -5 6 -6 5 C-6.04063832 3.33382885 -6.042721 1.66611905 -6 0 C-3.4832097 -1.25839515 -2.62168527 -0.81927665 0 0 Z " fill="#99968A" transform="translate(206,83)"/>
<path d="M0 0 C5.75 -0.125 5.75 -0.125 8 1 C8.042721 2.66611905 8.04063832 4.33382885 8 6 C7 7 7 7 4.4375 7.0625 C3.2309375 7.0315625 3.2309375 7.0315625 2 7 C2 8.32 2 9.64 2 11 C1.34 11 0.68 11 0 11 C0 7.37 0 3.74 0 0 Z " fill="#3F8EBD" transform="translate(296,720)"/>
<path d="M0 0 C5.75 -0.125 5.75 -0.125 8 1 C8.042721 2.66611905 8.04063832 4.33382885 8 6 C7 7 7 7 4.4375 7.0625 C3.2309375 7.0315625 3.2309375 7.0315625 2 7 C2 8.32 2 9.64 2 11 C1.34 11 0.68 11 0 11 C0 7.37 0 3.74 0 0 Z " fill="#3F8EBD" transform="translate(152,720)"/>
<path d="M0 0 C0.99 0 1.98 0 3 0 C3.67119549 1.4562545 4.33681807 2.91507867 5 4.375 C5.556875 5.59316406 5.556875 5.59316406 6.125 6.8359375 C7 9 7 9 7 11 C6.34 11 5.68 11 5 11 C4.67 10.34 4.34 9.68 4 9 C1.47266765 8.34444881 1.47266765 8.34444881 -1 8 C-1.33 8.99 -1.66 9.98 -2 11 C-2.66 11 -3.32 11 -4 11 C-3.52269162 9.5410574 -3.04308958 8.08286504 -2.5625 6.625 C-2.29566406 5.81289063 -2.02882812 5.00078125 -1.75390625 4.1640625 C-1 2 -1 2 0 0 Z " fill="#6DAECF" transform="translate(220,720)"/>
<path d="M0 0 C1.99954746 -0.04254356 4.00041636 -0.04080783 6 0 C7 1 7 1 7.0625 4.0625 C7.041875 5.031875 7.02125 6.00125 7 7 C5.35 7.33 3.7 7.66 2 8 C2 8.99 2 9.98 2 11 C1.34 11 0.68 11 0 11 C0 7.37 0 3.74 0 0 Z " fill="#675365" transform="translate(500,82)"/>
<path d="M0 0 C1.99954746 -0.04254356 4.00041636 -0.04080783 6 0 C7 1 7 1 7.0625 4.0625 C7.041875 5.031875 7.02125 6.00125 7 7 C5.35 7.33 3.7 7.66 2 8 C2 8.99 2 9.98 2 11 C1.34 11 0.68 11 0 11 C0 7.37 0 3.74 0 0 Z " fill="#675365" transform="translate(491,82)"/>
<path d="M0 0 C3.68802044 1.22934015 4.72356973 2.93859378 7 6 C7.33 4.02 7.66 2.04 8 0 C8.66 0 9.32 0 10 0 C10 3.63 10 7.26 10 11 C6.23312136 9.11656068 5.20578354 8.30867531 3 5 C2.67 6.98 2.34 8.96 2 11 C1.34 11 0.68 11 0 11 C0 7.37 0 3.74 0 0 Z " fill="#3F2944" transform="translate(173,79)"/>
<path d="M0 0 C3.76687864 1.88343932 4.79421646 2.69132469 7 6 C7.33 4.02 7.66 2.04 8 0 C8.66 0 9.32 0 10 0 C10 3.63 10 7.26 10 11 C6.00003714 9.66667905 5.16217663 7.5042173 3 4 C2.67 6.31 2.34 8.62 2 11 C1.34 11 0.68 11 0 11 C0 7.37 0 3.74 0 0 Z " fill="#4090C2" transform="translate(171,720)"/>
<path d="M0 0 C1.99954746 -0.04254356 4.00041636 -0.04080783 6 0 C7 1 7 1 7.0625 4.0625 C7.041875 5.031875 7.02125 6.00125 7 7 C5.35 7.33 3.7 7.66 2 8 C2 8.99 2 9.98 2 11 C1.34 11 0.68 11 0 11 C0 7.37 0 3.74 0 0 Z " fill="#5E5C67" transform="translate(305,82)"/>
<path d="M0 0 C0.66 0 1.32 0 2 0 C2 2.64 2 5.28 2 8 C2.66 8 3.32 8 4 8 C4 5.36 4 2.72 4 0 C4.66 0 5.32 0 6 0 C6 2.97 6 5.94 6 9 C5.34 9 4.68 9 4 9 C4 10.32 4 11.64 4 13 C2.68 13 1.36 13 0 13 C-0.83796731 8.34462607 -1.0161692 4.62921525 0 0 Z " fill="#B08A8D" transform="translate(148,82)"/>
<path d="M0 0 C2.625 0.375 2.625 0.375 5 1 C5.625 3.375 5.625 3.375 6 6 C5.34 6.66 4.68 7.32 4 8 C1.375 7.625 1.375 7.625 -1 7 C-1.625 4.625 -1.625 4.625 -2 2 C-1.34 1.34 -0.68 0.68 0 0 Z " fill="#3B2335" transform="translate(457,82)"/>
<path d="M0 0 C0.04254356 1.99954746 0.04080783 4.00041636 0 6 C-1 7 -1 7 -3.5 7.125 C-6 7 -6 7 -7 6 C-7.04080783 4.00041636 -7.04254356 1.99954746 -7 0 C-4.3333581 -1.33332095 -2.83319697 -0.67102033 0 0 Z " fill="#6F7173" transform="translate(411,83)"/>
<path d="M0 0 C4.70588235 0.70588235 4.70588235 0.70588235 6 2 C6.04063832 3.66617115 6.042721 5.33388095 6 7 C4.0085944 7.38133299 2.00720923 7.71325582 0 8 C-1 7 -1 7 -1.125 4 C-1 1 -1 1 0 0 Z " fill="#71716F" transform="translate(186,82)"/>
<path d="M0 0 C1.64574566 -0.02688151 3.29161413 -0.04634123 4.9375 -0.0625 C5.85402344 -0.07410156 6.77054687 -0.08570312 7.71484375 -0.09765625 C10 0 10 0 11 1 C11.04092937 3.33297433 11.04241723 5.66705225 11 8 C10.34 8 9.68 8 9 8 C9 6.02 9 4.04 9 2 C8.01 2 7.02 2 6 2 C6 3.98 6 5.96 6 8 C5.34 8 4.68 8 4 8 C4 6.02 4 4.04 4 2 C3.01 2 2.02 2 1 2 C1 3.98 1 5.96 1 8 C0.67 8 0.34 8 0 8 C0 5.36 0 2.72 0 0 Z " fill="#3F2F2B" transform="translate(292,82)"/>
<path d="M0 0 C2.64 0 5.28 0 8 0 C8 1.98 8 3.96 8 6 C5.36 6 2.72 6 0 6 C0 4.02 0 2.04 0 0 Z " fill="#2D93C0" transform="translate(637,22)"/>
<path d="M0 0 C0.99 0.33 1.98 0.66 3 1 C4.1875 3.5625 4.1875 3.5625 5 6 C5.66 5.01 6.32 4.02 7 3 C7.66 2.01 8.32 1.02 9 0 C9.66 0 10.32 0 11 0 C10.52269162 1.4589426 10.04308958 2.91713496 9.5625 4.375 C9.29566406 5.18710937 9.02882812 5.99921875 8.75390625 6.8359375 C8 9 8 9 7 11 C6.01 11 5.02 11 4 11 C2.68 7.37 1.36 3.74 0 0 Z " fill="#4296C3" transform="translate(226,720)"/>
<path d="M0 0 C2.5 0.125 2.5 0.125 3.5 1.125 C3.625 3.625 3.625 3.625 3.5 6.125 C2.5 7.125 2.5 7.125 0 7.25 C-2.5 7.125 -2.5 7.125 -3.5 6.125 C-3.625 3.625 -3.625 3.625 -3.5 1.125 C-2.5 0.125 -2.5 0.125 0 0 Z " fill="#DBF3F9" transform="translate(288.5,721.875)"/>
<path d="M0 0 C2.5 0.125 2.5 0.125 3.5 1.125 C3.625 3.625 3.625 3.625 3.5 6.125 C2.5 7.125 2.5 7.125 0 7.25 C-2.5 7.125 -2.5 7.125 -3.5 6.125 C-3.625 3.625 -3.625 3.625 -3.5 1.125 C-2.5 0.125 -2.5 0.125 0 0 Z " fill="#DBF3F9" transform="translate(144.5,721.875)"/>
<path d="M0 0 C3.875 0.875 3.875 0.875 5 2 C5.04080783 3.99958364 5.04254356 6.00045254 5 8 C3.02 8 1.04 8 -1 8 C-1.93065133 5.39417629 -2.14917407 4.35801776 -1.0625 1.75 C-0.711875 1.1725 -0.36125 0.595 0 0 Z " fill="#615560" transform="translate(484,82)"/>
<path d="M0 0 C2.5 0.125 2.5 0.125 3.5 1.125 C3.625 3.625 3.625 3.625 3.5 6.125 C2.5 7.125 2.5 7.125 0 7.25 C-2.5 7.125 -2.5 7.125 -3.5 6.125 C-3.625 3.625 -3.625 3.625 -3.5 1.125 C-2.5 0.125 -2.5 0.125 0 0 Z " fill="#EFF7F3" transform="translate(135.5,80.875)"/>
<path d="M0 0 C1.65 0 3.3 0 5 0 C5.33 0.66 5.66 1.32 6 2 C4.35 2 2.7 2 1 2 C1 2.66 1 3.32 1 4 C3.475 4.99 3.475 4.99 6 6 C6 7.32 6 8.64 6 10 C4.02 10.33 2.04 10.66 0 11 C-0.33 10.34 -0.66 9.68 -1 9 C0.65 9 2.3 9 4 9 C4 8.34 4 7.68 4 7 C1.525 6.01 1.525 6.01 -1 5 C-0.67 3.35 -0.34 1.7 0 0 Z " fill="#4596C2" transform="translate(209,720)"/>
<path d="M0 0 C1.67542976 0.28604898 3.34385343 0.61781233 5 1 C5 3.31 5 5.62 5 8 C3.33388095 8.042721 1.66617115 8.04063832 0 8 C-1 7 -1 7 -1.125 4 C-1 1 -1 1 0 0 Z " fill="#65605B" transform="translate(369,82)"/>
<path d="M0 0 C1.67542976 0.28604898 3.34385343 0.61781233 5 1 C5 3.31 5 5.62 5 8 C3.33388095 8.042721 1.66617115 8.04063832 0 8 C-1 7 -1 7 -1.125 4 C-1 1 -1 1 0 0 Z " fill="#65605B" transform="translate(331,82)"/>
<path d="M0 0 C0.33 0 0.66 0 1 0 C1.02688151 1.64574566 1.04634123 3.29161413 1.0625 4.9375 C1.07410156 5.85402344 1.08570313 6.77054688 1.09765625 7.71484375 C1 10 1 10 0 11 C-2.67058851 11.14115161 -5.32432238 11.04247107 -8 11 C-8 7.7 -8 4.4 -8 1 C-7.67 1 -7.34 1 -7 1 C-7 3.64 -7 6.28 -7 9 C-5.68 9 -4.36 9 -3 9 C-3 6.36 -3 3.72 -3 1 C-2.67 1 -2.34 1 -2 1 C-2 3.64 -2 6.28 -2 9 C-1.34 9 -0.68 9 0 9 C0 6.03 0 3.06 0 0 Z " fill="#168CC3" transform="translate(1179,721)"/>
<path d="M0 0 C0.66 0 1.32 0 2 0 C2 3.63 2 7.26 2 11 C1.34 10.67 0.68 10.34 0 10 C0 8.35 0 6.7 0 5 C-0.99 5 -1.98 5 -3 5 C-2.34 6.98 -1.68 8.96 -1 11 C-2.32 10.67 -3.64 10.34 -5 10 C-5.125 7.625 -5.125 7.625 -5 5 C-4.34 4.34 -3.68 3.68 -3 3 C-2.01 3 -1.02 3 0 3 C0 2.01 0 1.02 0 0 Z " fill="#443121" transform="translate(352,79)"/>
<path d="M0 0 C0.33 0.66 0.66 1.32 1 2 C1.66 2.33 2.32 2.66 3 3 C2.34 3 1.68 3 1 3 C1 4.65 1 6.3 1 8 C1.66 8 2.32 8 3 8 C3 8.66 3 9.32 3 10 C1.0625 9.6875 1.0625 9.6875 -1 9 C-1.33 8.01 -1.66 7.02 -2 6 C-3.65 6.33 -5.3 6.66 -7 7 C-7 6.01 -7 5.02 -7 4 C-5.68 4 -4.36 4 -3 4 C-3 3.34 -3 2.68 -3 2 C-2.01 2 -1.02 2 0 2 C0 1.34 0 0.68 0 0 Z " fill="#B3A189" transform="translate(399,80)"/>
<path d="M0 0 C1.65 0.33 3.3 0.66 5 1 C5 3.31 5 5.62 5 8 C3.02 8 1.04 8 -1 8 C-0.835 7.236875 -0.67 6.47375 -0.5 5.6875 C0.09145396 2.96403764 0.09145396 2.96403764 0 0 Z " fill="#504A46" transform="translate(234,82)"/>
<path d="M0 0 C1.67542976 0.28604898 3.34385343 0.61781233 5 1 C5.33 1.99 5.66 2.98 6 4 C4.02 4 2.04 4 0 4 C0 4.66 0 5.32 0 6 C1.98 6 3.96 6 6 6 C5.67 6.66 5.34 7.32 5 8 C3.33388095 8.042721 1.66617115 8.04063832 0 8 C-1 7 -1 7 -1.125 4 C-1 1 -1 1 0 0 Z " fill="#48494F" transform="translate(266,82)"/>
<path d="M0 0 C2.625 0.375 2.625 0.375 5 1 C5 1.99 5 2.98 5 4 C3.35 4 1.7 4 0 4 C0 4.66 0 5.32 0 6 C1.65 6 3.3 6 5 6 C4.67 6.66 4.34 7.32 4 8 C2.35 7.67 0.7 7.34 -1 7 C-1.625 4.625 -1.625 4.625 -2 2 C-1.34 1.34 -0.68 0.68 0 0 Z " fill="#4A4045" transform="translate(361,82)"/>
<path d="M0 0 C0.66 0 1.32 0 2 0 C2.33 1.65 2.66 3.3 3 5 C4.32 4.34 5.64 3.68 7 3 C6.62875 3.5775 6.2575 4.155 5.875 4.75 C4.70833333 7 4.70833333 7 5.875 9.25 C6.24625 9.8275 6.6175 10.405 7 11 C6.01 10.67 5.02 10.34 4 10 C3.67 9.34 3.34 8.68 3 8 C2.67 8.99 2.34 9.98 2 11 C1.34 11 0.68 11 0 11 C0 7.37 0 3.74 0 0 Z " fill="#27223F" transform="translate(164,79)"/>
<path d="M0 0 C0.639375 0.2475 1.27875 0.495 1.9375 0.75 C2.2675 1.74 2.5975 2.73 2.9375 3.75 C1.2875 3.75 -0.3625 3.75 -2.0625 3.75 C-2.0625 4.41 -2.0625 5.07 -2.0625 5.75 C-0.4125 5.75 1.2375 5.75 2.9375 5.75 C2.6075 6.41 2.2775 7.07 1.9375 7.75 C-2.9375 6.875 -2.9375 6.875 -4.0625 5.75 C-4.10313832 4.08382885 -4.105221 2.41611905 -4.0625 0.75 C-2.0625 -0.25 -2.0625 -0.25 0 0 Z " fill="#3F4450" transform="translate(475.0625,82.25)"/>
<path d="M0 0 C0.639375 0.2475 1.27875 0.495 1.9375 0.75 C2.2675 1.74 2.5975 2.73 2.9375 3.75 C1.2875 3.75 -0.3625 3.75 -2.0625 3.75 C-2.0625 4.41 -2.0625 5.07 -2.0625 5.75 C-0.4125 5.75 1.2375 5.75 2.9375 5.75 C2.6075 6.41 2.2775 7.07 1.9375 7.75 C-2.9375 6.875 -2.9375 6.875 -4.0625 5.75 C-4.10313832 4.08382885 -4.105221 2.41611905 -4.0625 0.75 C-2.0625 -0.25 -2.0625 -0.25 0 0 Z " fill="#3F4450" transform="translate(439.0625,82.25)"/>
<path d="M0 0 C0.639375 0.2475 1.27875 0.495 1.9375 0.75 C2.2675 1.74 2.5975 2.73 2.9375 3.75 C1.2875 3.75 -0.3625 3.75 -2.0625 3.75 C-2.0625 4.41 -2.0625 5.07 -2.0625 5.75 C-0.4125 5.75 1.2375 5.75 2.9375 5.75 C2.6075 6.41 2.2775 7.07 1.9375 7.75 C-2.9375 6.875 -2.9375 6.875 -4.0625 5.75 C-4.10313832 4.08382885 -4.105221 2.41611905 -4.0625 0.75 C-2.0625 -0.25 -2.0625 -0.25 0 0 Z " fill="#3F4450" transform="translate(204.0625,82.25)"/>
<path d="M0 0 C2.31 0 4.62 0 7 0 C7 0.33 7 0.66 7 1 C5.35 1 3.7 1 2 1 C2 2.32 2 3.64 2 5 C3.32 5.33 4.64 5.66 6 6 C4.68 6 3.36 6 2 6 C2 7.32 2 8.64 2 10 C3.65 10 5.3 10 7 10 C7 10.33 7 10.66 7 11 C4.69 11 2.38 11 0 11 C0 7.37 0 3.74 0 0 Z " fill="#3D8FBA" transform="translate(238,720)"/>
<path d="M0 0 C2.31 0 4.62 0 7 0 C7 0.33 7 0.66 7 1 C5.35 1 3.7 1 2 1 C2 2.32 2 3.64 2 5 C3.32 5.33 4.64 5.66 6 6 C4.68 6 3.36 6 2 6 C2 7.32 2 8.64 2 10 C3.65 10 5.3 10 7 10 C7 10.33 7 10.66 7 11 C4.69 11 2.38 11 0 11 C0 7.37 0 3.74 0 0 Z " fill="#358CBB" transform="translate(162,720)"/>
<path d="M0 0 C0.33 0 0.66 0 1 0 C1 3.63 1 7.26 1 11 C1.66 11.33 2.32 11.66 3 12 C2.34 12 1.68 12 1 12 C1 13.32 1 14.64 1 16 C-0.32 16 -1.64 16 -3 16 C-3 14.68 -3 13.36 -3 12 C-3.66 11.67 -4.32 11.34 -5 11 C-3.68 10.67 -2.36 10.34 -1 10 C-0.67 6.7 -0.34 3.4 0 0 Z " fill="#F4DBCB" transform="translate(163,79)"/>
<path d="M0 0 C1.32 0 2.64 0 4 0 C4 2.64 4 5.28 4 8 C2.68 8 1.36 8 0 8 C0 5.36 0 2.72 0 0 Z " fill="#93BBD1" transform="translate(1172,722)"/>
<path d="M0 0 C2.64 0.99 5.28 1.98 8 3 C8 3.66 8 4.32 8 5 C7.34 5 6.68 5 6 5 C6 5.66 6 6.32 6 7 C4.68 7 3.36 7 2 7 C2 6.34 2 5.68 2 5 C1.34 5 0.68 5 0 5 C0 3.35 0 1.7 0 0 Z " fill="#F4BDBB" transform="translate(200,88)"/>
<path d="M0 0 C0.99 0.33 1.98 0.66 3 1 C3 2.98 3 4.96 3 7 C1.68 7 0.36 7 -1 7 C-1.625 4.625 -1.625 4.625 -2 2 C-1.34 1.34 -0.68 0.68 0 0 Z " fill="#C8E2EE" transform="translate(720,36)"/>
<path d="M0 0 C1.65 0.33 3.3 0.66 5 1 C4.34 1.66 3.68 2.32 3 3 C3.66 3.33 4.32 3.66 5 4 C5 4.99 5 5.98 5 7 C3.35 7.33 1.7 7.66 0 8 C-0.33 7.34 -0.66 6.68 -1 6 C-0.34 5.67 0.32 5.34 1 5 C0.34 4.67 -0.32 4.34 -1 4 C-0.67 2.68 -0.34 1.36 0 0 Z " fill="#4E494D" transform="translate(377,82)"/>
<path d="M0 0 C1.65 0.33 3.3 0.66 5 1 C4.34 1.66 3.68 2.32 3 3 C3.66 3.33 4.32 3.66 5 4 C5 4.99 5 5.98 5 7 C3.35 7.33 1.7 7.66 0 8 C-0.33 7.34 -0.66 6.68 -1 6 C-0.34 5.67 0.32 5.34 1 5 C0.34 4.67 -0.32 4.34 -1 4 C-0.67 2.68 -0.34 1.36 0 0 Z " fill="#4E494D" transform="translate(223,82)"/>
<path d="M0 0 C1.99954746 -0.04254356 4.00041636 -0.04080783 6 0 C7 1 7 1 7.0625 4.5625 C7.041875 5.696875 7.02125 6.83125 7 8 C6.67 8 6.34 8 6 8 C6 6.02 6 4.04 6 2 C4.68 2 3.36 2 2 2 C2 3.98 2 5.96 2 8 C1.34 8 0.68 8 0 8 C0 5.36 0 2.72 0 0 Z " fill="#433315" transform="translate(338,82)"/>
<path d="M0 0 C0.66 0 1.32 0 2 0 C2 0.99 2 1.98 2 3 C3.65 2.67 5.3 2.34 7 2 C7.66 3.65 8.32 5.3 9 7 C8.34 7 7.68 7 7 7 C6.67 6.34 6.34 5.68 6 5 C3.47266765 4.34444881 3.47266765 4.34444881 1 4 C0.67 4.99 0.34 5.98 0 7 C-0.66 7 -1.32 7 -2 7 C-1.34 4.69 -0.68 2.38 0 0 Z " fill="#3C94C0" transform="translate(218,724)"/>
<path d="M0 0 C-0.33 1.65 -0.66 3.3 -1 5 C-2.32 4.67 -3.64 4.34 -5 4 C-5.33 2.68 -5.66 1.36 -6 0 C-3.50907189 -1.24546405 -2.58919267 -0.7767578 0 0 Z " fill="#D2E8F1" transform="translate(1223,723)"/>
<path d="M0 0 C0.66 0 1.32 0 2 0 C2.33 1.32 2.66 2.64 3 4 C3.66 4 4.32 4 5 4 C5.33 2.68 5.66 1.36 6 0 C7 3 7 3 6.22265625 5.04296875 C5.83980469 5.75066406 5.45695312 6.45835938 5.0625 7.1875 C4.68222656 7.90292969 4.30195313 8.61835937 3.91015625 9.35546875 C3.45962891 10.16951172 3.45962891 10.16951172 3 11 C1.83808126 8.67616253 1.48553615 6.54906476 1 4 C0.67516582 2.66457061 0.3449145 1.33038449 0 0 Z " fill="#312535" transform="translate(383,82)"/>
<path d="M0 0 C0.99 0.33 1.98 0.66 3 1 C2.01 1.495 2.01 1.495 1 2 C2.32 2 3.64 2 5 2 C5 2.66 5 3.32 5 4 C3.35 4 1.7 4 0 4 C0 4.66 0 5.32 0 6 C1.65 6 3.3 6 5 6 C4.67 6.66 4.34 7.32 4 8 C2.35 7.67 0.7 7.34 -1 7 C-1.625 4.625 -1.625 4.625 -2 2 C-1.34 1.34 -0.68 0.68 0 0 Z " fill="#2B242F" transform="translate(320,82)"/>
<path d="M0 0 C0.99 0.33 1.98 0.66 3 1 C2.01 1.495 2.01 1.495 1 2 C2.32 2 3.64 2 5 2 C5 2.66 5 3.32 5 4 C3.35 4 1.7 4 0 4 C0 4.66 0 5.32 0 6 C1.65 6 3.3 6 5 6 C4.67 6.66 4.34 7.32 4 8 C2.35 7.67 0.7 7.34 -1 7 C-1.625 4.625 -1.625 4.625 -2 2 C-1.34 1.34 -0.68 0.68 0 0 Z " fill="#2B242F" transform="translate(258,82)"/>
<path d="M0 0 C0 1.98 0 3.96 0 6 C-2.97 5.505 -2.97 5.505 -6 5 C-6 3.68 -6 2.36 -6 1 C-3.92446352 0.4465236 -2.15634036 0 0 0 Z " fill="#BDE1F2" transform="translate(170,725)"/>
<path d="M0 0 C1.32 0 2.64 0 4 0 C4 0.66 4 1.32 4 2 C3.01 2.495 3.01 2.495 2 3 C2.66 3.33 3.32 3.66 4 4 C3.67 5.32 3.34 6.64 3 8 C1.68 8 0.36 8 -1 8 C-1 7.34 -1 6.68 -1 6 C-0.34 5.67 0.32 5.34 1 5 C0.34 4.67 -0.32 4.34 -1 4 C-0.67 2.68 -0.34 1.36 0 0 Z " fill="#3D3E49" transform="translate(429,82)"/>
<path d="M0 0 C1.32 0 2.64 0 4 0 C4 0.66 4 1.32 4 2 C3.01 2.495 3.01 2.495 2 3 C2.66 3.33 3.32 3.66 4 4 C3.67 5.32 3.34 6.64 3 8 C1.68 8 0.36 8 -1 8 C-1 7.34 -1 6.68 -1 6 C-0.34 5.67 0.32 5.34 1 5 C0.34 4.67 -0.32 4.34 -1 4 C-0.67 2.68 -0.34 1.36 0 0 Z " fill="#3D3E49" transform="translate(281,82)"/>
<path d="M0 0 C1.98 0 3.96 0 6 0 C6 0.99 6 1.98 6 3 C5.34 3 4.68 3 4 3 C4 3.66 4 4.32 4 5 C2.68 5 1.36 5 0 5 C0 3.35 0 1.7 0 0 Z " fill="#F6C8CB" transform="translate(184,90)"/>
<path d="M0 0 C2.89932357 2.39509338 3.50168276 4.31245243 4 8 C2.68 7.67 1.36 7.34 0 7 C-0.38133299 5.0085944 -0.71325582 3.00720923 -1 1 C-0.67 0.67 -0.34 0.34 0 0 Z " fill="#D4E8EE" transform="translate(225,720)"/>
<path d="M0 0 C0.33 0.66 0.66 1.32 1 2 C1.66 2.33 2.32 2.66 3 3 C2.34 3 1.68 3 1 3 C1 4.65 1 6.3 1 8 C1.66 8 2.32 8 3 8 C3 8.66 3 9.32 3 10 C1.68 9.67 0.36 9.34 -1 9 C-1.33 6.69 -1.66 4.38 -2 2 C-1.34 2 -0.68 2 0 2 C0 1.34 0 0.68 0 0 Z " fill="#4E371A" transform="translate(466,80)"/>
<path d="M0 0 C0.99 0.33 1.98 0.66 3 1 C2.67 4.3 2.34 7.6 2 11 C1.34 11 0.68 11 0 11 C0 7.37 0 3.74 0 0 Z " fill="#5192BF" transform="translate(171,720)"/>
<path d="M0 0 C0.66 0.33 1.32 0.66 2 1 C2 1.99 2 2.98 2 4 C1.34 4 0.68 4 0 4 C0 6.31 0 8.62 0 11 C-0.66 11 -1.32 11 -2 11 C-2.33 8.36 -2.66 5.72 -3 3 C-2.34 3 -1.68 3 -1 3 C-0.67 2.01 -0.34 1.02 0 0 Z " fill="#402C05" transform="translate(246,79)"/>
<path d="M0 0 C0.66 0 1.32 0 2 0 C2 3.63 2 7.26 2 11 C1.01 10.67 0.02 10.34 -1 10 C-0.67 6.7 -0.34 3.4 0 0 Z " fill="#22264C" transform="translate(181,79)"/>
<path d="M0 0 C0.94875 0.350625 1.8975 0.70125 2.875 1.0625 C1.885 1.5575 1.885 1.5575 0.875 2.0625 C0.875 2.7225 0.875 3.3825 0.875 4.0625 C-0.445 4.0625 -1.765 4.0625 -3.125 4.0625 C-3.125 3.4025 -3.125 2.7425 -3.125 2.0625 C-3.785 2.0625 -4.445 2.0625 -5.125 2.0625 C-5.125 1.4025 -5.125 0.7425 -5.125 0.0625 C-3.125 -0.9375 -3.125 -0.9375 0 0 Z " fill="#F7AFAD" transform="translate(139.125,90.9375)"/>
<path d="M0 0 C1.65 0 3.3 0 5 0 C4.34 0.66 3.68 1.32 3 2 C2.60235737 3.98821313 2.26224651 5.98944339 2 8 C1.34 8 0.68 8 0 8 C0 5.36 0 2.72 0 0 Z " fill="#2E2A4A" transform="translate(250,82)"/>
<path d="M0 0 C0.66 0 1.32 0 2 0 C1.67 1.65 1.34 3.3 1 5 C-1.97 4.505 -1.97 4.505 -5 4 C-5 3.34 -5 2.68 -5 2 C-3.35 2 -1.7 2 0 2 C0 1.34 0 0.68 0 0 Z " fill="#CAD0C5" transform="translate(263,84)"/>
<path d="M0 0 C1.32 0.33 2.64 0.66 4 1 C3.67 2.32 3.34 3.64 3 5 C2.01 5 1.02 5 0 5 C0 3.35 0 1.7 0 0 Z " fill="#C2E5F0" transform="translate(298,721)"/>
<path d="M0 0 C1.32 0.33 2.64 0.66 4 1 C3.67 2.32 3.34 3.64 3 5 C2.01 5 1.02 5 0 5 C0 3.35 0 1.7 0 0 Z " fill="#C2E5F0" transform="translate(154,721)"/>
<path d="M0 0 C0.33 0.99 0.66 1.98 1 3 C3.00016466 4.20882096 3.00016466 4.20882096 5 5 C3.02 5.66 1.04 6.32 -1 7 C-1.04254356 5.00045254 -1.04080783 2.99958364 -1 1 C-0.67 0.67 -0.34 0.34 0 0 Z " fill="#BDDDEE" transform="translate(375,83)"/>
<path d="M0 0 C1.32 0 2.64 0 4 0 C3.67 1.65 3.34 3.3 3 5 C2.01 4.67 1.02 4.34 0 4 C0 2.68 0 1.36 0 0 Z " fill="#D7E8E3" transform="translate(457,84)"/>
<path d="M0 0 C0.33 0 0.66 0 1 0 C1 2.64 1 5.28 1 8 C-0.32 6.68 -1.64 5.36 -3 4 C-2.02727325 2.64664105 -1.0260734 1.31337396 0 0 Z " fill="#D1EDFC" transform="translate(171,82)"/>
<path d="M0 0 C0.33 0.66 0.66 1.32 1 2 C1.66 2.33 2.32 2.66 3 3 C2.34 3 1.68 3 1 3 C1 4.65 1 6.3 1 8 C1.66 8 2.32 8 3 8 C3 8.66 3 9.32 3 10 C2.01 10 1.02 10 0 10 C-1.125 2.25 -1.125 2.25 0 0 Z " fill="#191114" transform="translate(399,80)"/>
<path d="M0 0 C0.33 0.66 0.66 1.32 1 2 C1.66 2.33 2.32 2.66 3 3 C2.34 3 1.68 3 1 3 C1 4.65 1 6.3 1 8 C1.66 8 2.32 8 3 8 C3 8.66 3 9.32 3 10 C2.01 10 1.02 10 0 10 C-1.125 2.25 -1.125 2.25 0 0 Z " fill="#191114" transform="translate(195,80)"/>
<path d="M0 0 C0.66 0 1.32 0 2 0 C2 2.64 2 5.28 2 8 C1.01 7.67 0.02 7.34 -1 7 C-0.67 4.69 -0.34 2.38 0 0 Z " fill="#282B4E" transform="translate(424,82)"/>
<path d="M0 0 C0.66 0 1.32 0 2 0 C2 2.64 2 5.28 2 8 C1.01 7.67 0.02 7.34 -1 7 C-0.67 4.69 -0.34 2.38 0 0 Z " fill="#282B4E" transform="translate(148,82)"/>
</svg>
