<?xml version="1.0" encoding="UTF-8"?>
<svg version="1.1" xmlns="http://www.w3.org/2000/svg" width="1366" height="768">
<path d="M0 0 C450.78 0 901.56 0 1366 0 C1366 253.44 1366 506.88 1366 768 C915.22 768 464.44 768 0 768 C0 514.56 0 261.12 0 0 Z " fill="#464646" transform="translate(0,0)"/>
<path d="M0 0 C450.78 0 901.56 0 1366 0 C1366 253.44 1366 506.88 1366 768 C915.22 768 464.44 768 0 768 C0 514.56 0 261.12 0 0 Z M126.05606964 69.25003352 C124.73071347 71.44622285 124.62462157 72.81305534 124.62395251 75.37551111 C124.61644195 76.27711384 124.6089314 77.17871657 124.60119325 78.10764059 C124.60821675 79.10133206 124.61524025 80.09502353 124.62247658 81.11882687 C124.61811626 82.17632357 124.61375593 83.23382027 124.60926348 84.32336232 C124.59822714 87.90278988 124.60876831 91.48183865 124.61904907 95.06126404 C124.61559582 97.63900468 124.61083351 100.21674385 124.60486734 102.79447991 C124.59400654 108.417486 124.59437667 114.04040578 124.60200882 119.66341591 C124.61332721 128.02487844 124.60757022 136.38626776 124.5983839 144.74772975 C124.58256111 159.67903948 124.58396605 174.61031078 124.59262064 189.5416242 C124.60015772 202.6086309 124.60214189 215.67562349 124.5985527 228.74263191 C124.59832355 229.60831193 124.59809439 230.47399195 124.59785829 231.3659047 C124.59692433 234.87970787 124.59596913 238.39351103 124.594979 241.90731419 C124.58579505 274.8923473 124.59413325 307.87735588 124.61026969 340.8623852 C124.62450602 370.18634611 124.62323448 399.51026795 124.60888672 428.83422852 C124.59283248 461.75617846 124.58644755 494.67810673 124.59572351 527.60006005 C124.59668571 531.1078908 124.59762422 534.61572156 124.5985527 538.12355232 C124.59878994 538.98731218 124.59902717 539.85107204 124.59927159 540.74100644 C124.60268813 553.80111815 124.5986855 566.86121423 124.59111404 579.92132378 C124.58255005 594.76778376 124.58465118 609.61419919 124.60095628 624.4606536 C124.60978663 632.77600196 124.61030934 641.09125392 124.59901775 649.40659985 C124.59152881 655.60357322 124.59960966 661.80043197 124.61394148 667.99739123 C124.61731066 670.51350528 124.61554775 673.02963213 124.60831411 675.54573803 C124.5992753 678.94912421 124.60846295 682.35197447 124.62247658 685.75533199 C124.61194133 687.24235745 124.61194133 687.24235745 124.60119325 688.75942382 C124.6087038 689.66353007 124.61621436 690.56763632 124.62395251 691.49913973 C124.62415579 692.27774771 124.62435906 693.05635569 124.6245685 693.85855785 C125.13529942 696.771741 125.78700705 698.00822577 128 700 C130.63253938 700.40021983 132.85164722 700.53620439 135.48649597 700.50139666 C136.64790981 700.50981056 136.64790981 700.50981056 137.83278656 700.51839444 C140.45418558 700.53242809 143.07465826 700.51771113 145.69604492 700.50336456 C147.5916631 700.5075333 149.48727811 700.51345544 151.38288593 700.52098203 C156.63226066 700.53666412 161.88134404 700.52718358 167.13071442 700.51387022 C172.82629645 700.50377785 178.52183171 700.51674131 184.21740723 700.52684355 C194.21294856 700.5413356 204.20840359 700.54082439 214.20394897 700.53065491 C224.93266767 700.51976896 235.6613249 700.51731847 246.39004517 700.52560425 C247.06686413 700.52612094 247.7436831 700.52663763 248.44101173 700.52716998 C251.19744247 700.52930298 253.95387314 700.5314978 256.71030376 700.53377108 C282.40453508 700.55494674 308.09873248 700.55635516 333.79296875 700.54518127 C334.93582894 700.5446845 334.93582894 700.5446845 336.10177721 700.54417769 C336.86489607 700.54384597 337.62801493 700.54351426 338.4142586 700.54317249 C361.63945775 700.53308992 384.86464287 700.53046945 408.08984375 700.53526306 C409.64358449 700.53557298 411.19732523 700.5358816 412.75106597 700.53618894 C418.99450982 700.53743075 425.23795367 700.53870541 431.48139751 700.540028 C448.93567764 700.54369649 466.38995781 700.54597855 483.84423828 700.54717255 C484.63914237 700.54722713 485.43404646 700.54728171 486.25303856 700.54733795 C511.59170883 700.54897567 536.93037422 700.54446434 562.26904297 700.53577423 C563.0911849 700.53549323 563.91332683 700.53521224 564.76038215 700.53492273 C578.11242147 700.53034264 591.46446068 700.52546492 604.81649989 700.52056203 C657.77611763 700.50113587 710.73569493 700.50203751 763.6953125 700.52148438 C777.0405273 700.52636892 790.38574211 700.53121303 803.73095703 700.53577423 C804.96343633 700.53619692 804.96343633 700.53619692 806.2208142 700.53662815 C831.53246402 700.54524961 856.84411047 700.5489106 882.15576172 700.54717255 C882.95008611 700.54711821 883.7444105 700.54706387 884.56280532 700.54700789 C901.99751685 700.54575811 919.43222803 700.54322383 936.8669392 700.53953053 C943.1048861 700.5382139 949.34283302 700.53696159 955.58077994 700.53572769 C957.13269612 700.53541814 958.68461231 700.53510322 960.23652849 700.53478291 C983.45709917 700.53000353 1006.67765407 700.534084 1029.89822279 700.54417769 C1030.66012958 700.54450888 1031.42203637 700.54484006 1032.20703125 700.54518127 C1033.34779404 700.54567737 1033.34779404 700.54567737 1034.51160254 700.54618348 C1060.12991846 700.55720252 1085.74819363 700.55318618 1111.36650372 700.5320583 C1114.11432071 700.52984876 1116.86213775 700.52770196 1119.60995483 700.52560425 C1120.2843407 700.52508342 1120.95872657 700.52456259 1121.65354837 700.52402598 C1133.00769821 700.51563779 1144.36178152 700.52309127 1155.71592891 700.534643 C1165.5737084 700.54356961 1175.43141011 700.53810864 1185.28917801 700.52062392 C1190.91702841 700.51105066 1196.54468637 700.50797461 1202.17253113 700.52224785 C1207.2826749 700.53507683 1212.39245383 700.52981513 1217.50257051 700.50952521 C1219.34900656 700.50546463 1221.19547216 700.50824374 1223.04188502 700.51834896 C1225.53287699 700.53102468 1228.02257398 700.51944228 1230.51350403 700.50139666 C1231.23739413 700.51095962 1231.96128424 700.52052259 1232.7071104 700.53037535 C1235.84563055 700.48361695 1237.56731748 700.38944443 1239.94433111 698.24996648 C1241.10155166 695.78356108 1241.37570961 694.21331523 1241.37719816 691.49913973 C1241.38496494 690.59503348 1241.39273172 689.69092723 1241.40073386 688.75942382 C1241.39399621 687.76807352 1241.38725856 686.77672321 1241.38031673 685.75533199 C1241.38730661 684.16690678 1241.38730661 684.16690678 1241.3944377 682.54639217 C1241.40646862 678.96805545 1241.39696098 675.39009277 1241.38768005 671.81175232 C1241.39184941 669.23243558 1241.39732472 666.65312068 1241.40399987 664.07380921 C1241.41639649 658.45048815 1241.41756635 652.82725049 1241.41144943 647.20392036 C1241.40237778 638.84205184 1241.41037467 630.48026078 1241.42174067 622.11839822 C1241.44143516 607.18645145 1241.44374974 592.25453934 1241.43854547 577.32258268 C1241.43399349 564.25623449 1241.43458099 551.18990006 1241.44038582 538.12355232 C1241.44114267 536.37285268 1241.44189865 534.62215304 1241.44265376 532.87145339 C1241.44379892 530.23352853 1241.44494879 527.59560367 1241.44611301 524.95767881 C1241.45682227 500.42420759 1241.46153878 475.89074096 1241.45364285 451.35726833 C1241.45334567 450.43192039 1241.4530485 449.50657245 1241.45274232 448.55318366 C1241.45029322 441.03802396 1241.44768172 433.52286433 1241.44505819 426.00770469 C1241.43495266 396.68358152 1241.44331523 367.35951558 1241.46655273 338.03540039 C1241.49260005 305.11198604 1241.5054802 272.18860616 1241.49836498 239.26518112 C1241.49764889 235.75766473 1241.4969745 232.25014832 1241.49632454 228.74263191 C1241.49606983 227.44711074 1241.49606983 227.44711074 1241.49580997 226.12541743 C1241.493503 213.06439223 1241.50150278 200.00339894 1241.51461601 186.94238091 C1241.52949388 172.09700565 1241.53041526 157.25170542 1241.5125451 142.40633183 C1241.50294838 134.09073895 1241.50448531 125.77532079 1241.52177979 117.4597394 C1241.53343553 111.26439539 1241.5243697 105.06924945 1241.50695742 98.87392259 C1241.50316053 96.35718256 1241.50622384 93.84042164 1241.51656907 91.3237 C1241.52956668 87.9217451 1241.51831004 84.52073917 1241.50057125 81.11882687 C1241.51022176 80.1251354 1241.51987227 79.13144393 1241.52981523 78.10764059 C1241.51517845 76.7552365 1241.51517845 76.7552365 1241.50024599 75.37551111 C1241.50019869 74.59697089 1241.5001514 73.81843067 1241.50010267 73.01629832 C1241.13610838 70.87993875 1241.13610838 70.87993875 1239.44400228 69.25003352 C1236.10706257 67.54328941 1233.05731199 67.58751435 1229.39571756 67.62395251 C1228.62085801 67.61974556 1227.84599846 67.61553861 1227.04765831 67.61120417 C1224.43043664 67.60069865 1221.81373913 67.61170755 1219.19652462 67.62247658 C1217.30144834 67.61934932 1215.40637385 67.61490719 1213.5113034 67.60926348 C1208.26813287 67.59751214 1203.02512664 67.60460717 1197.7819586 67.61459734 C1192.09132489 67.62217143 1186.40071741 67.61244207 1180.71008736 67.60486734 C1170.72478312 67.5940019 1160.73952748 67.59437954 1150.75422096 67.60200882 C1140.03721893 67.61017504 1129.32025152 67.61200968 1118.6032486 67.60579681 C1117.92701088 67.6054093 1117.25077316 67.60502178 1116.55404339 67.60462252 C1113.79995354 67.60302275 1111.04586374 67.60137664 1108.29177396 67.59967169 C1082.6233429 67.58379253 1056.95493095 67.58273248 1031.28649712 67.59111404 C1030.14494084 67.59148662 1030.14494084 67.59148662 1028.98032281 67.59186673 C1027.83694975 67.59223991 1027.83694975 67.59223991 1026.67047824 67.59262064 C1003.46947019 67.6001833 980.26847004 67.60214756 957.06746101 67.5985527 C955.51519006 67.59832027 953.9629191 67.5980888 952.41064815 67.59785829 C946.17308256 67.59692693 939.93551698 67.59597094 933.6979514 67.594979 C916.26032747 67.59222768 898.82270351 67.5905161 881.38507938 67.58962059 C880.59094507 67.58957965 879.79681075 67.58953872 878.97861175 67.58949654 C853.66573232 67.58826831 828.35285564 67.59165145 803.03997707 67.59816933 C802.21870903 67.59838007 801.39744099 67.59859082 800.55128604 67.59880795 C787.213524 67.602243 773.87576202 67.6059013 760.53800004 67.60957848 C707.63282899 67.62414874 654.72768072 67.62347117 601.82250977 67.60888672 C588.49036632 67.6052233 575.15822288 67.60159022 561.82607937 67.59816933 C560.59480417 67.59785231 560.59480417 67.59785231 559.33865472 67.59752889 C534.05181194 67.59106281 508.76497106 67.58831704 483.47812748 67.58962059 C482.68458614 67.58966134 481.89104481 67.5897021 481.07345676 67.58974408 C463.6559816 67.59068141 446.23850663 67.59258212 428.82103167 67.5953521 C422.58928101 67.59633957 416.35753035 67.59727881 410.12577968 67.59820423 C408.57540946 67.5984364 407.02503924 67.59867259 405.47466902 67.59891282 C382.2776536 67.60249729 359.08064707 67.59943713 335.88363276 67.59186673 C335.12251245 67.59161834 334.36139213 67.59136996 333.57720757 67.59111404 C332.81748447 67.590866 332.05776138 67.59061795 331.27501638 67.59036239 C305.68338647 67.58209818 280.0917795 67.58511026 254.50015288 67.60095628 C251.75521872 67.60261343 249.01028455 67.60422353 246.26535034 67.60579681 C245.59167255 67.60618743 244.91799475 67.60657805 244.22390248 67.60698051 C232.88171197 67.61327164 221.53955893 67.60768156 210.1973698 67.59901775 C200.35000222 67.59232281 190.50267843 67.59641853 180.65531737 67.60953206 C175.03345283 67.61671195 169.41169664 67.61901903 163.78983527 67.60831411 C158.6851662 67.59869247 153.58070258 67.60263882 148.47604876 67.61785609 C146.63157528 67.62090152 144.78708516 67.61881726 142.94262473 67.61123828 C140.45447285 67.60173219 137.96705028 67.61041926 135.47893327 67.62395251 C134.3942642 67.61319417 134.3942642 67.61319417 133.28768262 67.60221849 C130.46755642 67.63376283 128.46217205 67.70280285 126.05606964 69.25003352 Z " fill="#2F3536" transform="translate(0,0)"/>
<path d="M0 0 C0.80490639 -0.00467997 1.60981278 -0.00935994 2.43911028 -0.01418173 C5.14540449 -0.02618032 7.85119685 -0.01665566 10.55749512 -0.00723267 C12.49393511 -0.01129621 14.43037278 -0.01663686 16.36680603 -0.02316284 C21.63324834 -0.03686807 26.89951483 -0.03152456 32.16596031 -0.02202559 C37.66988992 -0.01444558 43.17380419 -0.02146997 48.67773438 -0.02618408 C57.92169913 -0.03164648 67.16559204 -0.02443732 76.4095459 -0.01016235 C87.10631648 0.00616506 97.80291553 0.0008769 108.49968195 -0.01564157 C117.67340138 -0.02924264 126.84706909 -0.03118285 136.02079535 -0.02332556 C141.50437578 -0.01864146 146.98787551 -0.01804442 152.47145081 -0.02793503 C157.62605405 -0.03658236 162.78043552 -0.03062372 167.93501472 -0.01325226 C169.83012079 -0.00927545 171.72524542 -0.01044176 173.62034416 -0.01704025 C176.20084527 -0.02519883 178.78062899 -0.01500355 181.36108398 0 C182.11681592 -0.00669217 182.87254785 -0.01338433 183.65118074 -0.02027929 C186.58219304 0.01293568 188.66661325 0.03786454 191.14499664 1.69237328 C192.90328328 4.55946502 192.60666042 7.70855329 192.57897949 10.97079468 C192.58328476 12.08219566 192.58328476 12.08219566 192.587677 13.21604919 C192.58971699 14.78201054 192.58419157 16.34799741 192.57165527 17.91390991 C192.55562207 20.30650105 192.57149294 22.69739723 192.59069824 25.0899353 C192.58871535 26.61272548 192.58487072 28.13551461 192.57897949 29.65829468 C192.58505219 30.37194687 192.59112488 31.08559906 192.59738159 31.82087708 C192.55719792 34.67098673 192.37191171 36.97647195 191.14499664 39.56967926 C188.19563524 42.28905726 185.17147695 41.93387461 181.36108398 41.8888855 C180.55617759 41.89512546 179.7512712 41.90136542 178.92197371 41.90779448 C176.21555048 41.92379335 173.51001932 41.91109365 170.80358887 41.89852905 C168.86714653 41.90394712 166.93070832 41.911068 164.99427795 41.91976929 C159.72779089 41.93804308 154.46161638 41.93091836 149.19512367 41.91825294 C143.69119023 41.90814627 138.18728407 41.91751212 132.68334961 41.92379761 C123.43936341 41.93108082 114.19550491 41.92146861 104.95153809 41.9024353 C94.25472196 41.88066532 83.55821077 41.88771621 72.86140203 41.90974092 C63.68767096 41.92787571 54.51403184 41.93046265 45.34028864 41.91998625 C39.85668595 41.91374075 34.37322673 41.91294468 28.88963318 41.9261322 C23.73496622 41.93766212 18.5806935 41.92971732 13.42606926 41.90655518 C11.53096612 41.90125277 9.63582996 41.90280788 7.74073982 41.91160583 C5.16004082 41.92248477 2.58061701 41.90889149 0 41.8888855 C-1.1335979 41.90226983 -1.1335979 41.90226983 -2.29009676 41.91592455 C-5.54048993 41.86681219 -7.34308397 41.82017857 -9.78391266 39.56967926 C-11.31828394 36.32663259 -11.24780646 33.17337724 -11.21789551 29.65829468 C-11.22076569 28.91640396 -11.22363586 28.17451324 -11.22659302 27.41014099 C-11.22862981 25.84595982 -11.22312684 24.28175296 -11.21057129 22.71762085 C-11.19448801 20.32291865 -11.21044329 17.92989821 -11.22961426 15.5352478 C-11.2276322 14.0137597 -11.2237893 12.49227265 -11.21789551 10.97079468 C-11.2239682 10.25511826 -11.23004089 9.53944183 -11.23629761 8.80207825 C-11.16754458 3.94854675 -11.16754458 3.94854675 -9.78391266 1.69237328 C-6.72666445 -0.34857158 -3.55304521 -0.03146296 0 0 Z " fill="#2F3537" transform="translate(135.8194580078125,705.6190490722656)"/>
<path d="M0 0 C0.77345724 -0.00420695 1.54691447 -0.0084139 2.34380981 -0.01274834 C4.96228308 -0.02327297 7.58023465 -0.01223535 10.19870096 -0.00147593 C12.09230913 -0.00460248 13.9859155 -0.00904409 15.87951782 -0.01468903 C21.12328091 -0.02645048 26.36687994 -0.01934012 31.61064057 -0.00935517 C37.30019321 -0.00178588 42.98971951 -0.01150851 48.67926848 -0.01908517 C58.6642551 -0.0299542 68.64919313 -0.02957078 78.63418204 -0.02194369 C89.35160496 -0.01377922 100.06899326 -0.01194138 110.78641707 -0.01815569 C111.80057989 -0.01873697 111.80057989 -0.01873697 112.83523084 -0.01932999 C115.58877059 -0.02092974 118.34231031 -0.02257586 121.09585 -0.02428082 C146.7633302 -0.04016267 172.4307913 -0.04121881 198.09827429 -0.03283846 C199.23995476 -0.03246588 199.23995476 -0.03246588 200.40469949 -0.03208578 C201.54819695 -0.03171259 201.54819695 -0.03171259 202.71479536 -0.03133187 C225.91646253 -0.02376981 249.1181218 -0.02180466 272.31978995 -0.0253998 C273.87198374 -0.02563224 275.42417754 -0.02586371 276.97637134 -0.02609421 C283.21361701 -0.02702557 289.45086267 -0.02798157 295.68810833 -0.02897351 C313.12513688 -0.03172488 330.56216546 -0.03343643 347.9991942 -0.03433192 C348.79331488 -0.03437286 349.58743555 -0.03441379 350.40562048 -0.03445597 C375.71946356 -0.03568427 401.03330388 -0.03230074 426.34714609 -0.02578318 C427.16848439 -0.02557243 427.98982268 -0.02536169 428.83605001 -0.02514455 C442.17500877 -0.02170949 455.51396748 -0.0180512 468.85292618 -0.01437403 C521.75802036 0.00019487 574.66309178 -0.00048002 627.56818587 -0.01506579 C640.89913849 -0.01872921 654.23009111 -0.0223623 667.5610438 -0.02578318 C668.38182348 -0.02599453 669.20260317 -0.02620587 670.04825497 -0.02642362 C695.33421905 -0.03289002 720.62018123 -0.0356354 745.90614611 -0.03433192 C747.09647849 -0.03427079 747.09647849 -0.03427079 748.31085799 -0.03420842 C765.72895627 -0.03327108 783.14705435 -0.03137034 800.56515242 -0.02860041 C806.79721998 -0.02761294 813.02928755 -0.0266737 819.26135512 -0.02574828 C820.81180407 -0.02551611 822.36225303 -0.02527992 823.91270198 -0.02503969 C847.1089345 -0.02145552 870.30515813 -0.02451481 893.50138954 -0.03208578 C894.64294582 -0.03245836 894.64294582 -0.03245836 895.80756384 -0.03283846 C896.56720425 -0.03308651 897.32684466 -0.03333456 898.10950448 -0.03359012 C923.70231148 -0.0418556 949.29509555 -0.03883971 974.88789927 -0.02299623 C977.63337126 -0.02133909 980.37884328 -0.01972899 983.12431532 -0.01815569 C983.79812332 -0.01776507 984.47193132 -0.01737445 985.16615775 -0.016972 C996.50746351 -0.01068252 1007.84873179 -0.01626942 1019.19003617 -0.02493476 C1029.03857201 -0.03163201 1038.88706406 -0.02752972 1048.73559338 -0.01442045 C1054.35732259 -0.00724379 1059.97894347 -0.00492694 1065.6006695 -0.0156384 C1070.70639871 -0.02526809 1075.81192266 -0.02130174 1080.91763666 -0.00609642 C1082.76137483 -0.00305388 1084.60512968 -0.00512787 1086.44885476 -0.01271423 C1088.9384181 -0.02223784 1091.42725543 -0.01351642 1093.91678429 0 C1094.63750626 -0.00717223 1095.35822823 -0.01434445 1096.10079027 -0.02173402 C1099.10795266 0.01177746 1101.26972025 0.24749134 1103.965069 1.62608102 C1105.91159026 3.8152532 1106.02113622 4.84631993 1106.02131271 7.7515586 C1106.03594949 9.1039627 1106.03594949 9.1039627 1106.05088195 10.48368809 C1106.04123144 11.47737956 1106.03158093 12.47107103 1106.02163798 13.49487436 C1106.02715214 14.55237106 1106.03266631 15.60986776 1106.03834757 16.69940981 C1106.05205249 20.27894144 1106.03698614 23.85779176 1106.02227217 27.43731153 C1106.02616108 30.01505328 1106.03179822 32.59279289 1106.03904307 35.1705274 C1106.05198107 40.79355836 1106.04995798 46.41643197 1106.03826338 52.0394634 C1106.0209209 60.4009407 1106.02636513 68.76229361 1106.03643029 77.12377724 C1106.05364953 92.05510031 1106.04806411 106.98635011 1106.0330731 121.91767169 C1106.0200379 134.98468064 1106.01482215 148.05166413 1106.01739126 161.1186794 C1106.01755168 161.98435942 1106.0177121 162.85003944 1106.01787737 163.74195219 C1106.01854092 167.25575536 1106.01924333 170.76955853 1106.02000271 174.28336168 C1106.0270321 207.2684041 1106.0115178 240.25340169 1105.98537925 273.2384327 C1105.962265 302.56239455 1105.95687469 331.8863071 1105.96711165 361.21027601 C1105.96971352 368.71795593 1105.9722985 376.22563584 1105.97470957 383.73331583 C1105.97500702 384.65751471 1105.97530447 385.5817136 1105.97561093 386.53391851 C1105.98322113 411.01465014 1105.97681781 435.49537771 1105.96601355 459.97610754 C1105.96486571 462.60943688 1105.96372253 465.24276622 1105.96258673 467.87609556 C1105.96183148 469.62308169 1105.96106583 471.37006781 1105.96028972 473.11705393 C1105.9546244 486.17716394 1105.95596607 499.23726121 1105.96051794 512.29737127 C1105.96561877 527.14383446 1105.95980394 541.99024984 1105.93962365 556.83670109 C1105.92861253 565.15204684 1105.92586695 573.46729867 1105.93491218 581.78264734 C1105.94072289 587.97962419 1105.93094999 594.17648196 1105.91491253 600.37343872 C1105.91084534 602.88955131 1105.91190552 605.40567811 1105.91843139 607.92178553 C1105.92650738 611.32517557 1105.91635995 614.72802461 1105.90138346 618.13137949 C1105.90812111 619.12272979 1105.91485876 620.11408009 1105.92180058 621.13547131 C1105.9140338 622.03957756 1105.90626702 622.94368381 1105.89826488 623.87518722 C1105.89783787 624.6537952 1105.89741085 625.43240318 1105.89697089 626.23460534 C1105.38564365 629.14752252 1104.73391972 630.38432556 1102.52106673 632.37604749 C1099.88852735 632.77626732 1097.66941951 632.91225188 1095.03457075 632.87744415 C1094.26029486 632.88305342 1093.48601897 632.88866268 1092.68828017 632.89444193 C1090.06688114 632.90847558 1087.44640847 632.89375863 1084.8250218 632.87941206 C1082.92940362 632.88358079 1081.03378862 632.88950293 1079.13818079 632.89702952 C1073.88880606 632.91271161 1068.63972269 632.90323107 1063.39035231 632.88991771 C1057.69477028 632.87982534 1051.99923501 632.8927888 1046.3036595 632.90289104 C1036.30811817 632.9173831 1026.31266314 632.91687188 1016.31711775 632.9067024 C1005.58839905 632.89581645 994.85974183 632.89336596 984.13102156 632.90165174 C983.11579311 632.90242678 983.11579311 632.90242678 982.08005499 632.90321747 C979.32362426 632.90535047 976.56719359 632.90754529 973.81076297 632.90981857 C948.11653165 632.93099423 922.42233424 632.93240266 896.72809798 632.92122877 C895.96619118 632.92089758 895.20428439 632.9205664 894.41928951 632.92022519 C893.27461123 632.91972761 893.27461123 632.91972761 892.10680813 632.91921998 C868.88160898 632.90913741 845.65642385 632.90651695 822.43122298 632.91131055 C820.87748224 632.91162047 819.3237415 632.9119291 817.77000076 632.91223643 C811.5265569 632.91347824 805.28311305 632.9147529 799.03966922 632.91607549 C781.58538909 632.91974398 764.13110891 632.92202605 746.67682844 632.92322004 C745.48447231 632.92330191 745.48447231 632.92330191 744.26802817 632.92338544 C718.92935789 632.92502316 693.5906925 632.92051183 668.25202376 632.91182172 C667.01881086 632.91140023 667.01881086 632.91140023 665.76068458 632.91097022 C652.40864526 632.90639013 639.05660604 632.90151242 625.70456684 632.89660953 C572.74494909 632.87718337 519.78537179 632.878085 466.82575423 632.89753187 C453.48053942 632.90241641 440.13532461 632.90726052 426.79010969 632.91182172 C425.96845683 632.91210352 425.14680396 632.91238531 424.30025253 632.91267564 C398.98860271 632.9212971 373.67695625 632.9249581 348.36530501 632.92322004 C347.57098062 632.9231657 346.77665623 632.92311136 345.9582614 632.92305538 C328.52354987 632.9218056 311.0888387 632.91927132 293.65412752 632.91557803 C287.41618062 632.91426139 281.1782337 632.91300908 274.94028679 632.91177518 C273.3883706 632.91146563 271.83645442 632.91115071 270.28453824 632.9108304 C247.06396755 632.90605102 223.84341266 632.91013149 200.62284394 632.92022519 C199.47998375 632.92072196 199.47998375 632.92072196 198.31403548 632.92122877 C197.55352695 632.9215595 196.79301843 632.92189023 196.00946419 632.92223098 C170.39114827 632.93325001 144.77287309 632.92923367 119.15456301 632.90810579 C116.40674601 632.90589625 113.65892898 632.90374945 110.91111189 632.90165174 C109.89953309 632.9008705 109.89953309 632.9008705 108.86751836 632.90007348 C97.51336852 632.89168528 86.1592852 632.89913876 74.80513781 632.91069049 C64.94735832 632.9196171 55.08965661 632.91415613 45.23188871 632.89667141 C39.60403832 632.88709815 33.97638036 632.8840221 28.3485356 632.89829534 C23.23839182 632.91112432 18.12861289 632.90586262 13.01849622 632.8855727 C11.17206017 632.88151212 9.32559457 632.88429123 7.47918171 632.89439645 C4.98818974 632.90707217 2.49849275 632.89548978 0.0075627 632.87744415 C-1.07827246 632.8917886 -1.07827246 632.8917886 -2.18604368 632.90642284 C-5.32458379 632.85966414 -7.04627259 632.76545787 -9.4233363 630.62601397 C-10.58061725 628.15931181 -10.85427208 626.58964442 -10.85498077 623.87518722 C-10.8662466 622.51902785 -10.8662466 622.51902785 -10.87774003 621.13547131 C-10.87071653 620.14412101 -10.86369303 619.15277071 -10.8564567 618.13137949 C-10.86299718 616.54295427 -10.86299718 616.54295427 -10.8696698 614.92243966 C-10.88069146 611.34409894 -10.87017169 607.76613827 -10.8598842 604.18779981 C-10.86333802 601.60848342 -10.86810072 599.0291685 -10.87406594 596.4498567 C-10.88492035 590.82653298 -10.8845605 585.2032956 -10.87692446 579.57996786 C-10.86560041 571.21810258 -10.87136597 562.85631046 -10.88054938 554.49444571 C-10.89636725 539.56249561 -10.89496927 524.63058395 -10.88631264 509.69863017 C-10.87877448 496.63228259 -10.87679189 483.56594912 -10.88038057 470.49959981 C-10.88060973 469.63384341 -10.88083888 468.76808701 -10.88107498 467.87609556 C-10.88200895 464.36197247 -10.88296415 460.84784938 -10.88395427 457.3337263 C-10.8931369 424.35039216 -10.88480182 391.36708255 -10.86866358 358.38375219 C-10.85442488 329.05963761 -10.85570105 299.73556212 -10.87004656 270.41144788 C-10.8860989 237.48803536 -10.89248701 204.56464451 -10.88320976 171.64122862 C-10.88224757 168.13371222 -10.88130905 164.62619581 -10.88038057 161.1186794 C-10.88014334 160.25499862 -10.87990611 159.39131784 -10.87966169 158.50146492 C-10.87624461 145.44044681 -10.88024871 132.37944434 -10.88781923 119.3184284 C-10.89638094 104.47306199 -10.89428686 89.62774015 -10.877977 74.78237932 C-10.86914329 66.46681557 -10.86862875 58.15134822 -10.87991552 49.83578689 C-10.88739945 43.64047166 -10.87933083 37.44527119 -10.8649918 31.24997009 C-10.86162027 28.73323078 -10.86339066 26.21647868 -10.87061916 23.6997475 C-10.87964581 20.29793425 -10.8704831 16.89665874 -10.8564567 13.49487436 C-10.8634802 12.50118289 -10.87050369 11.50749142 -10.87774003 10.48368809 C-10.87022947 9.58208536 -10.86271891 8.68048263 -10.85498077 7.7515586 C-10.85477749 6.97301838 -10.85457421 6.19447816 -10.85436478 5.39234581 C-10.47893327 3.37604749 -10.47893327 3.37604749 -9.42286364 1.62608102 C-6.44259946 -0.29036116 -3.4299983 -0.03402059 0 0 Z M-8.47893327 4.37604749 C-8.78074447 6.33772505 -8.78074447 6.33772505 -8.7296316 8.62324941 C-8.73463864 9.52168388 -8.73964568 10.42011835 -8.74480444 11.34577811 C-8.74012211 12.34106394 -8.73543978 13.33634977 -8.73061556 14.36179578 C-8.73352244 15.41704946 -8.73642932 16.47230313 -8.73942429 17.55953419 C-8.74679146 21.13726287 -8.73974983 24.71482363 -8.73290056 28.2925514 C-8.73520234 30.86672845 -8.73837695 33.44090485 -8.74235505 36.01507986 C-8.74959975 41.63333177 -8.74934627 47.2515453 -8.74426073 52.86979902 C-8.73671898 61.2241102 -8.74055111 69.5783888 -8.74667734 77.93269974 C-8.75722871 92.85047599 -8.75628815 107.76823515 -8.75051952 122.68601304 C-8.74549596 135.7405096 -8.74417147 148.79499988 -8.74656481 161.8494972 C-8.74671758 162.71414986 -8.74687035 163.57880252 -8.74702775 164.46965678 C-8.74765038 167.97922679 -8.74828718 171.4887968 -8.74894727 174.99836681 C-8.75507053 207.94649218 -8.74951003 240.89460663 -8.73875348 273.84273031 C-8.72926169 303.13964918 -8.73011092 332.43655066 -8.73967546 361.73346937 C-8.75037587 394.61986468 -8.75463634 427.50625034 -8.74845093 460.39264715 C-8.74780946 463.89596402 -8.74718379 467.3992809 -8.74656481 470.90259778 C-8.74640665 471.76525584 -8.7462485 472.62791389 -8.74608555 473.5167131 C-8.74380694 486.56563205 -8.74647796 499.61454405 -8.75152391 512.66346204 C-8.75723046 527.49498908 -8.75583841 542.3264963 -8.74496242 557.15802085 C-8.73907099 565.46710099 -8.73873354 573.77613824 -8.74625477 582.0852173 C-8.75124074 588.27400302 -8.74586969 594.46273761 -8.73630562 600.65151703 C-8.73405637 603.16695331 -8.73524161 605.68239527 -8.7400572 608.19782794 C-8.74606672 611.59540267 -8.73997474 614.9927374 -8.73061556 618.3902992 C-8.73529789 619.38558503 -8.73998022 620.38087087 -8.74480444 621.40631688 C-8.73979741 622.30475135 -8.73479037 623.20318582 -8.7296316 624.12884557 C-8.72949608 624.90674141 -8.72936057 625.68463724 -8.72922094 626.48610568 C-8.64172128 628.61869541 -8.64172128 628.61869541 -6.47893327 630.37604749 C-3.99197019 630.57282857 -1.61645064 630.64315099 0.87169081 630.62674582 C1.64342399 630.62955045 2.41515718 630.63235509 3.21027622 630.63524471 C5.8288029 630.64227363 8.44709871 630.63489609 11.06562239 630.62772977 C12.95696346 630.62981367 14.84830373 630.63277438 16.7396422 630.63653851 C21.98173208 630.64438616 27.2237491 630.63963575 32.4658379 630.6329826 C38.15183671 630.62793962 43.83782376 630.63441687 49.52382094 630.63946927 C59.50406004 630.64671765 69.48427753 630.64645824 79.46451765 630.64137495 C90.177515 630.63593316 100.89049696 630.63470576 111.6034947 630.63884962 C112.61700101 630.63923713 112.61700101 630.63923713 113.6509822 630.63963248 C116.40270877 630.64069897 119.15443533 630.64179638 121.90616187 630.64293303 C147.56026995 630.65352249 173.21436952 630.65422436 198.86847883 630.64863813 C200.00969967 630.64838974 200.00969967 630.64838974 201.17397547 630.64813634 C201.93599868 630.64797048 202.69802189 630.64780462 203.48313671 630.64763374 C226.67229475 630.64259303 249.86144927 630.64128195 273.05060774 630.64367902 C274.6017638 630.64383398 276.15291987 630.64398829 277.70407593 630.64414196 C283.93708844 630.64476286 290.17010095 630.64540019 296.40311345 630.64606149 C313.82837682 630.64789576 331.25364019 630.64903678 348.67890364 630.64963377 C349.86929083 630.6496747 349.86929083 630.6496747 351.08372625 630.64971647 C376.38164724 630.65053536 401.67956701 630.64827948 426.97748762 630.64393461 C428.20876963 630.64372386 428.20876963 630.64372386 429.46492601 630.64350886 C442.79617211 630.64121879 456.12741818 630.63877995 469.45866425 630.63632851 C522.3362393 630.62661538 575.21380422 630.6270662 628.09137923 630.63678968 C641.41580142 630.63923194 654.74022361 630.64165399 668.06464583 630.64393461 C669.29519447 630.64414595 669.29519447 630.64414595 670.55060268 630.64436157 C695.82147855 630.64867211 721.09235358 630.65050283 746.36322981 630.64963377 C747.15624299 630.6496066 747.94925617 630.64957943 748.76630004 630.64955144 C766.17200683 630.64892656 783.57771352 630.64765943 800.98342022 630.64581276 C807.21095465 630.64515444 813.43848908 630.64452828 819.66602352 630.64391134 C821.21535807 630.64375656 822.76469262 630.6435991 824.31402717 630.64343894 C847.49873892 630.64104897 870.68344672 630.64309004 893.86815798 630.64813634 C895.00937882 630.64838473 895.00937882 630.64838473 896.17365462 630.64863813 C897.3127823 630.64888618 897.3127823 630.64888618 898.47492266 630.64913923 C924.05302534 630.654648 949.63111782 630.65264211 975.20921904 630.64207664 C977.95235893 630.64097187 980.69549883 630.63989847 983.43863875 630.63884962 C984.44849998 630.638459 984.44849998 630.638459 985.47876245 630.63806048 C996.8167161 630.63386528 1008.1546531 630.63759417 1019.49260613 630.64336899 C1029.33444931 630.64783076 1039.17627301 630.6451046 1049.01811329 630.63635945 C1054.63766269 630.63157071 1060.2571639 630.63003921 1065.87671191 630.63717142 C1070.97811224 630.64358046 1076.07942115 630.64096284 1081.18081468 630.6308101 C1083.02524642 630.62877789 1084.86968555 630.63017419 1086.71411151 630.63522197 C1089.19966903 630.64154737 1091.68490079 630.63577878 1094.17044264 630.62674582 C1095.25824056 630.63391805 1095.25824056 630.63391805 1096.36801419 630.64123517 C1100.39201541 630.7233476 1100.39201541 630.7233476 1103.52106673 628.37604749 C1103.82287792 626.41436993 1103.82287792 626.41436993 1103.77176505 624.12884557 C1103.77677209 623.2304111 1103.78177913 622.33197663 1103.78693789 621.40631688 C1103.78225556 620.41103104 1103.77757323 619.41574521 1103.77274901 618.3902992 C1103.77565589 617.33504553 1103.77856277 616.27979185 1103.78155774 615.19256079 C1103.78892492 611.61483211 1103.78188328 608.03727135 1103.77503401 604.45954359 C1103.77733579 601.88536653 1103.7805104 599.31119014 1103.7844885 596.73701513 C1103.7917332 591.11876321 1103.79147972 585.50054968 1103.78639418 579.88229597 C1103.77885243 571.52798478 1103.78268456 563.17370619 1103.78881079 554.81939524 C1103.79936216 539.90161899 1103.7984216 524.98385983 1103.79265297 510.06608194 C1103.78762941 497.01158539 1103.78630492 483.95709511 1103.78869826 470.90259778 C1103.78885103 470.03794512 1103.7890038 469.17329246 1103.7891612 468.2824382 C1103.78978383 464.77286819 1103.79042063 461.26329818 1103.79108072 457.75372817 C1103.79720398 424.80560281 1103.79164348 391.85748835 1103.78088693 358.90936467 C1103.77139514 329.61244581 1103.77224437 300.31554433 1103.78180891 271.01862562 C1103.79250932 238.13223031 1103.79676979 205.24584464 1103.79058439 172.35944784 C1103.78994291 168.85613096 1103.78931724 165.35281408 1103.78869826 161.8494972 C1103.7885401 160.98683915 1103.78838195 160.12418109 1103.788219 159.23538189 C1103.78594039 146.18646293 1103.78861141 133.13755093 1103.79365736 120.08863294 C1103.79936391 105.2571059 1103.79797186 90.42559869 1103.78709587 75.59407413 C1103.78120444 67.28499399 1103.780867 58.97595674 1103.78838822 50.66687768 C1103.7933742 44.47809197 1103.78800314 38.28935737 1103.77843907 32.10057795 C1103.77618982 29.58514168 1103.77737506 27.06969972 1103.78219065 24.55426705 C1103.78820017 21.15669232 1103.78210819 17.75935759 1103.77274901 14.36179578 C1103.77743134 13.36650995 1103.78211367 12.37122412 1103.78693789 11.34577811 C1103.77942734 9.9981264 1103.77942734 9.9981264 1103.77176505 8.62324941 C1103.77162954 7.84535358 1103.77149402 7.06745774 1103.77135439 6.2659893 C1103.68385473 4.13339958 1103.68385473 4.13339958 1101.52106673 2.37604749 C1099.03410364 2.17926642 1096.65858409 2.10894399 1094.17044264 2.12534916 C1093.39870946 2.12254453 1092.62697627 2.1197399 1091.83185723 2.11685027 C1089.21333055 2.10982136 1086.59503474 2.1171989 1083.97651106 2.12436521 C1082.08516999 2.12228131 1080.19382972 2.1193206 1078.30249125 2.11555648 C1073.06040137 2.10770883 1067.81838435 2.11245924 1062.57629555 2.11911238 C1056.89029674 2.12415536 1051.20430969 2.11767812 1045.51831251 2.11262572 C1035.53807341 2.10537734 1025.55785592 2.10563675 1015.5776158 2.11072004 C1004.86461845 2.11616183 994.15163649 2.11738922 983.43863875 2.11324537 C982.42513244 2.11285785 982.42513244 2.11285785 981.39115125 2.1124625 C978.63942468 2.11139601 975.88769812 2.1102986 973.13597158 2.10916195 C947.48186351 2.0985725 921.82776393 2.09787063 896.17365462 2.10345685 C895.41284073 2.10362245 894.65202684 2.10378804 893.86815798 2.10395865 C892.72512317 2.10420743 892.72512317 2.10420743 891.55899674 2.10446125 C868.3698387 2.10950196 845.18068418 2.11081303 821.99152571 2.10841596 C820.44036965 2.108261 818.88921358 2.10810669 817.33805752 2.10795302 C811.10504501 2.10733212 804.8720325 2.10669479 798.63902 2.10603349 C781.21375663 2.10419922 763.78849326 2.10305821 746.36322981 2.10246122 C745.56963835 2.10243393 744.77604689 2.10240664 743.9584072 2.10237852 C718.66048621 2.10155962 693.36256644 2.1038155 668.06464583 2.10816038 C667.24379116 2.10830087 666.42293649 2.10844137 665.57720744 2.10858613 C652.24596134 2.11087619 638.91471527 2.11331504 625.5834692 2.11576648 C572.70589415 2.1254796 519.82832923 2.12502878 466.95075423 2.1153053 C453.62633204 2.11286304 440.30190984 2.11044099 426.97748762 2.10816038 C425.74693898 2.10794903 425.74693898 2.10794903 424.49153077 2.10773342 C399.2206549 2.10342287 373.94977987 2.10159216 348.67890364 2.10246122 C347.88589046 2.10248839 347.09287729 2.10251556 346.27583341 2.10254355 C328.87012662 2.10316843 311.46441993 2.10443555 294.05871323 2.10628222 C287.8311788 2.10694055 281.60364437 2.1075667 275.37610994 2.10818365 C273.82677538 2.10833842 272.27744083 2.10849588 270.72810628 2.10865604 C247.54339453 2.11104601 224.35868673 2.10900494 201.17397547 2.10395865 C200.41316158 2.10379305 199.65234769 2.10362746 198.86847883 2.10345685 C197.72935115 2.10320881 197.72935115 2.10320881 196.56721079 2.10295575 C170.98910811 2.09744698 145.41101563 2.09945287 119.83291441 2.11001834 C117.08977452 2.11112312 114.34663462 2.11219652 111.6034947 2.11324537 C110.59363347 2.11363599 110.59363347 2.11363599 109.563371 2.1140345 C98.22541735 2.1182297 86.88748035 2.11450082 75.54952732 2.10872599 C65.70768414 2.10426422 55.86586044 2.10699038 46.02402017 2.11573553 C40.40447076 2.12052428 34.78496955 2.12205578 29.16542155 2.11492357 C24.06402121 2.10851453 18.9627123 2.11113215 13.86131877 2.12128489 C12.01688703 2.1233171 10.1724479 2.12192079 8.32802194 2.11687301 C5.84246442 2.11054762 3.35723266 2.1163162 0.87169081 2.12534916 C-0.21610711 2.11817694 -0.21610711 2.11817694 -1.32588074 2.11085982 C-5.34988196 2.02874738 -5.34988196 2.02874738 -8.47893327 4.37604749 Z " fill="#158BB9" transform="translate(135.47893327474594,67.62395250797272)"/>
<path d="M0 0 C16.10145868 -0.12032643 16.10145868 -0.12032643 22.95898438 -0.14648438 C27.64032171 -0.1644258 32.3214832 -0.18566215 37.00268555 -0.22631836 C40.77632259 -0.25888769 44.5497711 -0.2768478 48.32353783 -0.28463173 C49.76408036 -0.29017965 51.20461246 -0.30101336 52.64507484 -0.31719017 C54.6608234 -0.33892959 56.67676121 -0.3402251 58.69262695 -0.34057617 C59.84068314 -0.34723801 60.98873932 -0.35389984 62.17158508 -0.36076355 C65 0 65 0 66.87193298 1.31739807 C68.76314629 4.13829356 68.35175734 6.92361555 68.328125 10.2578125 C68.32625183 10.96146942 68.32437866 11.66512634 68.32244873 12.3901062 C68.3157351 13.87453972 68.30183409 15.35895574 68.28125 16.84326172 C68.25002002 19.12353828 68.2402715 21.40312427 68.234375 23.68359375 C68.16344455 34.83655545 68.16344455 34.83655545 67 36 C64.91380978 36.09417773 62.82439523 36.11742878 60.73608398 36.11352539 C59.7556311 36.11374443 59.7556311 36.11374443 58.75537109 36.1139679 C56.58557872 36.11326883 54.41587121 36.10547678 52.24609375 36.09765625 C50.74536689 36.09579205 49.24463943 36.09436816 47.74391174 36.09336853 C43.78681774 36.08954352 39.82976022 36.0797134 35.87268066 36.06866455 C31.1286825 36.05665533 26.38467215 36.05204811 21.64066315 36.04621124 C14.42708336 36.03650162 7.21358369 36.01734498 0 36 C0 24.12 0 12.24 0 0 Z " fill="#2F3537" transform="translate(259,707)"/>
<path d="M0 0 C20.79 0 41.58 0 63 0 C63 11.88 63 23.76 63 36 C42.21 36 21.42 36 0 36 C0 24.12 0 12.24 0 0 Z " fill="#2F3537" transform="translate(195,707)"/>
<path d="M0 0 C1.18154663 -0.00430527 1.18154663 -0.00430527 2.38696289 -0.00869751 C4.05127685 -0.01073772 5.71561481 -0.00521082 7.37988281 0.00732422 C9.92827947 0.02337941 12.47509021 0.00747506 15.0234375 -0.01171875 C16.6406285 -0.00973631 18.25781852 -0.00589261 19.875 0 C20.63756104 -0.00607269 21.40012207 -0.01214539 22.18579102 -0.0184021 C25.03689636 0.019527 27.36845796 0.09636645 29.91650391 1.44897461 C31.52264824 4.51570405 31.36461314 7.60881202 31.3359375 10.98828125 C31.33880768 11.72921524 31.34167786 12.47014923 31.34463501 13.23353577 C31.346675 14.79949712 31.34114958 16.36548399 31.32861328 17.93139648 C31.31258008 20.32398762 31.32845094 22.7148838 31.34765625 25.10742188 C31.34567336 26.63021205 31.34182873 28.15300118 31.3359375 29.67578125 C31.34504654 30.74625954 31.34504654 30.74625954 31.3543396 31.83836365 C31.31313043 34.76120849 31.0449444 37.14066858 29.91650391 39.84790039 C26.83989065 42.25840752 23.62052134 41.96945769 19.875 41.9296875 C19.08730225 41.9335144 18.29960449 41.93734131 17.48803711 41.94128418 C15.82371746 41.94400446 14.15935514 41.93663496 12.49511719 41.91992188 C9.94629688 41.8985114 7.40029505 41.91971689 4.8515625 41.9453125 C3.23436877 41.94266924 1.6171768 41.9375443 0 41.9296875 C-0.76256104 41.93778442 -1.52512207 41.94588135 -2.31079102 41.95422363 C-5.44258746 41.89867267 -7.53194835 41.81412138 -10.04150391 39.84790039 C-11.45276011 36.46216785 -11.49164031 33.28392186 -11.4609375 29.67578125 C-11.46380768 28.93389053 -11.46667786 28.19199982 -11.46963501 27.42762756 C-11.4716718 25.86344639 -11.46616883 24.29923953 -11.45361328 22.73510742 C-11.43753001 20.34040522 -11.45348528 17.94738479 -11.47265625 15.55273438 C-11.47067419 14.03124628 -11.46683129 12.50975922 -11.4609375 10.98828125 C-11.46701019 10.27260483 -11.47308289 9.55692841 -11.4793396 8.81956482 C-11.44068845 6.09103645 -11.32007282 3.89024021 -10.04150391 1.44897461 C-6.84210935 -0.24939632 -3.53471887 -0.02814891 0 0 Z " fill="#2F3536" transform="translate(1210.0625,705.6015625)"/>
<path d="M0 0 C1.18154663 -0.00430527 1.18154663 -0.00430527 2.38696289 -0.00869751 C4.05127685 -0.01073772 5.71561481 -0.00521082 7.37988281 0.00732422 C9.92827947 0.02337941 12.47509021 0.00747506 15.0234375 -0.01171875 C16.6406285 -0.00973631 18.25781852 -0.00589261 19.875 0 C20.63756104 -0.00607269 21.40012207 -0.01214539 22.18579102 -0.0184021 C25.03689636 0.019527 27.36845796 0.09636645 29.91650391 1.44897461 C31.52264824 4.51570405 31.36461314 7.60881202 31.3359375 10.98828125 C31.33880768 11.72921524 31.34167786 12.47014923 31.34463501 13.23353577 C31.346675 14.79949712 31.34114958 16.36548399 31.32861328 17.93139648 C31.31258008 20.32398762 31.32845094 22.7148838 31.34765625 25.10742188 C31.34567336 26.63021205 31.34182873 28.15300118 31.3359375 29.67578125 C31.34504654 30.74625954 31.34504654 30.74625954 31.3543396 31.83836365 C31.31313043 34.76120849 31.0449444 37.14066858 29.91650391 39.84790039 C26.83989065 42.25840752 23.62052134 41.96945769 19.875 41.9296875 C19.08730225 41.9335144 18.29960449 41.93734131 17.48803711 41.94128418 C15.82371746 41.94400446 14.15935514 41.93663496 12.49511719 41.91992188 C9.94629688 41.8985114 7.40029505 41.91971689 4.8515625 41.9453125 C3.23436877 41.94266924 1.6171768 41.9375443 0 41.9296875 C-0.76256104 41.93778442 -1.52512207 41.94588135 -2.31079102 41.95422363 C-5.44258746 41.89867267 -7.53194835 41.81412138 -10.04150391 39.84790039 C-11.45276011 36.46216785 -11.49164031 33.28392186 -11.4609375 29.67578125 C-11.46380768 28.93389053 -11.46667786 28.19199982 -11.46963501 27.42762756 C-11.4716718 25.86344639 -11.46616883 24.29923953 -11.45361328 22.73510742 C-11.43753001 20.34040522 -11.45348528 17.94738479 -11.47265625 15.55273438 C-11.47067419 14.03124628 -11.46683129 12.50975922 -11.4609375 10.98828125 C-11.46701019 10.27260483 -11.47308289 9.55692841 -11.4793396 8.81956482 C-11.44068845 6.09103645 -11.32007282 3.89024021 -10.04150391 1.44897461 C-6.84210935 -0.24939632 -3.53471887 -0.02814891 0 0 Z " fill="#2F3536" transform="translate(1165.0625,705.6015625)"/>
<path d="M0 0 C0.80490639 -0.00467997 1.60981278 -0.00935994 2.43911028 -0.01418173 C5.14540449 -0.02618032 7.85119685 -0.01665566 10.55749512 -0.00723267 C12.49393511 -0.01129621 14.43037278 -0.01663686 16.36680603 -0.02316284 C21.63324834 -0.03686807 26.89951483 -0.03152456 32.16596031 -0.02202559 C37.66988992 -0.01444558 43.17380419 -0.02146997 48.67773438 -0.02618408 C57.92169913 -0.03164648 67.16559204 -0.02443732 76.4095459 -0.01016235 C87.10631648 0.00616506 97.80291553 0.0008769 108.49968195 -0.01564157 C117.67340138 -0.02924264 126.84706909 -0.03118285 136.02079535 -0.02332556 C141.50437578 -0.01864146 146.98787551 -0.01804442 152.47145081 -0.02793503 C157.62605405 -0.03658236 162.78043552 -0.03062372 167.93501472 -0.01325226 C169.83012079 -0.00927545 171.72524542 -0.01044176 173.62034416 -0.01704025 C176.20084527 -0.02519883 178.78062899 -0.01500355 181.36108398 0 C182.11681592 -0.00669217 182.87254785 -0.01338433 183.65118074 -0.02027929 C186.58219304 0.01293568 188.66661325 0.03786454 191.14499664 1.69237328 C192.90328328 4.55946502 192.60666042 7.70855329 192.57897949 10.97079468 C192.58328476 12.08219566 192.58328476 12.08219566 192.587677 13.21604919 C192.58971699 14.78201054 192.58419157 16.34799741 192.57165527 17.91390991 C192.55562207 20.30650105 192.57149294 22.69739723 192.59069824 25.0899353 C192.58871535 26.61272548 192.58487072 28.13551461 192.57897949 29.65829468 C192.58505219 30.37194687 192.59112488 31.08559906 192.59738159 31.82087708 C192.55719792 34.67098673 192.37191171 36.97647195 191.14499664 39.56967926 C188.19563524 42.28905726 185.17147695 41.93387461 181.36108398 41.8888855 C180.55617759 41.89512546 179.7512712 41.90136542 178.92197371 41.90779448 C176.21555048 41.92379335 173.51001932 41.91109365 170.80358887 41.89852905 C168.86714653 41.90394712 166.93070832 41.911068 164.99427795 41.91976929 C159.72779089 41.93804308 154.46161638 41.93091836 149.19512367 41.91825294 C143.69119023 41.90814627 138.18728407 41.91751212 132.68334961 41.92379761 C123.43936341 41.93108082 114.19550491 41.92146861 104.95153809 41.9024353 C94.25472196 41.88066532 83.55821077 41.88771621 72.86140203 41.90974092 C63.68767096 41.92787571 54.51403184 41.93046265 45.34028864 41.91998625 C39.85668595 41.91374075 34.37322673 41.91294468 28.88963318 41.9261322 C23.73496622 41.93766212 18.5806935 41.92971732 13.42606926 41.90655518 C11.53096612 41.90125277 9.63582996 41.90280788 7.74073982 41.91160583 C5.16004082 41.92248477 2.58061701 41.90889149 0 41.8888855 C-1.1335979 41.90226983 -1.1335979 41.90226983 -2.29009676 41.91592455 C-5.54048993 41.86681219 -7.34308397 41.82017857 -9.78391266 39.56967926 C-11.31828394 36.32663259 -11.24780646 33.17337724 -11.21789551 29.65829468 C-11.22076569 28.91640396 -11.22363586 28.17451324 -11.22659302 27.41014099 C-11.22862981 25.84595982 -11.22312684 24.28175296 -11.21057129 22.71762085 C-11.19448801 20.32291865 -11.21044329 17.92989821 -11.22961426 15.5352478 C-11.2276322 14.0137597 -11.2237893 12.49227265 -11.21789551 10.97079468 C-11.2239682 10.25511826 -11.23004089 9.53944183 -11.23629761 8.80207825 C-11.16754458 3.94854675 -11.16754458 3.94854675 -9.78391266 1.69237328 C-6.72666445 -0.34857158 -3.55304521 -0.03146296 0 0 Z M-8.69139099 2.698349 C-10.5826043 5.51924449 -10.17121535 8.30456648 -10.14758301 11.63876343 C-10.14570984 12.34242035 -10.14383667 13.04607727 -10.14190674 13.77105713 C-10.13519311 15.25549064 -10.1212921 16.73990667 -10.10070801 18.22421265 C-10.06947803 20.50448921 -10.0597295 22.7840752 -10.05383301 25.06454468 C-10.685024 31.73173272 -10.685024 31.73173272 -8.81945801 37.38095093 C-6.73326778 37.47512866 -4.64385324 37.4983797 -2.55554199 37.49447632 C-1.90190674 37.49462234 -1.24827148 37.49476837 -0.5748291 37.49491882 C1.59496327 37.49421976 3.76467078 37.4864277 5.93444824 37.47860718 C7.4351751 37.47674297 8.93590257 37.47531908 10.43663025 37.47431946 C14.39372426 37.47049445 18.35078178 37.46066432 22.30786133 37.44961548 C27.0518595 37.43760626 31.79586984 37.43299903 36.53987885 37.42716217 C43.75345863 37.41745255 50.9669583 37.39829591 58.18054199 37.38095093 C58.18054199 25.50095093 58.18054199 13.62095093 58.18054199 1.38095093 C46.70107197 1.29370915 46.70107197 1.29370915 35.22155762 1.23446655 C30.54022028 1.21652513 25.85905879 1.19528878 21.17785645 1.15463257 C17.40421941 1.12206324 13.6307709 1.10410312 9.85700417 1.0963192 C8.41646163 1.09077127 6.97592954 1.07993757 5.53546715 1.06376076 C3.5197186 1.04202134 1.50378078 1.04072582 -0.51208496 1.04037476 C-2.23416924 1.030382 -2.23416924 1.030382 -3.99104309 1.02018738 C-6.80926912 1.15571833 -6.80926912 1.15571833 -8.69139099 2.698349 Z M59.18054199 1.38095093 C59.18054199 13.26095093 59.18054199 25.14095093 59.18054199 37.38095093 C79.97054199 37.38095093 100.76054199 37.38095093 122.18054199 37.38095093 C122.18054199 25.50095093 122.18054199 13.62095093 122.18054199 1.38095093 C101.39054199 1.38095093 80.60054199 1.38095093 59.18054199 1.38095093 Z M123.18054199 1.38095093 C123.18054199 13.26095093 123.18054199 25.14095093 123.18054199 37.38095093 C135.06432867 37.41001601 135.06432867 37.41001601 146.94812012 37.42977905 C151.79196258 37.43576688 156.63578622 37.44286558 161.47961426 37.45639038 C165.38290171 37.46722136 169.28616898 37.47322821 173.18947029 37.47582817 C174.68187846 37.47768204 176.17428548 37.48130193 177.6666851 37.48668098 C179.75002339 37.49389423 181.83327731 37.49494175 183.91662598 37.49447632 C185.69866676 37.49780724 185.69866676 37.49780724 187.51670837 37.50120544 C190.10174892 37.68457688 190.10174892 37.68457688 191.18054199 36.38095093 C191.42324005 31.85720616 191.40906457 27.32797024 191.42077637 22.7984314 C191.43047286 20.52217954 191.46147828 18.24683401 191.49304199 15.97079468 C191.49957278 14.52678964 191.50482295 13.08277812 191.50866699 11.63876343 C191.5180127 10.32021362 191.5273584 9.00166382 191.5369873 7.64315796 C191.44843828 4.49961118 191.44843828 4.49961118 190.05247498 2.698349 C187.31508587 0.77187452 185.19839188 1.02107946 181.87316895 1.04037476 C180.57204666 1.04060135 179.27092438 1.04082794 177.93037415 1.0410614 C176.50985369 1.05638141 175.08933673 1.0720294 173.66882324 1.08798218 C172.21579933 1.09357817 170.76276976 1.09784825 169.30973816 1.10084534 C165.4873387 1.11229397 161.66528179 1.14176094 157.84301758 1.17495728 C153.25588815 1.2110567 148.66864412 1.22481926 144.08141327 1.2423172 C137.11421801 1.27139871 130.14777421 1.3288847 123.18054199 1.38095093 Z " fill="#158BB8" transform="translate(135.8194580078125,705.6190490722656)"/>
<path d="M0 0 C3.49815233 1.33971791 4.65934586 2.51838552 6.8125 5.5625 C8.59686249 10.72775984 9.15518826 15.91383528 7.203125 21.12890625 C5.49603747 24.27388674 3.99298473 26.00467685 1 28 C1.99 28.66 2.98 29.32 4 30 C3.67 31.32 3.34 32.64 3 34 C0.8125 34.8125 0.8125 34.8125 -2 35 C-4.8125 32.6875 -4.8125 32.6875 -7 30 C-7 29.34 -7 28.68 -7 28 C-7.721875 27.95875 -8.44375 27.9175 -9.1875 27.875 C-13.16608196 26.63721895 -14.60744824 24.32298855 -17 21 C-18.35593231 16.93220306 -18.53075585 13.25331741 -18 9 C-13.69142517 0.69060569 -8.9301924 -1.04378872 0 0 Z " fill="#1788B5" transform="translate(604,22)"/>
<path d="M0 0 C2.64 0 5.28 0 8 0 C9.98 3.63 11.96 7.26 14 11 C14.33 7.37 14.66 3.74 15 0 C17.31 0 19.62 0 22 0 C22 9.24 22 18.48 22 28 C19.36 28 16.72 28 14 28 C12.35 25.03 10.7 22.06 9 19 C8.67 21.97 8.34 24.94 8 28 C5.36 28 2.72 28 0 28 C0 18.76 0 9.52 0 0 Z " fill="#1689B7" transform="translate(686,22)"/>
<path d="M0 0 C2.31 0 4.62 0 7 0 C7.33 3.96 7.66 7.92 8 12 C8.66 10.68 9.32 9.36 10 8 C12.64 8 15.28 8 18 8 C17.65324219 8.52207031 17.30648437 9.04414063 16.94921875 9.58203125 C15.51874842 12.11081936 14.5838547 14.14197001 14 17 C15.11249646 20.99883521 16.89472006 24.43568112 19 28 C16.03 28 13.06 28 10 28 C9.34 26.35 8.68 24.7 8 23 C7.67 24.65 7.34 26.3 7 28 C4.69 28 2.38 28 0 28 C0 18.76 0 9.52 0 0 Z " fill="#1689B4" transform="translate(665,22)"/>
<path d="M0 0 C0.66 0 1.32 0 2 0 C2.33 1.32 2.66 2.64 3 4 C3.9590625 3.7215625 3.9590625 3.7215625 4.9375 3.4375 C5.618125 3.293125 6.29875 3.14875 7 3 C7.33 3.33 7.66 3.66 8 4 C8.33 2.68 8.66 1.36 9 0 C12.36720387 1.39332574 13.9859524 2.9789286 16 6 C16.33 4.02 16.66 2.04 17 0 C17.66 0 18.32 0 19 0 C19.33 1.65 19.66 3.3 20 5 C20.66 4.34 21.32 3.68 22 3 C24.5 2.875 24.5 2.875 27 3 C27.66 3 28.32 3 29 3 C29.66 2.01 30.32 1.02 31 0 C31.66 0 32.32 0 33 0 C33.495 1.98 33.495 1.98 34 4 C33.34 4 32.68 4 32 4 C32 5.65 32 7.3 32 9 C32.99 9 33.98 9 35 9 C35 9.66 35 10.32 35 11 C34.01 11.33 33.02 11.66 32 12 C32 12.66 32 13.32 32 14 C31.34 14 30.68 14 30 14 C30 14.66 30 15.32 30 16 C28.68 16 27.36 16 26 16 C26 15.34 26 14.68 26 14 C25.34 14 24.68 14 24 14 C24 14.66 24 15.32 24 16 C22.68 16 21.36 16 20 16 C20 15.34 20 14.68 20 14 C19.2575 14.165 18.515 14.33 17.75 14.5 C13.22466465 15.32278825 10.06359477 15.08389475 6 13 C4.1875 10.875 4.1875 10.875 3 9 C2.67 9.66 2.34 10.32 2 11 C1.34 11 0.68 11 0 11 C0 7.37 0 3.74 0 0 Z " fill="#584C4F" transform="translate(164,79)"/>
<path d="M0 0 C2.16015625 0.58203125 2.16015625 0.58203125 5.22265625 3.14453125 C7.45945567 7.11304635 7.81217487 9.09940322 7.16015625 13.58203125 C5.75554928 16.45509097 4.41504626 18.32714124 2.16015625 20.58203125 C-0.91998888 21.21137328 -3.75603389 21.17752557 -6.83984375 20.58203125 C-9.99849401 18.00354124 -11.3749471 16.51846029 -12.3125 12.61328125 C-12.59027737 8.90958295 -11.99301427 6.17068735 -9.90234375 3.08203125 C-6.33981546 0.17384489 -4.49599786 -0.3227511 0 0 Z " fill="#1788B5" transform="translate(722.83984375,29.41796875)"/>
<path d="M0 0 C2.31 0 4.62 0 7 0 C7 4.62 7 9.24 7 14 C7.99 14 8.98 14 10 14 C10 9.38 10 4.76 10 0 C12.31 0 14.62 0 17 0 C17 4.29 17 8.58 17 13 C17.66 13 18.32 13 19 13 C19 14.98 19 16.96 19 19 C15.43127262 19.79809721 12.03111519 20.21681654 8.375 20.3125 C6.96347656 20.36857422 6.96347656 20.36857422 5.5234375 20.42578125 C3 20 3 20 1.17578125 18.49609375 C-0.49613444 14.94674449 -0.31957387 11.58352887 -0.1875 7.75 C-0.17396484 7.00492188 -0.16042969 6.25984375 -0.14648438 5.4921875 C-0.11127204 3.66114584 -0.05746851 1.83047831 0 0 Z " fill="#1789B6" transform="translate(615,30)"/>
<path d="M0 0 C2.09375 0.453125 2.09375 0.453125 4.65625 2.078125 C6.52174134 5.16024112 6.69660455 6.91135452 6.09375 10.453125 C4.46875 12.328125 4.46875 12.328125 2.09375 13.453125 C-1.15625 13.640625 -1.15625 13.640625 -3.90625 13.453125 C-3.90625 14.113125 -3.90625 14.773125 -3.90625 15.453125 C-1.26625 15.123125 1.37375 14.793125 4.09375 14.453125 C4.42375 16.103125 4.75375 17.753125 5.09375 19.453125 C1.3447577 21.32762115 -2.83345547 21.11167733 -6.90625 20.453125 C-9.74689179 18.75375651 -10.25479524 17.53584056 -11.90625 14.453125 C-12.75970537 10.86861245 -12.58604374 7.98835296 -11.08984375 4.609375 C-8.10115338 0.19402756 -4.95360396 -0.36326429 0 0 Z " fill="#1885B2" transform="translate(757.90625,29.546875)"/>
<path d="M0 0 C1.18154663 -0.00430527 1.18154663 -0.00430527 2.38696289 -0.00869751 C4.05127685 -0.01073772 5.71561481 -0.00521082 7.37988281 0.00732422 C9.92827947 0.02337941 12.47509021 0.00747506 15.0234375 -0.01171875 C16.6406285 -0.00973631 18.25781852 -0.00589261 19.875 0 C20.63756104 -0.00607269 21.40012207 -0.01214539 22.18579102 -0.0184021 C25.03689636 0.019527 27.36845796 0.09636645 29.91650391 1.44897461 C31.52264824 4.51570405 31.36461314 7.60881202 31.3359375 10.98828125 C31.33880768 11.72921524 31.34167786 12.47014923 31.34463501 13.23353577 C31.346675 14.79949712 31.34114958 16.36548399 31.32861328 17.93139648 C31.31258008 20.32398762 31.32845094 22.7148838 31.34765625 25.10742188 C31.34567336 26.63021205 31.34182873 28.15300118 31.3359375 29.67578125 C31.34504654 30.74625954 31.34504654 30.74625954 31.3543396 31.83836365 C31.31313043 34.76120849 31.0449444 37.14066858 29.91650391 39.84790039 C26.83989065 42.25840752 23.62052134 41.96945769 19.875 41.9296875 C19.08730225 41.9335144 18.29960449 41.93734131 17.48803711 41.94128418 C15.82371746 41.94400446 14.15935514 41.93663496 12.49511719 41.91992188 C9.94629688 41.8985114 7.40029505 41.91971689 4.8515625 41.9453125 C3.23436877 41.94266924 1.6171768 41.9375443 0 41.9296875 C-0.76256104 41.93778442 -1.52512207 41.94588135 -2.31079102 41.95422363 C-5.44258746 41.89867267 -7.53194835 41.81412138 -10.04150391 39.84790039 C-11.45276011 36.46216785 -11.49164031 33.28392186 -11.4609375 29.67578125 C-11.46380768 28.93389053 -11.46667786 28.19199982 -11.46963501 27.42762756 C-11.4716718 25.86344639 -11.46616883 24.29923953 -11.45361328 22.73510742 C-11.43753001 20.34040522 -11.45348528 17.94738479 -11.47265625 15.55273438 C-11.47067419 14.03124628 -11.46683129 12.50975922 -11.4609375 10.98828125 C-11.46701019 10.27260483 -11.47308289 9.55692841 -11.4793396 8.81956482 C-11.44068845 6.09103645 -11.32007282 3.89024021 -10.04150391 1.44897461 C-6.84210935 -0.24939632 -3.53471887 -0.02814891 0 0 Z M-9.01855469 2.46972656 C-10.66408864 5.50988517 -10.41493741 8.22610483 -10.390625 11.65625 C-10.38875183 12.35990692 -10.38687866 13.06356384 -10.38494873 13.7885437 C-10.3782351 15.27297722 -10.36433409 16.75739324 -10.34375 18.24169922 C-10.31252002 20.52197578 -10.3027715 22.80156177 -10.296875 25.08203125 C-10.92806599 31.74921929 -10.92806599 31.74921929 -9.0625 37.3984375 C-6.26256403 37.49947005 -3.48781356 37.53813838 -0.6875 37.53125 C0.15216309 37.53220673 0.99182617 37.53316345 1.85693359 37.53414917 C3.63574295 37.53483098 5.41455477 37.53297667 7.19335938 37.52880859 C9.92583776 37.52346033 12.65815176 37.52875355 15.390625 37.53515625 C17.1145837 37.53449547 18.83854229 37.53321431 20.5625 37.53125 C21.38540527 37.53327423 22.20831055 37.53529846 23.05615234 37.53738403 C26.80129866 37.8841921 26.80129866 37.8841921 29.9375 36.3984375 C30.18019806 31.87469273 30.16602257 27.34545681 30.17773438 22.81591797 C30.18743087 20.53966611 30.21843629 18.26432058 30.25 15.98828125 C30.25653079 14.54427621 30.26178096 13.10026469 30.265625 11.65625 C30.2749707 10.3377002 30.28431641 9.01915039 30.29394531 7.66064453 C30.1581457 4.51607929 30.1581457 4.51607929 28.89355469 2.46972656 C25.82696743 0.79022271 22.72017433 0.97121122 19.3125 1 C18.56919434 0.99712982 17.82588867 0.99425964 17.06005859 0.99130249 C15.4899011 0.98926274 13.91971814 0.9947865 12.34960938 1.00732422 C9.94603668 1.02338047 7.54414539 1.00747398 5.140625 0.98828125 C3.61457962 0.9902637 2.08853529 0.99410741 0.5625 1 C-0.15631348 0.99392731 -0.87512695 0.98785461 -1.61572266 0.9815979 C-4.37992998 1.02056605 -6.56738562 1.12727401 -9.01855469 2.46972656 Z " fill="#1688B4" transform="translate(1210.0625,705.6015625)"/>
<path d="M0 0 C1.18154663 -0.00430527 1.18154663 -0.00430527 2.38696289 -0.00869751 C4.05127685 -0.01073772 5.71561481 -0.00521082 7.37988281 0.00732422 C9.92827947 0.02337941 12.47509021 0.00747506 15.0234375 -0.01171875 C16.6406285 -0.00973631 18.25781852 -0.00589261 19.875 0 C20.63756104 -0.00607269 21.40012207 -0.01214539 22.18579102 -0.0184021 C25.03689636 0.019527 27.36845796 0.09636645 29.91650391 1.44897461 C31.52264824 4.51570405 31.36461314 7.60881202 31.3359375 10.98828125 C31.33880768 11.72921524 31.34167786 12.47014923 31.34463501 13.23353577 C31.346675 14.79949712 31.34114958 16.36548399 31.32861328 17.93139648 C31.31258008 20.32398762 31.32845094 22.7148838 31.34765625 25.10742188 C31.34567336 26.63021205 31.34182873 28.15300118 31.3359375 29.67578125 C31.34504654 30.74625954 31.34504654 30.74625954 31.3543396 31.83836365 C31.31313043 34.76120849 31.0449444 37.14066858 29.91650391 39.84790039 C26.83989065 42.25840752 23.62052134 41.96945769 19.875 41.9296875 C19.08730225 41.9335144 18.29960449 41.93734131 17.48803711 41.94128418 C15.82371746 41.94400446 14.15935514 41.93663496 12.49511719 41.91992188 C9.94629688 41.8985114 7.40029505 41.91971689 4.8515625 41.9453125 C3.23436877 41.94266924 1.6171768 41.9375443 0 41.9296875 C-0.76256104 41.93778442 -1.52512207 41.94588135 -2.31079102 41.95422363 C-5.44258746 41.89867267 -7.53194835 41.81412138 -10.04150391 39.84790039 C-11.45276011 36.46216785 -11.49164031 33.28392186 -11.4609375 29.67578125 C-11.46380768 28.93389053 -11.46667786 28.19199982 -11.46963501 27.42762756 C-11.4716718 25.86344639 -11.46616883 24.29923953 -11.45361328 22.73510742 C-11.43753001 20.34040522 -11.45348528 17.94738479 -11.47265625 15.55273438 C-11.47067419 14.03124628 -11.46683129 12.50975922 -11.4609375 10.98828125 C-11.46701019 10.27260483 -11.47308289 9.55692841 -11.4793396 8.81956482 C-11.44068845 6.09103645 -11.32007282 3.89024021 -10.04150391 1.44897461 C-6.84210935 -0.24939632 -3.53471887 -0.02814891 0 0 Z M-9.01855469 2.46972656 C-10.66408864 5.50988517 -10.41493741 8.22610483 -10.390625 11.65625 C-10.38875183 12.35990692 -10.38687866 13.06356384 -10.38494873 13.7885437 C-10.3782351 15.27297722 -10.36433409 16.75739324 -10.34375 18.24169922 C-10.31252002 20.52197578 -10.3027715 22.80156177 -10.296875 25.08203125 C-10.92806599 31.74921929 -10.92806599 31.74921929 -9.0625 37.3984375 C-6.26256403 37.49947005 -3.48781356 37.53813838 -0.6875 37.53125 C0.15216309 37.53220673 0.99182617 37.53316345 1.85693359 37.53414917 C3.63574295 37.53483098 5.41455477 37.53297667 7.19335938 37.52880859 C9.92583776 37.52346033 12.65815176 37.52875355 15.390625 37.53515625 C17.1145837 37.53449547 18.83854229 37.53321431 20.5625 37.53125 C21.38540527 37.53327423 22.20831055 37.53529846 23.05615234 37.53738403 C26.80129866 37.8841921 26.80129866 37.8841921 29.9375 36.3984375 C30.18019806 31.87469273 30.16602257 27.34545681 30.17773438 22.81591797 C30.18743087 20.53966611 30.21843629 18.26432058 30.25 15.98828125 C30.25653079 14.54427621 30.26178096 13.10026469 30.265625 11.65625 C30.2749707 10.3377002 30.28431641 9.01915039 30.29394531 7.66064453 C30.1581457 4.51607929 30.1581457 4.51607929 28.89355469 2.46972656 C25.82696743 0.79022271 22.72017433 0.97121122 19.3125 1 C18.56919434 0.99712982 17.82588867 0.99425964 17.06005859 0.99130249 C15.4899011 0.98926274 13.91971814 0.9947865 12.34960938 1.00732422 C9.94603668 1.02338047 7.54414539 1.00747398 5.140625 0.98828125 C3.61457962 0.9902637 2.08853529 0.99410741 0.5625 1 C-0.15631348 0.99392731 -0.87512695 0.98785461 -1.61572266 0.9815979 C-4.37992998 1.02056605 -6.56738562 1.12727401 -9.01855469 2.46972656 Z " fill="#1688B4" transform="translate(1165.0625,705.6015625)"/>
<path d="M0 0 C2.31 0 4.62 0 7 0 C7 1.32 7 2.64 7 4 C8.32 4 9.64 4 11 4 C11 5.98 11 7.96 11 10 C10.01 10 9.02 10 8 10 C8 14.62 8 19.24 8 24 C5.36 24 2.72 24 0 24 C0 19.38 0 14.76 0 10 C-0.99 9.67 -1.98 9.34 -3 9 C-3 7.35 -3 5.7 -3 4 C-2.01 4 -1.02 4 0 4 C0 2.68 0 1.36 0 0 Z " fill="#1886B4" transform="translate(734,26)"/>
<path d="M0 0 C1.98828125 0.40625 1.98828125 0.40625 3.98828125 2.40625 C3.61328125 5.03125 3.61328125 5.03125 2.98828125 7.40625 C0.98828125 7.40625 -1.01171875 7.40625 -3.01171875 7.40625 C-3.01171875 9.38625 -3.01171875 11.36625 -3.01171875 13.40625 C-2.20734375 13.385625 -1.40296875 13.365 -0.57421875 13.34375 C1.98828125 13.40625 1.98828125 13.40625 2.98828125 14.40625 C3.11328125 16.90625 3.11328125 16.90625 2.98828125 19.40625 C1.42898157 20.96554968 -0.10031443 20.72566003 -2.26171875 20.84375 C-6.18726841 20.7874024 -6.85301232 20.53580627 -10.07421875 17.90625 C-12.16488927 14.8175939 -12.76215237 12.0786983 -12.484375 8.375 C-10.85585096 1.59172631 -6.57150293 -0.26506903 0 0 Z " fill="#1788B5" transform="translate(659.01171875,29.59375)"/>
<path d="M0 0 C4.66666667 0 9.33333333 0 14 0 C14 1.98 14 3.96 14 6 C12.35 6.33 10.7 6.66 9 7 C9 11.29 9 15.58 9 20 C6.69 20 4.38 20 2 20 C2 15.71 2 11.42 2 7 C1.34 7 0.68 7 0 7 C0 4.69 0 2.38 0 0 Z " fill="#1788B7" transform="translate(766,30)"/>
<path d="M0 0 C0.99 0 1.98 0 3 0 C3 0.66 3 1.32 3 2 C4.65 2 6.3 2 8 2 C10.21538462 8.27692308 10.21538462 8.27692308 9.125 11.9375 C8.568125 12.9584375 8.568125 12.9584375 8 14 C6.35 14 4.7 14 3 14 C3 14.66 3 15.32 3 16 C-0.375 15.4375 -0.375 15.4375 -4 14 C-5.79376029 10.19722819 -6.3328822 8.11753308 -5.125 4.0625 C-4.75375 3.381875 -4.3825 2.70125 -4 2 C-2.68 2 -1.36 2 0 2 C0 1.34 0 0.68 0 0 Z " fill="#1985B1" transform="translate(1218,717)"/>
<path d="M0 0 C10.00211416 -0.7230444 10.00211416 -0.7230444 12.84375 1.3359375 C14.1875 3 14.1875 3 16 6 C16.33 4.02 16.66 2.04 17 0 C17.66 0 18.32 0 19 0 C19 3.63 19 7.26 19 11 C15.23312136 9.11656068 14.20578354 8.30867531 12 5 C11.67 6.98 11.34 8.96 11 11 C7.37 11 3.74 11 0 11 C0 7.37 0 3.74 0 0 Z " fill="#2C404C" transform="translate(162,720)"/>
<path d="M0 0 C0.66 0 1.32 0 2 0 C2 1.98 2 3.96 2 6 C2.99 6 3.98 6 5 6 C5 4.02 5 2.04 5 0 C9.66666667 0 14.33333333 0 19 0 C19 0.66 19 1.32 19 2 C17.68 2 16.36 2 15 2 C15 3.32 15 4.64 15 6 C16.65 6 18.3 6 20 6 C18.625 7.5 18.625 7.5 17 9 C16.34 9 15.68 9 15 9 C15 10.32 15 11.64 15 13 C13.68 13 12.36 13 11 13 C11 12.34 11 11.68 11 11 C10.34 11 9.68 11 9 11 C9 11.66 9 12.32 9 13 C7.68 13 6.36 13 5 13 C5 12.34 5 11.68 5 11 C4.34 11 3.68 11 3 11 C3 10.34 3 9.68 3 9 C2.01 8.67 1.02 8.34 0 8 C0 5.36 0 2.72 0 0 Z " fill="#A0897D" transform="translate(143,82)"/>
<path d="M0 0 C-0.14029419 2.1462026 -0.28738164 4.29196218 -0.4375 6.4375 C-0.51871094 7.63246094 -0.59992188 8.82742188 -0.68359375 10.05859375 C-1 13 -1 13 -2 14 C-5.00331018 14.14193337 -7.99217134 14.04236378 -11 14 C-11 10.37 -11 6.74 -11 3 C-11.66 3 -12.32 3 -13 3 C-13 2.01 -13 1.02 -13 0 C-8.38926889 -1.29676812 -4.66159911 -0.71109139 0 0 Z " fill="#187E9F" transform="translate(1181,718)"/>
<path d="M0 0 C2.31 0 4.62 0 7 0 C7 6.6 7 13.2 7 20 C4.69 20 2.38 20 0 20 C0 13.4 0 6.8 0 0 Z " fill="#178ABA" transform="translate(637,30)"/>
<path d="M0 0 C0.99 0.66 1.98 1.32 3 2 C3.2578125 4.09375 3.2578125 4.09375 3.125 6.5 C2.89255348 9.88137158 2.89255348 9.88137158 4 13 C2.3934324 12.74379316 0.7897517 12.46944129 -0.8125 12.1875 C-1.70582031 12.03667969 -2.59914062 11.88585937 -3.51953125 11.73046875 C-6.21893811 10.93552531 -7.31453201 10.22350012 -9 8 C-9.42822025 5.14519831 -9.40659584 3.65507108 -7.875 1.1875 C-5.15523346 -0.53501881 -3.15413751 -0.32855599 0 0 Z " fill="#DEE7E6" transform="translate(138,79)"/>
<path d="M0 0 C1.9375 1.0625 1.9375 1.0625 3 3 C2.8125 6.625 2.8125 6.625 2 10 C-0.79870027 11.39935013 -2.90498792 11.25265405 -6 11 C-7.875 9.8125 -7.875 9.8125 -9 8 C-9.42822025 5.14519831 -9.40659584 3.65507108 -7.875 1.1875 C-5.12844028 -0.55198782 -3.18153026 -0.39769128 0 0 Z " fill="#1D7EA7" transform="translate(291,720)"/>
<path d="M0 0 C1.9375 1.0625 1.9375 1.0625 3 3 C2.8125 6.625 2.8125 6.625 2 10 C-0.79870027 11.39935013 -2.90498792 11.25265405 -6 11 C-7.875 9.8125 -7.875 9.8125 -9 8 C-9.42822025 5.14519831 -9.40659584 3.65507108 -7.875 1.1875 C-5.12844028 -0.55198782 -3.18153026 -0.39769128 0 0 Z " fill="#1D7EA7" transform="translate(147,720)"/>
<path d="M0 0 C0.886875 0.020625 1.77375 0.04125 2.6875 0.0625 C4.0075 0.0625 5.3275 0.0625 6.6875 0.0625 C8.35416667 0.0625 10.02083333 0.0625 11.6875 0.0625 C12.48703138 3.34946233 12.78408936 4.77273192 11.6875 8.0625 C7.97150809 8.26336443 6.91541555 8.2144437 3.6875 6.0625 C3.3575 6.7225 3.0275 7.3825 2.6875 8.0625 C1.02138095 8.105221 -0.64632885 8.10313832 -2.3125 8.0625 C-3.3125 7.0625 -3.3125 7.0625 -3.4375 4.0625 C-3.27191375 0.0884301 -3.27191375 0.0884301 0 0 Z " fill="#EAE7DE" transform="translate(259.3125,81.9375)"/>
<path d="M0 0 C0.33 0 0.66 0 1 0 C1 9.24 1 18.48 1 28 C0.01 27.67 -0.98 27.34 -2 27 C-2.33 25.35 -2.66 23.7 -3 22 C-3.804375 22.020625 -4.60875 22.04125 -5.4375 22.0625 C-8 22 -8 22 -9 21 C-9.04080783 19.00041636 -9.04254356 16.99954746 -9 15 C-7 15 -5 15 -3 15 C-0.22957891 12.22957891 -0.60203894 10.23466195 -0.375 6.375 C-0.30023437 5.18648437 -0.22546875 3.99796875 -0.1484375 2.7734375 C-0.09945312 1.85820312 -0.05046875 0.94296875 0 0 Z " fill="#2E3B4F" transform="translate(664,22)"/>
<path d="M0 0 C0.66 0 1.32 0 2 0 C2.33 1.32 2.66 2.64 3 4 C2.34 4 1.68 4 1 4 C1 5.65 1 7.3 1 9 C1.99 9 2.98 9 4 9 C4 9.66 4 10.32 4 11 C3.01 11.33 2.02 11.66 1 12 C1 12.66 1 13.32 1 14 C0.34 14 -0.32 14 -1 14 C-1 14.66 -1 15.32 -1 16 C-2.32 16 -3.64 16 -5 16 C-5 15.34 -5 14.68 -5 14 C-5.66 14 -6.32 14 -7 14 C-7 14.66 -7 15.32 -7 16 C-8.32 16 -9.64 16 -11 16 C-11 15.34 -11 14.68 -11 14 C-11.66 14 -12.32 14 -13 14 C-13 13.34 -13 12.68 -13 12 C-12.38511719 11.96003906 -11.77023438 11.92007813 -11.13671875 11.87890625 C-8.49034522 11.53703024 -6.41964162 11.14320545 -4 10 C-2.31710415 7.12572073 -1.7074963 4.22795185 -1 1 C-0.67 0.67 -0.34 0.34 0 0 Z " fill="#653D3E" transform="translate(195,79)"/>
<path d="M0 0 C1.99954746 -0.04254356 4.00041636 -0.04080783 6 0 C7 1 7 1 7.09765625 3.28515625 C7.08605469 4.20167969 7.07445312 5.11820313 7.0625 6.0625 C7.05347656 6.98160156 7.04445313 7.90070312 7.03515625 8.84765625 C7.02355469 9.55792969 7.01195312 10.26820312 7 11 C5.35 11.66 3.7 12.32 2 13 C0.5 12 0.5 12 -1 10 C-1.42372144 6.54667028 -1.58512383 3.17024765 0 0 Z " fill="#2E383C" transform="translate(596,30)"/>
<path d="M0 0 C0.66 0 1.32 0 2 0 C2 1.98 2 3.96 2 6 C2.99 6 3.98 6 5 6 C5 4.02 5 2.04 5 0 C5.99 0 6.98 0 8 0 C8 2.64 8 5.28 8 8 C8.99 8 9.98 8 11 8 C11 8.99 11 9.98 11 11 C10.34 11 9.68 11 9 11 C9 11.66 9 12.32 9 13 C7.68 13 6.36 13 5 13 C5 12.34 5 11.68 5 11 C4.34 11 3.68 11 3 11 C3 10.34 3 9.68 3 9 C2.01 8.67 1.02 8.34 0 8 C0 5.36 0 2.72 0 0 Z " fill="#793939" transform="translate(143,82)"/>
<path d="M0 0 C1.81242052 -0.02687279 3.62495233 -0.04633715 5.4375 -0.0625 C6.44683594 -0.07410156 7.45617187 -0.08570312 8.49609375 -0.09765625 C11 0 11 0 12 1 C12.04092937 3.33297433 12.04241723 5.66705225 12 8 C11.34 8 10.68 8 10 8 C10 6.02 10 4.04 10 2 C9.34 2 8.68 2 8 2 C8 3.98 8 5.96 8 8 C7.01 8 6.02 8 5 8 C5 6.02 5 4.04 5 2 C4.34 2 3.68 2 3 2 C3 3.98 3 5.96 3 8 C2.01 8 1.02 8 0 8 C0 5.36 0 2.72 0 0 Z " fill="#E5E8DA" transform="translate(291,82)"/>
<path d="M0 0 C0.99 0 1.98 0 3 0 C3 3.63 3 7.26 3 11 C0.66705225 11.04241723 -1.66702567 11.04092937 -4 11 C-5 10 -5 10 -5.0625 6.9375 C-5.041875 5.968125 -5.02125 4.99875 -5 4 C-3.35 3.67 -1.7 3.34 0 3 C0 2.01 0 1.02 0 0 Z " fill="#C3B89E" transform="translate(352,79)"/>
<path d="M0 0 C0 0.99 0 1.98 0 3 C-0.66 3 -1.32 3 -2 3 C-2 5.97 -2 8.94 -2 12 C-2.33 12 -2.66 12 -3 12 C-3 9.36 -3 6.72 -3 4 C-5.31 4 -7.62 4 -10 4 C-10 7.3 -10 10.6 -10 14 C-10.33 14 -10.66 14 -11 14 C-11 10.37 -11 6.74 -11 3 C-11.66 3 -12.32 3 -13 3 C-13 2.01 -13 1.02 -13 0 C-8.38926889 -1.29676812 -4.66159911 -0.71109139 0 0 Z " fill="#1A88B7" transform="translate(1181,718)"/>
<path d="M0 0 C0.99 0 1.98 0 3 0 C3.67119549 1.4562545 4.33681807 2.91507867 5 4.375 C5.556875 5.59316406 5.556875 5.59316406 6.125 6.8359375 C7 9 7 9 7 11 C5.01432292 10.70703125 3.02864583 10.4140625 1.04296875 10.12109375 C-1.2025342 9.86095201 -1.2025342 9.86095201 -4 11 C-3.39301257 6.87248551 -1.96189209 3.6678852 0 0 Z " fill="#246589" transform="translate(220,720)"/>
<path d="M0 0 C2.31 0 4.62 0 7 0 C7.625 2.875 7.625 2.875 8 6 C7.34 6.66 6.68 7.32 6 8 C4.68 8 3.36 8 2 8 C2 8.99 2 9.98 2 11 C1.34 11 0.68 11 0 11 C0 7.37 0 3.74 0 0 Z " fill="#C2B8B3" transform="translate(500,82)"/>
<path d="M0 0 C2.31 0 4.62 0 7 0 C7.625 2.875 7.625 2.875 8 6 C7.34 6.66 6.68 7.32 6 8 C4.68 8 3.36 8 2 8 C2 8.99 2 9.98 2 11 C1.34 11 0.68 11 0 11 C0 7.37 0 3.74 0 0 Z " fill="#C2B8B3" transform="translate(491,82)"/>
<path d="M0 0 C2.875 -0.125 2.875 -0.125 6 0 C6.66 0.66 7.32 1.32 8 2 C7.625 4.625 7.625 4.625 7 7 C5.35 7.33 3.7 7.66 2 8 C2 8.99 2 9.98 2 11 C1.34 11 0.68 11 0 11 C0 7.37 0 3.74 0 0 Z " fill="#BEB6B0" transform="translate(305,82)"/>
<path d="M0 0 C3.76687864 1.88343932 4.79421646 2.69132469 7 6 C7.33 4.02 7.66 2.04 8 0 C8.66 0 9.32 0 10 0 C10 3.63 10 7.26 10 11 C6.23312136 9.11656068 5.20578354 8.30867531 3 5 C2.67 6.98 2.34 8.96 2 11 C1.34 11 0.68 11 0 11 C0 7.37 0 3.74 0 0 Z " fill="#EBF3E6" transform="translate(173,79)"/>
<path d="M0 0 C3.76687864 1.88343932 4.79421646 2.69132469 7 6 C7.33 4.02 7.66 2.04 8 0 C8.66 0 9.32 0 10 0 C10 3.63 10 7.26 10 11 C6.23312136 9.11656068 5.20578354 8.30867531 3 5 C2.67 6.98 2.34 8.96 2 11 C1.34 11 0.68 11 0 11 C0 7.37 0 3.74 0 0 Z " fill="#1C85AB" transform="translate(171,720)"/>
<path d="M0 0 C5.75 -0.125 5.75 -0.125 8 1 C8.042721 2.66611905 8.04063832 4.33382885 8 6 C7 7 7 7 4.4375 7.0625 C3.2309375 7.0315625 3.2309375 7.0315625 2 7 C2 8.32 2 9.64 2 11 C1.34 11 0.68 11 0 11 C0 7.37 0 3.74 0 0 Z " fill="#245F79" transform="translate(296,720)"/>
<path d="M0 0 C5.75 -0.125 5.75 -0.125 8 1 C8.042721 2.66611905 8.04063832 4.33382885 8 6 C7 7 7 7 4.4375 7.0625 C3.2309375 7.0315625 3.2309375 7.0315625 2 7 C2 8.32 2 9.64 2 11 C1.34 11 0.68 11 0 11 C0 7.37 0 3.74 0 0 Z " fill="#245F79" transform="translate(152,720)"/>
<path d="M0 0 C3 0.125 3 0.125 4 1.125 C4.125 4.125 4.125 4.125 4 7.125 C3 8.125 3 8.125 0 8.25 C-3 8.125 -3 8.125 -4 7.125 C-4.125 4.125 -4.125 4.125 -4 1.125 C-3 0.125 -3 0.125 0 0 Z " fill="#C2C6C4" transform="translate(459,81.875)"/>
<path d="M0 0 C2.5625 0.1875 2.5625 0.1875 4.5625 2.1875 C4.00694444 6.74305556 4.00694444 6.74305556 2.5625 8.1875 C0.125 8.375 0.125 8.375 -2.4375 8.1875 C-3.0975 7.5275 -3.7575 6.8675 -4.4375 6.1875 C-3.71780303 0.28598485 -3.71780303 0.28598485 0 0 Z " fill="#C3C7C5" transform="translate(407.4375,81.8125)"/>
<path d="M0 0 C2.5625 0.1875 2.5625 0.1875 4.5625 2.1875 C4.00694444 6.74305556 4.00694444 6.74305556 2.5625 8.1875 C0.125 8.375 0.125 8.375 -2.4375 8.1875 C-3.0975 7.5275 -3.7575 6.8675 -4.4375 6.1875 C-3.71780303 0.28598485 -3.71780303 0.28598485 0 0 Z " fill="#C6C7C1" transform="translate(188.4375,81.8125)"/>
<path d="M0 0 C2 1.1875 2 1.1875 4 3 C4.25 5.6875 4.25 5.6875 4 8 C2.68 8 1.36 8 0 8 C0 7.34 0 6.68 0 6 C-0.66 6 -1.32 6 -2 6 C-2 6.66 -2 7.32 -2 8 C-3.32 8 -4.64 8 -6 8 C-6 7.34 -6 6.68 -6 6 C-6.66 6 -7.32 6 -8 6 C-8 5.34 -8 4.68 -8 4 C-3.375 1.875 -3.375 1.875 0 3 C0 2.01 0 1.02 0 0 Z " fill="#733736" transform="translate(166,87)"/>
<path d="M0 0 C2.5625 0.1875 2.5625 0.1875 4.5625 2.1875 C4.00694444 6.74305556 4.00694444 6.74305556 2.5625 8.1875 C0.0625 8.3125 0.0625 8.3125 -2.4375 8.1875 C-3.4375 7.1875 -3.4375 7.1875 -3.5625 4.1875 C-3.39891479 0.26145498 -3.39891479 0.26145498 0 0 Z " fill="#DCDDD7" transform="translate(321.4375,81.8125)"/>
<path d="M0 0 C1.2065625 0.0309375 1.2065625 0.0309375 2.4375 0.0625 C3.23703138 3.34946233 3.53408936 4.77273192 2.4375 8.0625 C0.0625 8.1875 0.0625 8.1875 -2.5625 8.0625 C-3.2225 7.4025 -3.8825 6.7425 -4.5625 6.0625 C-3.83457637 0.09352625 -3.83457637 0.09352625 0 0 Z " fill="#DAE0DF" transform="translate(474.5625,81.9375)"/>
<path d="M0 0 C2.33294775 -0.04241723 4.66702567 -0.04092937 7 0 C8 1 8 1 8.0625 4.5625 C8.041875 5.696875 8.02125 6.83125 8 8 C7.01 8 6.02 8 5 8 C5 6.02 5 4.04 5 2 C4.34 2 3.68 2 3 2 C3 3.98 3 5.96 3 8 C2.01 8 1.02 8 0 8 C0 5.36 0 2.72 0 0 Z " fill="#D3E1DD" transform="translate(446,82)"/>
<path d="M0 0 C1.2065625 0.0309375 1.2065625 0.0309375 2.4375 0.0625 C3.23703138 3.34946233 3.53408936 4.77273192 2.4375 8.0625 C0.0625 8.1875 0.0625 8.1875 -2.5625 8.0625 C-3.2225 7.4025 -3.8825 6.7425 -4.5625 6.0625 C-3.83457637 0.09352625 -3.83457637 0.09352625 0 0 Z " fill="#DAE0DF" transform="translate(438.5625,81.9375)"/>
<path d="M0 0 C1.2065625 0.0309375 1.2065625 0.0309375 2.4375 0.0625 C3.23703138 3.34946233 3.53408936 4.77273192 2.4375 8.0625 C0.0625 8.1875 0.0625 8.1875 -2.5625 8.0625 C-3.2225 7.4025 -3.8825 6.7425 -4.5625 6.0625 C-3.83457637 0.09352625 -3.83457637 0.09352625 0 0 Z " fill="#DAE0DF" transform="translate(203.5625,81.9375)"/>
<path d="M0 0 C2.33294775 -0.04241723 4.66702567 -0.04092937 7 0 C8 1 8 1 8.0625 4.5625 C8.041875 5.696875 8.02125 6.83125 8 8 C7.01 8 6.02 8 5 8 C5 6.02 5 4.04 5 2 C4.34 2 3.68 2 3 2 C3 3.98 3 5.96 3 8 C2.01 8 1.02 8 0 8 C0 5.36 0 2.72 0 0 Z " fill="#DEE0D3" transform="translate(338,82)"/>
<path d="M0 0 C0.99 0.33 1.98 0.66 3 1 C4.1875 3.5625 4.1875 3.5625 5 6 C5.99 4.02 6.98 2.04 8 0 C8.99 0.33 9.98 0.66 11 1 C9.68 4.3 8.36 7.6 7 11 C6.01 11 5.02 11 4 11 C3.32880451 9.5437455 2.66318193 8.08492133 2 6.625 C1.62875 5.81289063 1.2575 5.00078125 0.875 4.1640625 C0 2 0 2 0 0 Z " fill="#1D7EA9" transform="translate(226,720)"/>
<path d="M0 0 C2.5625 0.1875 2.5625 0.1875 4.5625 2.1875 C4.1875 5.3125 4.1875 5.3125 3.5625 8.1875 C1.1875 8.3125 1.1875 8.3125 -1.4375 8.1875 C-3.4375 6.1875 -3.4375 6.1875 -3.625 3.625 C-3.37291261 0.34786389 -3.27713611 0.25208739 0 0 Z " fill="#E9E3D7" transform="translate(362.4375,81.8125)"/>
<path d="M0 0 C4.875 0.875 4.875 0.875 6 2 C6.04080783 3.99958364 6.04254356 6.00045254 6 8 C3.69 8 1.38 8 -1 8 C-1.33 6.68 -1.66 5.36 -2 4 C-1.34 3.67 -0.68 3.34 0 3 C0 2.01 0 1.02 0 0 Z " fill="#ECE8D2" transform="translate(234,82)"/>
<path d="M0 0 C1.66611905 -0.042721 3.33382885 -0.04063832 5 0 C6 1 6 1 6.0625 4.5625 C6.041875 5.696875 6.02125 6.83125 6 8 C3.69 8 1.38 8 -1 8 C-0.835 7.236875 -0.67 6.47375 -0.5 5.6875 C0.09145396 2.96403764 0.09145396 2.96403764 0 0 Z " fill="#DEE1E3" transform="translate(369,82)"/>
<path d="M0 0 C1.66611905 -0.042721 3.33382885 -0.04063832 5 0 C6 1 6 1 6.0625 4.5625 C6.041875 5.696875 6.02125 6.83125 6 8 C3.69 8 1.38 8 -1 8 C-0.835 7.236875 -0.67 6.47375 -0.5 5.6875 C0.09145396 2.96403764 0.09145396 2.96403764 0 0 Z " fill="#DEE1E3" transform="translate(331,82)"/>
<path d="M0 0 C1.66611905 -0.042721 3.33382885 -0.04063832 5 0 C6 1 6 1 6.0625 4.5625 C6.041875 5.696875 6.02125 6.83125 6 8 C4.02 8 2.04 8 0 8 C-0.98120464 4.94736336 -0.98120464 3.05263664 0 0 Z " fill="#DBE1E1" transform="translate(483,82)"/>
<path d="M0 0 C1.65 0 3.3 0 5 0 C5.33 0.66 5.66 1.32 6 2 C4.35 2 2.7 2 1 2 C1 2.66 1 3.32 1 4 C3.475 4.99 3.475 4.99 6 6 C5.125 9.875 5.125 9.875 4 11 C2.33382885 11.04063832 0.66611905 11.042721 -1 11 C-1.33 10.34 -1.66 9.68 -2 9 C-0.02 9 1.96 9 4 9 C4 8.34 4 7.68 4 7 C1.525 6.01 1.525 6.01 -1 5 C-0.67 3.35 -0.34 1.7 0 0 Z " fill="#1B81AB" transform="translate(209,720)"/>
<path d="M0 0 C2.5 0.125 2.5 0.125 3.5 1.125 C3.625 3.625 3.625 3.625 3.5 6.125 C2.5 7.125 2.5 7.125 0 7.25 C-2.5 7.125 -2.5 7.125 -3.5 6.125 C-3.625 3.625 -3.625 3.625 -3.5 1.125 C-2.5 0.125 -2.5 0.125 0 0 Z " fill="#2F3741" transform="translate(288.5,721.875)"/>
<path d="M0 0 C2.5 0.125 2.5 0.125 3.5 1.125 C3.625 3.625 3.625 3.625 3.5 6.125 C2.5 7.125 2.5 7.125 0 7.25 C-2.5 7.125 -2.5 7.125 -3.5 6.125 C-3.625 3.625 -3.625 3.625 -3.5 1.125 C-2.5 0.125 -2.5 0.125 0 0 Z " fill="#2F3741" transform="translate(144.5,721.875)"/>
<path d="M0 0 C0.66 0 1.32 0 2 0 C2.33 1.32 2.66 2.64 3 4 C4.32 3.67 5.64 3.34 7 3 C6.814375 3.763125 6.62875 4.52625 6.4375 5.3125 C5.77180827 8.08967375 5.77180827 8.08967375 7 11 C5.68 10.34 4.36 9.68 3 9 C2.67 9.66 2.34 10.32 2 11 C1.34 11 0.68 11 0 11 C0 7.37 0 3.74 0 0 Z " fill="#ECF0E8" transform="translate(164,79)"/>
<path d="M0 0 C2.5 0.125 2.5 0.125 3.5 1.125 C3.625 3.625 3.625 3.625 3.5 6.125 C2.5 7.125 2.5 7.125 0 7.25 C-2.5 7.125 -2.5 7.125 -3.5 6.125 C-3.625 3.625 -3.625 3.625 -3.5 1.125 C-2.5 0.125 -2.5 0.125 0 0 Z " fill="#545259" transform="translate(135.5,80.875)"/>
<path d="M0 0 C0.33 0.66 0.66 1.32 1 2 C-0.98 2.33 -2.96 2.66 -5 3 C-5 4.65 -5 6.3 -5 8 C-2.03 8.495 -2.03 8.495 1 9 C0.67 9.66 0.34 10.32 0 11 C-2.875 11.125 -2.875 11.125 -6 11 C-8 9 -8 9 -8.3125 5.5 C-8.209375 4.345 -8.10625 3.19 -8 2 C-4.77208445 -0.1519437 -3.71599191 -0.20086443 0 0 Z " fill="#1D7FAD" transform="translate(280,720)"/>
<path d="M0 0 C1.98 0.99 1.98 0.99 4 2 C4.33 1.34 4.66 0.68 5 0 C5.99 0.33 6.98 0.66 8 1 C6.68 4.3 5.36 7.6 4 11 C3.01 10.67 2.02 10.34 1 10 C0.67 6.7 0.34 3.4 0 0 Z " fill="#D8E6E5" transform="translate(383,82)"/>
<path d="M0 0 C1.2065625 0.0309375 1.2065625 0.0309375 2.4375 0.0625 C2.7675 1.3825 3.0975 2.7025 3.4375 4.0625 C1.7875 4.0625 0.1375 4.0625 -1.5625 4.0625 C-1.5625 4.7225 -1.5625 5.3825 -1.5625 6.0625 C0.0875 6.0625 1.7375 6.0625 3.4375 6.0625 C3.1075 6.7225 2.7775 7.3825 2.4375 8.0625 C0.77138095 8.105221 -0.89632885 8.10313832 -2.5625 8.0625 C-3.5625 7.0625 -3.5625 7.0625 -3.6875 4.0625 C-3.52180824 0.08589776 -3.52180824 0.08589776 0 0 Z " fill="#E1E7E8" transform="translate(259.5625,81.9375)"/>
<path d="M0 0 C2.31 0 4.62 0 7 0 C7 1.98 7 3.96 7 6 C4.69 6 2.38 6 0 6 C0 4.02 0 2.04 0 0 Z " fill="#178ABA" transform="translate(637,22)"/>
<path d="M0 0 C1.32 0 2.64 0 4 0 C4 1.65 4 3.3 4 5 C3.34 5 2.68 5 2 5 C2 6.98 2 8.96 2 11 C1.01 11 0.02 11 -1 11 C-2.25 3.375 -2.25 3.375 0 0 Z " fill="#DDDED0" transform="translate(245,79)"/>
<path d="M0 0 C1.98 0.99 1.98 0.99 4 2 C4 2.66 4 3.32 4 4 C4.66 4 5.32 4 6 4 C6.33 2.68 6.66 1.36 7 0 C7.99 0.33 8.98 0.66 10 1 C9.2884375 2.0828125 9.2884375 2.0828125 8.5625 3.1875 C7.05847097 5.89475226 6.43400818 7.96194275 6 11 C5.34 11 4.68 11 4 11 C3.71125 10.113125 3.4225 9.22625 3.125 8.3125 C2.16851252 5.49617576 1.13201054 2.74916844 0 0 Z " fill="#1D81AD" transform="translate(305,720)"/>
<path d="M0 0 C0.66 0 1.32 0 2 0 C2 1.98 2 3.96 2 6 C2.99 6 3.98 6 5 6 C5 4.02 5 2.04 5 0 C5.66 0 6.32 0 7 0 C7 2.64 7 5.28 7 8 C4.69 8 2.38 8 0 8 C0 5.36 0 2.72 0 0 Z " fill="#F3F1E4" transform="translate(419,82)"/>
<path d="M0 0 C0.66 0 1.32 0 2 0 C2 1.98 2 3.96 2 6 C2.99 6 3.98 6 5 6 C5 4.02 5 2.04 5 0 C5.66 0 6.32 0 7 0 C7 2.64 7 5.28 7 8 C4.69 8 2.38 8 0 8 C0 5.36 0 2.72 0 0 Z " fill="#F3F1E4" transform="translate(143,82)"/>
<path d="M0 0 C1.65 0 3.3 0 5 0 C5 2.66666667 5 5.33333333 5 8 C3.02 8 1.04 8 -1 8 C-1 7.34 -1 6.68 -1 6 C-0.34 5.67 0.32 5.34 1 5 C0.34 4.67 -0.32 4.34 -1 4 C-0.67 2.68 -0.34 1.36 0 0 Z " fill="#D5E1E6" transform="translate(280,82)"/>
<path d="M0 0 C2.31 0 4.62 0 7 0 C7 0.33 7 0.66 7 1 C5.35 1 3.7 1 2 1 C2 2.32 2 3.64 2 5 C3.32 5.33 4.64 5.66 6 6 C4.68 6 3.36 6 2 6 C2 7.32 2 8.64 2 10 C3.65 10 5.3 10 7 10 C7 10.33 7 10.66 7 11 C4.69 11 2.38 11 0 11 C0 7.37 0 3.74 0 0 Z " fill="#1A88BA" transform="translate(238,720)"/>
<path d="M0 0 C2.31 0 4.62 0 7 0 C7 0.33 7 0.66 7 1 C5.35 1 3.7 1 2 1 C2 2.32 2 3.64 2 5 C3.32 5.33 4.64 5.66 6 6 C4.68 6 3.36 6 2 6 C2 7.32 2 8.64 2 10 C3.65 10 5.3 10 7 10 C7 10.33 7 10.66 7 11 C4.69 11 2.38 11 0 11 C0 7.37 0 3.74 0 0 Z " fill="#198CB7" transform="translate(162,720)"/>
<path d="M0 0 C1.65 0 3.3 0 5 0 C5 3.11257569 4.82638376 5.10765685 4 8 C2.35 8 0.7 8 -1 8 C-1 4.88742431 -0.82638376 2.89234315 0 0 Z " fill="#E3E8E3" transform="translate(377,82)"/>
<path d="M0 0 C1.65 0 3.3 0 5 0 C5 3.11257569 4.82638376 5.10765685 4 8 C2.35 8 0.7 8 -1 8 C-1 4.88742431 -0.82638376 2.89234315 0 0 Z " fill="#E3E8E3" transform="translate(223,82)"/>
<path d="M0 0 C1.65 0 3.3 0 5 0 C5 2.66666667 5 5.33333333 5 8 C3.02 8 1.04 8 -1 8 C-1 7.34 -1 6.68 -1 6 C-0.34 5.67 0.32 5.34 1 5 C0.67 3.35 0.34 1.7 0 0 Z " fill="#E1E7E7" transform="translate(428,82)"/>
<path d="M0 0 C0.33 0 0.66 0 1 0 C1 3.63 1 7.26 1 11 C0.67 10.34 0.34 9.68 0 9 C-1.65 9 -3.3 9 -5 9 C-5 7.68 -5 6.36 -5 5 C-3.68 5 -2.36 5 -1 5 C-0.67 3.35 -0.34 1.7 0 0 Z " fill="#5E6C78" transform="translate(163,79)"/>
<path d="M0 0 C0.66 0 1.32 0 2 0 C2.33 1.32 2.66 2.64 3 4 C2.34 4 1.68 4 1 4 C1 5.65 1 7.3 1 9 C1.99 9 2.98 9 4 9 C4 9.66 4 10.32 4 11 C2.35 10.67 0.7 10.34 -1 10 C-2.25 3.375 -2.25 3.375 0 0 Z " fill="#DAE3DF" transform="translate(466,79)"/>
<path d="M0 0 C0.66 0 1.32 0 2 0 C2.33 1.32 2.66 2.64 3 4 C2.34 4 1.68 4 1 4 C1 5.65 1 7.3 1 9 C1.99 9 2.98 9 4 9 C4 9.66 4 10.32 4 11 C2.35 10.67 0.7 10.34 -1 10 C-2.25 3.375 -2.25 3.375 0 0 Z " fill="#DAE3DF" transform="translate(399,79)"/>
<path d="M0 0 C0.66 0 1.32 0 2 0 C2.33 1.32 2.66 2.64 3 4 C2.34 4 1.68 4 1 4 C1 5.65 1 7.3 1 9 C1.99 9 2.98 9 4 9 C4 9.66 4 10.32 4 11 C2.35 10.67 0.7 10.34 -1 10 C-2.25 3.375 -2.25 3.375 0 0 Z " fill="#DAE3DF" transform="translate(195,79)"/>
<path d="M0 0 C5.625 -0.25 5.625 -0.25 9 2 C9.3125 5.5 9.3125 5.5 9 9 C8.34 9.66 7.68 10.32 7 11 C6.02391783 8.07175348 5.91773332 6.04386724 6 3 C3.69 2.67 1.38 2.34 -1 2 C-0.67 1.34 -0.34 0.68 0 0 Z " fill="#EDEFE5" transform="translate(132,79)"/>
<path d="M0 0 C1.32 0 2.64 0 4 0 C4 2.64 4 5.28 4 8 C2.68 8 1.36 8 0 8 C0 5.36 0 2.72 0 0 Z " fill="#25648C" transform="translate(1172,722)"/>
<path d="M0 0 C1.2065625 0.0309375 1.2065625 0.0309375 2.4375 0.0625 C2.4375 0.7225 2.4375 1.3825 2.4375 2.0625 C1.1175 2.0625 -0.2025 2.0625 -1.5625 2.0625 C-1.5625 3.3825 -1.5625 4.7025 -1.5625 6.0625 C0.0875 6.0625 1.7375 6.0625 3.4375 6.0625 C3.1075 6.7225 2.7775 7.3825 2.4375 8.0625 C0.77138095 8.105221 -0.89632885 8.10313832 -2.5625 8.0625 C-3.5625 7.0625 -3.5625 7.0625 -3.6875 4.0625 C-3.52180824 0.08589776 -3.52180824 0.08589776 0 0 Z " fill="#E5EDEC" transform="translate(159.5625,81.9375)"/>
<path d="M0 0 C0 0.99 0 1.98 0 3 C-0.66 3 -1.32 3 -2 3 C-2 3.66 -2 4.32 -2 5 C-3.32 5 -4.64 5 -6 5 C-6 4.34 -6 3.68 -6 3 C-6.66 3 -7.32 3 -8 3 C-8 2.34 -8 1.68 -8 1 C-5.29120665 -0.35439668 -2.99066732 -0.06501451 0 0 Z " fill="#713535" transform="translate(190,90)"/>
<path d="M0 0 C1.98 0 3.96 0 6 0 C6 0.66 6 1.32 6 2 C5.01 2 4.02 2 3 2 C3 3.98 3 5.96 3 8 C2.01 8 1.02 8 0 8 C0 5.36 0 2.72 0 0 Z " fill="#D9E0DB" transform="translate(208,82)"/>
<path d="M0 0 C1.65 0 3.3 0 5 0 C4.01 0.33 3.02 0.66 2 1 C2 2.65 2 4.3 2 6 C3.32 6.33 4.64 6.66 6 7 C4.68 7 3.36 7 2 7 C2 8.32 2 9.64 2 11 C1.34 11 0.68 11 0 11 C0 7.37 0 3.74 0 0 Z " fill="#1A8CB6" transform="translate(296,720)"/>
<path d="M0 0 C1.65 0 3.3 0 5 0 C4.01 0.33 3.02 0.66 2 1 C2 2.65 2 4.3 2 6 C3.32 6.33 4.64 6.66 6 7 C4.68 7 3.36 7 2 7 C2 8.32 2 9.64 2 11 C1.34 11 0.68 11 0 11 C0 7.37 0 3.74 0 0 Z " fill="#1A8CB6" transform="translate(152,720)"/>
<path d="M0 0 C2.31 0.33 4.62 0.66 7 1 C7 1.66 7 2.32 7 3 C6.34 3 5.68 3 5 3 C5 3.66 5 4.32 5 5 C3.68 5 2.36 5 1 5 C1 4.34 1 3.68 1 3 C0.34 3 -0.32 3 -1 3 C-0.67 2.01 -0.34 1.02 0 0 Z " fill="#733434" transform="translate(201,90)"/>
<path d="M0 0 C0.66 0 1.32 0 2 0 C2.67119549 1.4562545 3.33681807 2.91507867 4 4.375 C4.556875 5.59316406 4.556875 5.59316406 5.125 6.8359375 C6 9 6 9 6 11 C5.01 10.67 4.02 10.34 3 10 C3 9.34 3 8.68 3 8 C1.68 7.67 0.36 7.34 -1 7 C-0.01 7 0.98 7 2 7 C1.34 4.69 0.68 2.38 0 0 Z " fill="#1985AA" transform="translate(221,720)"/>
<path d="M0 0 C1.98 0.495 1.98 0.495 4 1 C4 2.32 4 3.64 4 5 C3.01 5.33 2.02 5.66 1 6 C0.34 5.67 -0.32 5.34 -1 5 C-0.67 3.35 -0.34 1.7 0 0 Z " fill="#2D3C42" transform="translate(1218,722)"/>
<path d="M0 0 C1.32 0 2.64 0 4 0 C4 0.66 4 1.32 4 2 C3.01 2 2.02 2 1 2 C1 3.32 1 4.64 1 6 C2.32 6.33 3.64 6.66 5 7 C5 7.33 5 7.66 5 8 C3.33388095 8.042721 1.66617115 8.04063832 0 8 C-1 7 -1 7 -1.125 4 C-1 1 -1 1 0 0 Z " fill="#E5EEED" transform="translate(348,82)"/>
<path d="M0 0 C-0.33 0.99 -0.66 1.98 -1 3 C-2.65 3 -4.3 3 -6 3 C-6.33 3.99 -6.66 4.98 -7 6 C-8.98 6 -10.96 6 -13 6 C-13 5.34 -13 4.68 -13 4 C-11.35 4 -9.7 4 -8 4 C-8 3.34 -8 2.68 -8 2 C-4.77208445 -0.1519437 -3.71599191 -0.20086443 0 0 Z " fill="#C6C6BE" transform="translate(271,82)"/>
<path d="M0 0 C0.66 0 1.32 0 2 0 C2 3.63 2 7.26 2 11 C0.68 10.34 -0.64 9.68 -2 9 C-2 8.34 -2 7.68 -2 7 C-1.34 7 -0.68 7 0 7 C0 4.69 0 2.38 0 0 Z " fill="#F7F8EA" transform="translate(181,79)"/>
<path d="M0 0 C0.99 0.66 1.98 1.32 3 2 C2.67 3.65 2.34 5.3 2 7 C0.68 6.67 -0.64 6.34 -2 6 C-1.125 1.125 -1.125 1.125 0 0 Z " fill="#2D3E47" transform="translate(720,36)"/>
<path d="M0 0 C2 1.1875 2 1.1875 4 3 C4.25 5.6875 4.25 5.6875 4 8 C2.68 8 1.36 8 0 8 C0 5.36 0 2.72 0 0 Z " fill="#673F44" transform="translate(166,87)"/>
<path d="M0 0 C2 2 2 2 2.4375 4 C2.87458708 6.38640738 2.87458708 6.38640738 6 8 C4.68 8 3.36 8 2 8 C2 8.99 2 9.98 2 11 C1.34 11 0.68 11 0 11 C0 7.37 0 3.74 0 0 Z " fill="#F7F8ED" transform="translate(305,82)"/>
<path d="M0 0 C2.19191368 2.19191368 2.27869352 3.11477408 3 6 C3.66 6.66 4.32 7.32 5 8 C4.01 8 3.02 8 2 8 C2 8.99 2 9.98 2 11 C1.34 11 0.68 11 0 11 C0 7.37 0 3.74 0 0 Z " fill="#F0FDF4" transform="translate(500,82)"/>
<path d="M0 0 C2.19191368 2.19191368 2.27869352 3.11477408 3 6 C3.66 6.66 4.32 7.32 5 8 C4.01 8 3.02 8 2 8 C2 8.99 2 9.98 2 11 C1.34 11 0.68 11 0 11 C0 7.37 0 3.74 0 0 Z " fill="#F0FDF4" transform="translate(491,82)"/>
<path d="M0 0 C0.33 0 0.66 0 1 0 C1 2.64 1 5.28 1 8 C2.65 8 4.3 8 6 8 C5.01 8.495 5.01 8.495 4 9 C3.67 9.99 3.34 10.98 3 12 C2.34 12 1.68 12 1 12 C1 11.01 1 10.02 1 9 C0.34 9 -0.32 9 -1 9 C-0.67 6.03 -0.34 3.06 0 0 Z " fill="#476270" transform="translate(142,82)"/>
<path d="M0 0 C0.99 0 1.98 0 3 0 C3 2.64 3 5.28 3 8 C2.01 8 1.02 8 0 8 C0 5.36 0 2.72 0 0 Z " fill="#D8DFD8" transform="translate(218,82)"/>
<path d="M0 0 C0.99 0.33 1.98 0.66 3 1 C3 3.31 3 5.62 3 8 C2.01 8 1.02 8 0 8 C0 5.36 0 2.72 0 0 Z " fill="#D7E2DE" transform="translate(291,82)"/>
<path d="M0 0 C1.65 0 3.3 0 5 0 C5 0.66 5 1.32 5 2 C4.01 2 3.02 2 2 2 C2 3.98 2 5.96 2 8 C1.34 8 0.68 8 0 8 C0 5.36 0 2.72 0 0 Z " fill="#F2F2E5" transform="translate(250,82)"/>
<path d="M0 0 C0.99 0.33 1.98 0.66 3 1 C3.6875 3.0625 3.6875 3.0625 4 5 C2.35 5 0.7 5 -1 5 C-1.33 3.68 -1.66 2.36 -2 1 C-1.34 0.67 -0.68 0.34 0 0 Z " fill="#C5CFD3" transform="translate(234,85)"/>
<path d="M0 0 C1.2065625 0.0309375 1.2065625 0.0309375 2.4375 0.0625 C2.4375 1.0525 2.4375 2.0425 2.4375 3.0625 C0.7875 3.0625 -0.8625 3.0625 -2.5625 3.0625 C-2.8925 4.0525 -3.2225 5.0425 -3.5625 6.0625 C-3.605221 4.39638095 -3.60313832 2.72867115 -3.5625 1.0625 C-2.5625 0.0625 -2.5625 0.0625 0 0 Z " fill="#CEDCDE" transform="translate(362.5625,81.9375)"/>
<path d="M0 0 C1.66611905 -0.042721 3.33382885 -0.04063832 5 0 C6 1 6 1 6.0625 4.5625 C6.041875 5.696875 6.02125 6.83125 6 8 C5.67 8 5.34 8 5 8 C4.67 6.35 4.34 4.7 4 3 C2.35 2.67 0.7 2.34 -1 2 C-0.67 1.34 -0.34 0.68 0 0 Z " fill="#E5DAC3" transform="translate(369,82)"/>
<path d="M0 0 C1.66611905 -0.042721 3.33382885 -0.04063832 5 0 C6 1 6 1 6.0625 4.5625 C6.041875 5.696875 6.02125 6.83125 6 8 C5.67 8 5.34 8 5 8 C4.67 6.35 4.34 4.7 4 3 C2.35 2.67 0.7 2.34 -1 2 C-0.67 1.34 -0.34 0.68 0 0 Z " fill="#E5DAC3" transform="translate(331,82)"/>
<path d="M0 0 C2.31 0.66 4.62 1.32 7 2 C7 2.33 7 2.66 7 3 C4.36 3.66 1.72 4.32 -1 5 C-0.67 3.35 -0.34 1.7 0 0 Z " fill="#21719F" transform="translate(217,726)"/>
</svg>
