<?xml version="1.0" encoding="UTF-8"?>
<svg version="1.1" xmlns="http://www.w3.org/2000/svg" width="1366" height="768">
<path d="M0 0 C450.78 0 901.56 0 1366 0 C1366 253.44 1366 506.88 1366 768 C915.22 768 464.44 768 0 768 C0 514.56 0 261.12 0 0 Z " fill="#232323" transform="translate(0,0)"/>
<path d="M0 0 C131.67 0 263.34 0 399 0 C399 253.44 399 506.88 399 768 C267.33 768 135.66 768 0 768 C0 514.56 0 261.12 0 0 Z " fill="#FEFEFE" transform="translate(0,0)"/>
<path d="M0 0 C319.11 0 638.22 0 967 0 C967 253.44 967 506.88 967 768 C647.89 768 328.78 768 0 768 C0 745.56 0 723.12 0 700 C10.50661469 699.99413376 21.01322937 699.98826752 31.83822632 699.98222351 C38.96608991 699.97814119 46.09395348 699.97404508 53.22181702 699.96986389 C54.14772314 699.96932085 55.07362927 699.96877781 56.02759316 699.96821831 C117.3111761 699.93222075 178.59475444 699.89266932 239.87832642 699.84101868 C241.0608201 699.84002311 242.24331378 699.83902754 243.46164061 699.83800181 C269.15735904 699.81634576 294.85307686 699.79402325 320.54879411 699.77101372 C333.14906576 699.75973471 345.74933753 699.74860306 358.34960938 699.73754883 C359.60352088 699.73644626 360.85743238 699.7353437 362.1493412 699.73420772 C402.82837668 699.69850772 443.50741133 699.67254698 484.18645687 699.65161031 C525.97223585 699.63005279 567.75799629 699.59872267 609.54375825 699.55500887 C615.43901933 699.54884618 621.33428051 699.54279578 627.22954178 699.53681374 C628.38987019 699.53563285 629.55019859 699.53445197 630.74568847 699.53323531 C649.46097495 699.5144778 668.17625256 699.50609257 686.89154729 699.50153876 C705.68419966 699.49674649 724.47681798 699.48113985 743.26945208 699.45433434 C754.44907242 699.43872093 765.62862568 699.43155893 776.80825634 699.43623071 C784.26284521 699.4385313 791.71737037 699.43008886 799.17193917 699.41267589 C803.42804952 699.40304866 807.68401913 699.39831484 811.94013552 699.40660437 C815.80444913 699.41403948 819.66848426 699.40793275 823.53276379 699.39055933 C824.92934866 699.38673618 826.32595835 699.38804643 827.72253191 699.39484399 C829.60564653 699.40329516 831.48882006 699.39176075 833.37191045 699.37900752 C834.41854044 699.37822762 835.46517043 699.37744771 836.54351648 699.37664418 C837.35415604 699.2523516 838.1647956 699.12805902 839 699 C841.08768681 695.86846978 841.25020795 695.18051526 841.251849 691.62218755 C841.25974389 690.26901478 841.25974389 690.26901478 841.26779827 688.88850519 C841.26120355 687.39711044 841.26120355 687.39711044 841.25447559 685.87558651 C841.25768207 684.81749062 841.26088855 683.75939472 841.26419219 682.66923532 C841.27256019 679.08786237 841.26654424 675.5066537 841.26069641 671.92527771 C841.26371399 669.34611257 841.26760147 666.76694833 841.27228898 664.18778569 C841.28107256 658.56173591 841.28235546 652.93572252 841.27878571 647.30966759 C841.27349143 638.94377235 841.27956106 630.5779125 841.28786864 622.21202111 C841.30313404 606.40408131 841.30481115 590.5961575 841.30234561 574.78821187 C841.30051529 562.58530296 841.30226705 550.3823993 841.30657005 538.17949104 C841.30717244 536.4283629 841.30777364 534.67723476 841.30837366 532.92610662 C841.30928087 530.28757168 841.31018954 527.64903673 841.31110601 525.01050179 C841.31953924 500.46953013 841.32386862 475.92856045 841.31969929 451.38758755 C841.31954291 450.46184837 841.31938654 449.53610919 841.31922542 448.58231731 C841.3184196 443.88994241 841.31757383 439.19756752 841.31671212 434.50519263 C841.31654103 433.57321475 841.31636994 432.64123688 841.31619367 431.68101725 C841.31584702 429.79633118 841.31549849 427.91164511 841.31514808 426.02695904 C841.30978875 396.68959167 841.31772582 367.35225434 841.33618164 338.01489258 C841.35687587 305.08051213 841.36762939 272.14615029 841.36360615 239.21176296 C841.36321078 235.70340638 841.36284924 232.19504979 841.36250877 228.68669319 C841.36241804 227.82279849 841.36232731 226.95890378 841.36223383 226.06883045 C841.36106564 213.00161787 841.36773289 199.93442401 841.37832069 186.86721611 C841.39034181 172.01557835 841.39196737 157.16398199 841.37953053 142.31234365 C841.37287582 133.99212857 841.37459273 125.67201234 841.38811904 117.35180506 C841.39727399 111.15476752 841.39091009 104.95784035 841.37827124 98.76081098 C841.37559634 96.24203929 841.37807699 93.72325623 841.38600711 91.2044956 C841.39598185 87.80233568 841.38780468 84.40070974 841.37473011 80.99857235 C841.38569413 79.50366585 841.38569413 79.50366585 841.39687964 77.97855923 C841.38962531 77.07894756 841.38237098 76.1793359 841.37489682 75.25246328 C841.37492752 74.08408337 841.37492752 74.08408337 841.37495883 72.89209982 C841.25122242 72.26770688 841.127486 71.64331394 841 71 C837.55732144 68.70488096 836.30641427 68.74881935 832.25412399 68.74519098 C830.44220574 68.73629897 830.44220574 68.73629897 828.59368309 68.72722733 C827.24362158 68.73073904 825.89356053 68.73443233 824.54349995 68.73828697 C823.11085267 68.73510164 821.67820712 68.73104006 820.24556455 68.72617769 C816.28173273 68.71529347 812.3179874 68.71695166 808.35414584 68.72052841 C804.05208576 68.72222752 799.75005016 68.71238845 795.44800013 68.70397437 C787.89925905 68.69081767 780.35054041 68.68511453 772.80178833 68.68421364 C761.57697976 68.68284065 750.35220466 68.67007557 739.12740726 68.6549259 C720.24781718 68.62977 701.3682299 68.61392804 682.48862648 68.60334396 C663.788027 68.59282998 645.08743822 68.57820716 626.38684654 68.55806351 C624.64451797 68.55619021 624.64451797 68.55619021 622.86699084 68.55427906 C616.96836001 68.54791555 611.06972927 68.54147831 605.17109855 68.53501268 C563.36122297 68.48931659 521.55134392 68.45288328 479.74145508 68.421875 C439.11677542 68.39172459 398.49210283 68.35739237 357.86743164 68.31738281 C356.61580736 68.31615181 355.36418309 68.31492081 354.07463081 68.3136525 C341.50562045 68.30128594 328.93661018 68.28883419 316.36759998 68.27632002 C290.76172464 68.2508278 265.15584876 68.22590427 239.54997253 68.20132446 C238.37258469 68.20019355 237.19519684 68.19906264 235.98213057 68.19789747 C175.03717466 68.13940891 114.09221218 68.08936409 53.14724731 68.04124451 C52.28969401 68.04056736 51.4321407 68.03989022 50.54860093 68.03919255 C33.69906746 68.02590293 16.84953371 68.01298718 0 68 C0 45.56 0 23.12 0 0 Z " fill="#171A1B" transform="translate(399,0)"/>
<path d="M0 0 C1.88444304 -0.00761181 1.88444304 -0.00761181 3.80695564 -0.0153774 C5.20888503 -0.01597909 6.61081448 -0.01647817 8.01274395 -0.01688576 C9.49598626 -0.02090001 10.97922748 -0.02533817 12.46246737 -0.03016531 C16.54867143 -0.04214045 20.63486368 -0.04778142 24.72108185 -0.05234647 C29.12405589 -0.05829886 33.52701578 -0.06990947 37.92998028 -0.08063698 C48.56733142 -0.10516711 59.20468725 -0.11978789 69.84205797 -0.13269705 C72.84530045 -0.13640817 75.84854246 -0.14038145 78.85178447 -0.14444971 C97.49298439 -0.16968254 116.13418502 -0.19174025 134.77539825 -0.20417786 C139.09382728 -0.20710765 143.41225627 -0.2100693 147.73068523 -0.21308327 C148.80403618 -0.21382932 149.87738714 -0.21457537 150.98326387 -0.21534403 C168.38049237 -0.22800436 185.77761883 -0.26123644 203.1747996 -0.3028851 C221.02686015 -0.34527331 238.87886839 -0.36886918 256.73097914 -0.37409842 C266.7581045 -0.37751579 276.78507029 -0.38930954 286.81214619 -0.42220116 C295.34948718 -0.45015989 303.88663591 -0.46121934 312.42401914 -0.4500057 C316.78128529 -0.44480855 321.13814857 -0.44777395 325.49535656 -0.47247124 C329.48343968 -0.49488804 333.47082876 -0.49428355 337.45892342 -0.47526737 C338.90241284 -0.47245667 340.34594856 -0.47812516 341.78936324 -0.4930803 C353.92353505 -0.61112533 353.92353505 -0.61112533 357.86088371 2.5500145 C362.36261875 7.93051793 361.39718983 14.34075519 361.48532391 21.05742455 C361.51189895 22.60363864 361.55279105 24.14967651 361.60837078 25.69511986 C361.6878207 27.93168298 361.72067557 30.16486906 361.74411297 32.40263939 C361.77710491 33.08723228 361.81009686 33.77182518 361.84408855 34.47716331 C361.82824036 38.31609266 361.04327573 40.66808111 358.3809309 43.31931496 C352.86891524 47.75761524 346.26385256 46.9668506 339.52572918 46.89891624 C338.03560977 46.90583331 336.5455006 46.91536509 335.05541277 46.92727971 C330.96849484 46.95230732 326.88241845 46.93995708 322.79549766 46.9213624 C318.38502657 46.90778456 313.97469999 46.92874218 309.56425762 46.94524193 C300.92732509 46.97192469 292.29070536 46.96615777 283.65376055 46.94876608 C276.63451007 46.93521688 269.61534726 46.93337758 262.59608746 46.93990898 C261.59715154 46.94082838 260.59821562 46.94174778 259.56900892 46.94269504 C257.53970275 46.94461338 255.5103966 46.94655866 253.48109049 46.94853058 C234.45131863 46.96564072 215.42172019 46.94596655 196.39197677 46.91372839 C180.06281684 46.88692172 163.73391282 46.89157784 147.4047575 46.91924095 C128.4431911 46.95134856 109.48177669 46.96399276 90.5201869 46.94556737 C88.49833745 46.94365607 86.47648798 46.94176985 84.45463848 46.93990898 C83.45984457 46.93898333 82.46505067 46.93805768 81.44011149 46.93710397 C74.42911878 46.93192297 67.41822246 46.94066872 60.40724468 46.9547863 C51.86336877 46.97161237 43.31982361 46.96706489 34.7759856 46.93510184 C30.41651097 46.91933039 26.05758783 46.91316202 21.69811726 46.93299675 C17.70689863 46.9508814 13.71674237 46.94104411 9.72562009 46.90913144 C8.2822526 46.90243139 6.83879527 46.90583459 5.39548558 46.92038617 C-6.71828834 47.03314589 -6.71828834 47.03314589 -11.32623768 43.31534767 C-13.71569301 40.92896078 -14.00887924 39.99537791 -14.84866047 36.52178001 C-14.84382648 35.20886986 -14.8389925 33.8959597 -14.83401203 32.54326439 C-14.83596577 31.83351463 -14.8379195 31.12376488 -14.83993244 30.39250755 C-14.83595225 28.89981347 -14.81481433 27.40707612 -14.77737141 25.91484642 C-14.72474581 23.64171311 -14.73621552 21.37539327 -14.75588703 19.10185814 C-14.662343 7.56645253 -14.662343 7.56645253 -11.61623859 3.72490501 C-7.80993441 -0.00400666 -5.12448842 0.01096522 0 0 Z " fill="#FEFEFE" transform="translate(25.974637031555176,166.8629856109619)"/>
<path d="M0 0 C79.83587178 -0.05139685 159.67174555 -0.09909824 239.50762939 -0.12702942 C240.68843723 -0.12744359 241.86924506 -0.12785776 243.08583495 -0.12828448 C268.74538349 -0.13726233 294.4049322 -0.145573 320.06448118 -0.15319599 C332.64715416 -0.15693814 345.22982709 -0.16082778 357.8125 -0.16479492 C359.06465514 -0.1651872 360.31681028 -0.16557948 361.60690952 -0.16598364 C402.22347339 -0.17877724 442.84002478 -0.20131828 483.45658108 -0.22889166 C525.18078394 -0.25716567 566.90497989 -0.27565081 608.62919217 -0.28174497 C614.51678456 -0.28260949 620.40437693 -0.2835864 626.2919693 -0.28463173 C628.03018492 -0.28493513 628.03018492 -0.28493513 629.803516 -0.28524467 C648.48866264 -0.2887956 667.17378795 -0.30272531 685.85892588 -0.3204961 C704.62471484 -0.33812356 723.39048258 -0.34491256 742.15627953 -0.34050413 C753.31771659 -0.33821514 764.4790762 -0.34437006 775.64049933 -0.36239263 C783.08550075 -0.37359739 790.53045113 -0.37402282 797.97545599 -0.36549544 C802.22446614 -0.36094286 806.47332927 -0.36125486 810.72232398 -0.37464955 C814.58251277 -0.38672676 818.44243883 -0.3851712 822.30262324 -0.37241993 C823.69548383 -0.37026507 825.08836331 -0.37321505 826.48119968 -0.38170573 C828.36408001 -0.39246218 830.24704366 -0.38308486 832.12992549 -0.37259549 C833.17499567 -0.37306343 834.22006585 -0.37353137 835.29680483 -0.37401349 C838.4419889 0.06115349 839.8163093 0.70374342 842 3 C842.50010267 5.01629832 842.50010267 5.01629832 842.50024599 7.37551111 C842.51488276 8.7279152 842.51488276 8.7279152 842.52981523 10.10764059 C842.51533946 11.5981778 842.51533946 11.5981778 842.50057125 13.11882687 C842.5088425 14.70507192 842.5088425 14.70507192 842.51728085 16.32336232 C842.53098576 19.90289395 842.51591941 23.48174427 842.50120544 27.06126404 C842.50509436 29.63900579 842.51073149 32.2167454 842.51797634 34.79447991 C842.53091434 40.41751087 842.52889125 46.04038448 842.51719666 51.66341591 C842.49985417 60.02489321 842.50529841 68.38624612 842.51536357 76.74772975 C842.53258281 91.67905281 842.52699739 106.61030262 842.51200638 121.5416242 C842.49897117 134.60863315 842.49375542 147.67561664 842.49632454 160.74263191 C842.49656516 162.04115194 842.49656516 162.04115194 842.49681065 163.3659047 C842.4974742 166.87970787 842.4981766 170.39351104 842.49893599 173.90731419 C842.50596537 206.89235661 842.49045107 239.8773542 842.46431253 272.8623852 C842.44119828 302.18634706 842.43580797 331.51025961 842.44604492 360.83422852 C842.4486468 368.34190843 842.45123177 375.84958835 842.45364285 383.35726833 C842.45394029 384.28146722 842.45423774 385.20566611 842.4545442 386.15787102 C842.4621544 410.63860265 842.45575108 435.11933022 842.44494683 459.60006005 C842.44379899 462.23338938 842.44265581 464.86671872 842.44152 467.50004807 C842.44076475 469.24703419 842.43999911 470.99402032 842.43922299 472.74100644 C842.43355768 485.80111645 842.43489935 498.86121371 842.43945122 511.92132378 C842.44455205 526.76778696 842.43873722 541.61420235 842.41855692 556.4606536 C842.4075458 564.77599935 842.40480022 573.09125118 842.41384545 581.40659985 C842.41965616 587.6035767 842.40988326 593.80043447 842.3938458 599.99739123 C842.38977862 602.51350382 842.39083879 605.02963062 842.39736467 607.54573803 C842.40544066 610.94912808 842.39529323 614.35197711 842.38031673 617.75533199 C842.39042321 619.24235745 842.39042321 619.24235745 842.40073386 620.75942382 C842.39296708 621.66353007 842.3852003 622.56763632 842.37719816 623.49913973 C842.37677114 624.27774771 842.37634413 625.05635569 842.37590417 625.85855785 C841.87718304 628.69966079 841.09033302 630.00780781 839 632 C836.41884531 632.49868466 836.41884531 632.49868466 833.24771196 632.49679399 C832.03833304 632.50578316 830.82895413 632.51477233 829.58292738 632.5240339 C828.23124307 632.51376999 826.87956149 632.50314227 825.52788258 632.49219131 C824.09352749 632.49514806 822.65917512 632.49986047 821.2248309 632.50617731 C817.25614382 632.51850803 813.28786355 632.50570859 809.31920663 632.48906477 C805.01201344 632.47537463 800.70486316 632.48480219 796.39766186 632.49137473 C788.83986547 632.49968698 781.28219475 632.49306533 773.72441292 632.4768219 C762.48619846 632.45273525 751.24806365 632.45147369 740.00982809 632.45498985 C721.10767155 632.46025238 702.20557084 632.44685361 683.30343056 632.42292023 C664.58050575 632.39927438 645.85760417 632.38386095 627.13466454 632.37950897 C625.39025644 632.37909653 625.39025644 632.37909653 623.61060778 632.37867576 C617.70493699 632.37732248 611.79926619 632.37611693 605.89359536 632.37496826 C564.03378406 632.36656046 522.17400316 632.3395939 480.31420898 632.30175781 C439.64103355 632.26503664 398.96786642 632.23669408 358.29467773 632.21972656 C357.0415594 632.21920046 355.78844107 632.21867435 354.49734946 632.21813231 C341.91333584 632.21285835 329.32932216 632.20775508 316.74530843 632.20277687 C291.10886627 632.19263127 265.47242465 632.18134626 239.83598328 632.16937256 C238.65718994 632.1688234 237.4783966 632.16827424 236.26388226 632.16770844 C157.5092422 632.13088868 78.75461899 632.0675059 0 632 C0 631.34 0 630.68 0 630 C0.72733249 629.99928786 1.45466498 629.99857571 2.20403784 629.99784199 C81.34758121 629.92031581 160.49112332 629.84156034 239.63465881 629.7563324 C240.81588082 629.75506072 241.99710282 629.75378904 243.21411943 629.75247882 C268.88197226 629.72483789 294.54982484 629.69697492 320.21767717 629.66888306 C332.80421638 629.65510923 345.39075564 629.64138449 357.97729492 629.62768555 C359.22984234 629.62632146 360.48238976 629.62495738 361.77289316 629.62355196 C402.41041718 629.57931879 443.04794369 629.53833068 483.68547274 629.49901587 C525.42729835 629.45861565 567.1691193 629.4149606 608.91093714 629.36717889 C614.79949173 629.36043981 620.68804637 629.35373814 626.57660103 629.34705925 C627.73561371 629.34574352 628.89462639 629.34442779 630.08876066 629.3430722 C648.78564562 629.32194363 667.48253234 629.30427139 686.17942198 629.28787469 C704.95188072 629.27133857 723.7243328 629.25120167 742.49678367 629.22733159 C753.66548599 629.21324104 764.83418311 629.20196885 776.00289196 629.19463562 C783.44891758 629.18947552 790.89493327 629.18074044 798.34095143 629.16901226 C802.59296177 629.16241985 806.84495777 629.1574633 811.09697353 629.15683801 C814.95634505 629.1562401 818.81568202 629.15114333 822.67504317 629.14227938 C824.07099536 629.13989343 825.46695166 629.13922331 826.86290542 629.1403735 C828.74277963 629.14168539 830.6226551 629.13636003 832.50252098 629.13061053 C834.07082817 629.12897273 834.07082817 629.12897273 835.67081833 629.12730185 C837.96044463 629.26204322 837.96044463 629.26204322 839 628 C839.09723173 626.62808839 839.12522942 625.25119876 839.12534916 623.87584591 C839.12785268 622.97940251 839.1303562 622.08295911 839.13293558 621.15935075 C839.13059442 620.16115206 839.12825325 619.16295336 839.12584114 618.13450623 C839.12729458 617.0801068 839.12874802 616.02570737 839.13024551 614.93935645 C839.13393396 611.35856411 839.13040601 607.7778136 839.12698364 604.19702148 C839.12813434 601.62299547 839.12972151 599.04896962 839.13171089 596.47494411 C839.13533534 590.85395826 839.13520521 585.232982 839.13266373 579.6119957 C839.12889476 571.25365128 839.13080792 562.895315 839.13387203 554.53697065 C839.13914921 539.6124776 839.13867684 524.68798882 839.13579312 509.76349536 C839.13328185 496.70315945 839.13261886 483.64282511 839.13381577 470.58248901 C839.13389215 469.71762249 839.13396854 468.85275596 839.13404724 467.96168136 C839.13435855 464.45128879 839.13467695 460.94089623 839.135007 457.43050366 C839.13806898 424.4711919 839.13528782 391.51188286 839.1299101 358.55257152 C839.12516417 329.24240299 839.12558878 299.9322388 839.13037109 270.62207031 C839.1357207 237.72470692 839.13785186 204.82734595 839.13475883 171.92998219 C839.13443809 168.42582512 839.13412525 164.92166805 839.13381577 161.41751099 C839.13373669 160.55463901 839.13365761 159.69176703 839.13357614 158.80274742 C839.13243659 145.74763784 839.1337728 132.69253 839.13629532 119.63742065 C839.13914792 104.79962473 839.13845402 89.96183376 839.13301457 75.12403846 C839.13006772 66.81032059 839.12990177 58.49661345 839.13366075 50.18289585 C839.13615207 43.99239873 839.13347059 37.80191439 839.12868617 31.61141884 C839.12756076 29.09395112 839.12815588 26.57648198 839.13056196 24.05901515 C839.13356262 20.66115355 839.13052493 17.26335212 839.12584114 13.86549377 C839.12818231 12.86729508 839.13052347 11.86909639 839.13293558 10.84064925 C839.12918031 9.49598414 839.12918031 9.49598414 839.12534916 8.12415409 C839.1252814 7.34587853 839.12521365 6.56760298 839.12514383 5.76574332 C839.19195365 3.97350431 839.19195365 3.97350431 838 3 C836.16972154 2.8999658 834.33553009 2.8713037 832.50252098 2.86938947 C831.29907007 2.86570876 830.09561916 2.86202805 828.85570005 2.85823581 C827.50033183 2.85918166 826.14496368 2.86021805 824.7895956 2.8613348 C823.35928068 2.85889012 821.92896645 2.85600708 820.4986532 2.85272202 C816.53199121 2.84490264 812.56534699 2.84337793 808.59867823 2.8427946 C804.29700961 2.84107406 799.99535059 2.83359357 795.6936875 2.82681805 C788.14252577 2.81572974 780.59136742 2.80837711 773.04019928 2.80341911 C761.81176069 2.79603 750.58333387 2.78295085 739.35490219 2.76867336 C720.46996691 2.74482302 701.58502955 2.72563564 682.70008659 2.70907402 C663.99225516 2.6926526 645.28442763 2.67417814 626.57660103 2.65294075 C625.41491117 2.65162314 624.2532213 2.65030554 623.05632872 2.648948 C617.15708001 2.64224624 611.25783134 2.63550759 605.35858268 2.62875474 C563.53650356 2.58094757 521.7144208 2.53777526 479.89233398 2.49731445 C439.25398494 2.45798829 398.61563891 2.41657154 357.97729492 2.37231445 C356.72540759 2.37095192 355.47352027 2.36958939 354.18369696 2.36818558 C341.6121274 2.35450061 329.04055789 2.34077303 316.46898841 2.32701423 C290.85754548 2.29898508 265.24610224 2.27124038 239.63465881 2.2436676 C237.86816517 2.2417653 237.86816517 2.2417653 236.06598479 2.23982458 C157.37732809 2.1551191 78.68866453 2.07704546 0 2 C0 1.34 0 0.68 0 0 Z " fill="#0A455C" transform="translate(399,68)"/>
<path d="M0 0 C1.88444304 -0.00761181 1.88444304 -0.00761181 3.80695564 -0.0153774 C5.20888503 -0.01597909 6.61081448 -0.01647817 8.01274395 -0.01688576 C9.49598626 -0.02090001 10.97922748 -0.02533817 12.46246737 -0.03016531 C16.54867143 -0.04214045 20.63486368 -0.04778142 24.72108185 -0.05234647 C29.12405589 -0.05829886 33.52701578 -0.06990947 37.92998028 -0.08063698 C48.56733142 -0.10516711 59.20468725 -0.11978789 69.84205797 -0.13269705 C72.84530045 -0.13640817 75.84854246 -0.14038145 78.85178447 -0.14444971 C97.49298439 -0.16968254 116.13418502 -0.19174025 134.77539825 -0.20417786 C139.09382728 -0.20710765 143.41225627 -0.2100693 147.73068523 -0.21308327 C148.80403618 -0.21382932 149.87738714 -0.21457537 150.98326387 -0.21534403 C168.38049237 -0.22800436 185.77761883 -0.26123644 203.1747996 -0.3028851 C221.02686015 -0.34527331 238.87886839 -0.36886918 256.73097914 -0.37409842 C266.7581045 -0.37751579 276.78507029 -0.38930954 286.81214619 -0.42220116 C295.34948718 -0.45015989 303.88663591 -0.46121934 312.42401914 -0.4500057 C316.78128529 -0.44480855 321.13814857 -0.44777395 325.49535656 -0.47247124 C329.48343968 -0.49488804 333.47082876 -0.49428355 337.45892342 -0.47526737 C338.90241284 -0.47245667 340.34594856 -0.47812516 341.78936324 -0.4930803 C353.92353505 -0.61112533 353.92353505 -0.61112533 357.86088371 2.5500145 C362.36261875 7.93051793 361.39718983 14.34075519 361.48532391 21.05742455 C361.51189895 22.60363864 361.55279105 24.14967651 361.60837078 25.69511986 C361.6878207 27.93168298 361.72067557 30.16486906 361.74411297 32.40263939 C361.77710491 33.08723228 361.81009686 33.77182518 361.84408855 34.47716331 C361.82824036 38.31609266 361.04327573 40.66808111 358.3809309 43.31931496 C352.86891524 47.75761524 346.26385256 46.9668506 339.52572918 46.89891624 C338.03560977 46.90583331 336.5455006 46.91536509 335.05541277 46.92727971 C330.96849484 46.95230732 326.88241845 46.93995708 322.79549766 46.9213624 C318.38502657 46.90778456 313.97469999 46.92874218 309.56425762 46.94524193 C300.92732509 46.97192469 292.29070536 46.96615777 283.65376055 46.94876608 C276.63451007 46.93521688 269.61534726 46.93337758 262.59608746 46.93990898 C261.59715154 46.94082838 260.59821562 46.94174778 259.56900892 46.94269504 C257.53970275 46.94461338 255.5103966 46.94655866 253.48109049 46.94853058 C234.45131863 46.96564072 215.42172019 46.94596655 196.39197677 46.91372839 C180.06281684 46.88692172 163.73391282 46.89157784 147.4047575 46.91924095 C128.4431911 46.95134856 109.48177669 46.96399276 90.5201869 46.94556737 C88.49833745 46.94365607 86.47648798 46.94176985 84.45463848 46.93990898 C83.45984457 46.93898333 82.46505067 46.93805768 81.44011149 46.93710397 C74.42911878 46.93192297 67.41822246 46.94066872 60.40724468 46.9547863 C51.86336877 46.97161237 43.31982361 46.96706489 34.7759856 46.93510184 C30.41651097 46.91933039 26.05758783 46.91316202 21.69811726 46.93299675 C17.70689863 46.9508814 13.71674237 46.94104411 9.72562009 46.90913144 C8.2822526 46.90243139 6.83879527 46.90583459 5.39548558 46.92038617 C-6.71828834 47.03314589 -6.71828834 47.03314589 -11.32623768 43.31534767 C-13.71569301 40.92896078 -14.00887924 39.99537791 -14.84866047 36.52178001 C-14.84382648 35.20886986 -14.8389925 33.8959597 -14.83401203 32.54326439 C-14.83596577 31.83351463 -14.8379195 31.12376488 -14.83993244 30.39250755 C-14.83595225 28.89981347 -14.81481433 27.40707612 -14.77737141 25.91484642 C-14.72474581 23.64171311 -14.73621552 21.37539327 -14.75588703 19.10185814 C-14.662343 7.56645253 -14.662343 7.56645253 -11.61623859 3.72490501 C-7.80993441 -0.00400666 -5.12448842 0.01096522 0 0 Z M-7.82333803 6.47017992 C-9.67980876 9.15795209 -9.36416394 11.66901904 -9.37307453 14.88701439 C-9.37594471 15.54153587 -9.37881489 16.19605736 -9.38177204 16.87041283 C-9.38381071 18.25225758 -9.37829449 19.63413132 -9.36575031 21.01592064 C-9.34969139 23.12985889 -9.36560304 25.24188552 -9.38479328 27.35576439 C-9.38281081 28.6995186 -9.37896705 30.04327163 -9.37307453 31.38701439 C-9.36969074 32.60904564 -9.36630695 33.83107689 -9.36282063 35.09013939 C-9.22289964 38.05072976 -9.22289964 38.05072976 -7.82333803 39.80384886 C-5.18261496 41.70817031 -3.246699 41.51308735 -0.00723743 41.51453781 C1.87475566 41.52627267 1.87475566 41.52627267 3.79476881 41.53824461 C5.19483632 41.53175782 6.59490254 41.52498783 7.99496746 41.51796532 C9.47622539 41.52141985 10.95748076 41.52618303 12.43873072 41.53214705 C16.51939532 41.54471493 20.59985047 41.53846053 24.680516 41.52918839 C29.07730446 41.52242183 33.47405601 41.53286721 37.87083721 41.54112816 C46.48818458 41.55449334 55.10545371 41.55157539 63.72280419 41.54289024 C70.7240492 41.53612503 77.72527224 41.53519192 84.72651958 41.53846169 C85.72160163 41.53892138 86.71668368 41.53938108 87.74191973 41.53985471 C89.76318094 41.54081385 91.78444214 41.54178649 93.80570334 41.54277249 C112.77519737 41.55133454 131.74464796 41.54147948 150.71413487 41.52537139 C167.00360897 41.51196747 183.29301894 41.51429533 199.58249187 41.52812767 C218.48243119 41.54416911 237.38233241 41.55051049 256.28227758 41.54129088 C258.29625383 41.5403352 260.31023009 41.53939208 262.32420635 41.53846169 C263.31521484 41.53799886 264.30622333 41.53753603 265.32726237 41.53705918 C272.32302828 41.53446498 279.3187701 41.53884954 286.31453228 41.54590034 C294.83583684 41.55429961 303.35705846 41.55206846 311.87835348 41.53605811 C316.22906491 41.52815412 320.57963788 41.52511984 324.9303484 41.53500557 C328.90889223 41.54390918 332.88716853 41.53909179 336.86568791 41.52307291 C338.30911177 41.51970662 339.75255798 41.52146036 341.19596761 41.52870028 C343.14995093 41.53775346 345.10399707 41.52672145 347.05796337 41.51453781 C348.14575478 41.51405075 349.23354619 41.5135637 350.35430098 41.51306188 C353.03688735 41.34701249 353.03688735 41.34701249 354.87406397 39.80384886 C356.7305347 37.11607669 356.41488988 34.60500974 356.42380047 31.38701439 C356.42667065 30.7324929 356.42954082 30.07797142 356.43249798 29.40361595 C356.43453664 28.0217712 356.42902043 26.63989746 356.41647625 25.25810814 C356.40041733 23.14416989 356.41632898 21.03214325 356.43551922 18.91826439 C356.43353675 17.57451017 356.42969299 16.23075715 356.42380047 14.88701439 C356.42041668 13.66498314 356.41703289 12.44295189 356.41354656 11.18388939 C356.27362558 8.22329902 356.27362558 8.22329902 354.87406397 6.47017992 C352.2333409 4.56585847 350.29742493 4.76094143 347.05796337 4.75949097 C345.80330131 4.75166772 344.54863925 4.74384448 343.25595713 4.73578417 C341.85588962 4.74227096 340.4558234 4.74904095 339.05575848 4.75606346 C337.57450054 4.75260893 336.09324518 4.74784575 334.61199522 4.74188173 C330.53133062 4.72931385 326.45087546 4.73556825 322.37020993 4.74484038 C317.97342148 4.75160695 313.57666993 4.74116157 309.17988873 4.73290062 C300.56254136 4.71953544 291.94527222 4.72245339 283.32792175 4.73113854 C276.32667673 4.73790375 269.3254537 4.73883686 262.32420635 4.73556709 C261.32912431 4.73510739 260.33404226 4.73464769 259.30880621 4.73417407 C257.287545 4.73321492 255.26628379 4.73224229 253.24502259 4.73125629 C234.27552856 4.72269424 215.30607797 4.7325493 196.33659106 4.74865739 C180.04711697 4.76206131 163.757707 4.75973344 147.46823406 4.74590111 C128.56829474 4.72985967 109.66839353 4.72351829 90.76844835 4.7327379 C88.7544721 4.73369358 86.74049585 4.73463669 84.72651958 4.73556709 C83.7355111 4.73602992 82.74450261 4.73649275 81.72346357 4.7369696 C74.72769765 4.7395638 67.73195584 4.73517924 60.73619366 4.72812843 C52.2148891 4.71972917 43.69366747 4.72196032 35.17237246 4.73797067 C30.82166103 4.74587466 26.47108806 4.74890894 22.12037754 4.73902321 C18.14183371 4.7301196 14.1635574 4.73493699 10.18503803 4.75095586 C8.74161417 4.75432216 7.29816795 4.75256842 5.85475832 4.7453285 C3.90077501 4.73627532 1.94672887 4.74730733 -0.00723743 4.75949097 C-1.09502884 4.75997802 -2.18282025 4.76046508 -3.30357504 4.7609669 C-5.98616141 4.92701629 -5.98616141 4.92701629 -7.82333803 6.47017992 Z " fill="#B8DCEA" transform="translate(25.974637031555176,166.8629856109619)"/>
<path d="M0 0 C1.18154663 -0.00430527 1.18154663 -0.00430527 2.38696289 -0.00869751 C4.05127685 -0.01073772 5.71561481 -0.00521082 7.37988281 0.00732422 C9.92827947 0.02337941 12.47509021 0.00747506 15.0234375 -0.01171875 C16.6406285 -0.00973631 18.25781852 -0.00589261 19.875 0 C20.63756104 -0.00607269 21.40012207 -0.01214539 22.18579102 -0.0184021 C25.03689636 0.019527 27.36845796 0.09636645 29.91650391 1.44897461 C31.52264824 4.51570405 31.36461314 7.60881202 31.3359375 10.98828125 C31.33880768 11.72921524 31.34167786 12.47014923 31.34463501 13.23353577 C31.346675 14.79949712 31.34114958 16.36548399 31.32861328 17.93139648 C31.31258008 20.32398762 31.32845094 22.7148838 31.34765625 25.10742188 C31.34567336 26.63021205 31.34182873 28.15300118 31.3359375 29.67578125 C31.34504654 30.74625954 31.34504654 30.74625954 31.3543396 31.83836365 C31.31313043 34.76120849 31.0449444 37.14066858 29.91650391 39.84790039 C26.83989065 42.25840752 23.62052134 41.96945769 19.875 41.9296875 C19.08730225 41.9335144 18.29960449 41.93734131 17.48803711 41.94128418 C15.82371746 41.94400446 14.15935514 41.93663496 12.49511719 41.91992188 C9.94629688 41.8985114 7.40029505 41.91971689 4.8515625 41.9453125 C3.23436877 41.94266924 1.6171768 41.9375443 0 41.9296875 C-0.76256104 41.93778442 -1.52512207 41.94588135 -2.31079102 41.95422363 C-5.44258746 41.89867267 -7.53194835 41.81412138 -10.04150391 39.84790039 C-11.45276011 36.46216785 -11.49164031 33.28392186 -11.4609375 29.67578125 C-11.46380768 28.93389053 -11.46667786 28.19199982 -11.46963501 27.42762756 C-11.4716718 25.86344639 -11.46616883 24.29923953 -11.45361328 22.73510742 C-11.43753001 20.34040522 -11.45348528 17.94738479 -11.47265625 15.55273438 C-11.47067419 14.03124628 -11.46683129 12.50975922 -11.4609375 10.98828125 C-11.46701019 10.27260483 -11.47308289 9.55692841 -11.4793396 8.81956482 C-11.44068845 6.09103645 -11.32007282 3.89024021 -10.04150391 1.44897461 C-6.84210935 -0.24939632 -3.53471887 -0.02814891 0 0 Z " fill="#171A1B" transform="translate(1210.0625,705.6015625)"/>
<path d="M0 0 C1.18154663 -0.00430527 1.18154663 -0.00430527 2.38696289 -0.00869751 C4.05127685 -0.01073772 5.71561481 -0.00521082 7.37988281 0.00732422 C9.92827947 0.02337941 12.47509021 0.00747506 15.0234375 -0.01171875 C16.6406285 -0.00973631 18.25781852 -0.00589261 19.875 0 C20.63756104 -0.00607269 21.40012207 -0.01214539 22.18579102 -0.0184021 C25.03689636 0.019527 27.36845796 0.09636645 29.91650391 1.44897461 C31.52264824 4.51570405 31.36461314 7.60881202 31.3359375 10.98828125 C31.33880768 11.72921524 31.34167786 12.47014923 31.34463501 13.23353577 C31.346675 14.79949712 31.34114958 16.36548399 31.32861328 17.93139648 C31.31258008 20.32398762 31.32845094 22.7148838 31.34765625 25.10742188 C31.34567336 26.63021205 31.34182873 28.15300118 31.3359375 29.67578125 C31.34504654 30.74625954 31.34504654 30.74625954 31.3543396 31.83836365 C31.31313043 34.76120849 31.0449444 37.14066858 29.91650391 39.84790039 C26.83989065 42.25840752 23.62052134 41.96945769 19.875 41.9296875 C19.08730225 41.9335144 18.29960449 41.93734131 17.48803711 41.94128418 C15.82371746 41.94400446 14.15935514 41.93663496 12.49511719 41.91992188 C9.94629688 41.8985114 7.40029505 41.91971689 4.8515625 41.9453125 C3.23436877 41.94266924 1.6171768 41.9375443 0 41.9296875 C-0.76256104 41.93778442 -1.52512207 41.94588135 -2.31079102 41.95422363 C-5.44258746 41.89867267 -7.53194835 41.81412138 -10.04150391 39.84790039 C-11.45276011 36.46216785 -11.49164031 33.28392186 -11.4609375 29.67578125 C-11.46380768 28.93389053 -11.46667786 28.19199982 -11.46963501 27.42762756 C-11.4716718 25.86344639 -11.46616883 24.29923953 -11.45361328 22.73510742 C-11.43753001 20.34040522 -11.45348528 17.94738479 -11.47265625 15.55273438 C-11.47067419 14.03124628 -11.46683129 12.50975922 -11.4609375 10.98828125 C-11.46701019 10.27260483 -11.47308289 9.55692841 -11.4793396 8.81956482 C-11.44068845 6.09103645 -11.32007282 3.89024021 -10.04150391 1.44897461 C-6.84210935 -0.24939632 -3.53471887 -0.02814891 0 0 Z " fill="#171A1B" transform="translate(1165.0625,705.6015625)"/>
<path d="M0 0 C1.18154663 -0.00430527 1.18154663 -0.00430527 2.38696289 -0.00869751 C4.05127685 -0.01073772 5.71561481 -0.00521082 7.37988281 0.00732422 C9.92827947 0.02337941 12.47509021 0.00747506 15.0234375 -0.01171875 C16.6406285 -0.00973631 18.25781852 -0.00589261 19.875 0 C20.63756104 -0.00607269 21.40012207 -0.01214539 22.18579102 -0.0184021 C25.03689636 0.019527 27.36845796 0.09636645 29.91650391 1.44897461 C31.52264824 4.51570405 31.36461314 7.60881202 31.3359375 10.98828125 C31.33880768 11.72921524 31.34167786 12.47014923 31.34463501 13.23353577 C31.346675 14.79949712 31.34114958 16.36548399 31.32861328 17.93139648 C31.31258008 20.32398762 31.32845094 22.7148838 31.34765625 25.10742188 C31.34567336 26.63021205 31.34182873 28.15300118 31.3359375 29.67578125 C31.34504654 30.74625954 31.34504654 30.74625954 31.3543396 31.83836365 C31.31313043 34.76120849 31.0449444 37.14066858 29.91650391 39.84790039 C26.83989065 42.25840752 23.62052134 41.96945769 19.875 41.9296875 C19.08730225 41.9335144 18.29960449 41.93734131 17.48803711 41.94128418 C15.82371746 41.94400446 14.15935514 41.93663496 12.49511719 41.91992188 C9.94629688 41.8985114 7.40029505 41.91971689 4.8515625 41.9453125 C3.23436877 41.94266924 1.6171768 41.9375443 0 41.9296875 C-0.76256104 41.93778442 -1.52512207 41.94588135 -2.31079102 41.95422363 C-5.44258746 41.89867267 -7.53194835 41.81412138 -10.04150391 39.84790039 C-11.45276011 36.46216785 -11.49164031 33.28392186 -11.4609375 29.67578125 C-11.46380768 28.93389053 -11.46667786 28.19199982 -11.46963501 27.42762756 C-11.4716718 25.86344639 -11.46616883 24.29923953 -11.45361328 22.73510742 C-11.43753001 20.34040522 -11.45348528 17.94738479 -11.47265625 15.55273438 C-11.47067419 14.03124628 -11.46683129 12.50975922 -11.4609375 10.98828125 C-11.46701019 10.27260483 -11.47308289 9.55692841 -11.4793396 8.81956482 C-11.44068845 6.09103645 -11.32007282 3.89024021 -10.04150391 1.44897461 C-6.84210935 -0.24939632 -3.53471887 -0.02814891 0 0 Z " fill="#FCFCFC" transform="translate(352.0625,15.6015625)"/>
<path d="M0 0 C3.49815233 1.33971791 4.65934586 2.51838552 6.8125 5.5625 C8.59686249 10.72775984 9.15518826 15.91383528 7.203125 21.12890625 C5.49603747 24.27388674 3.99298473 26.00467685 1 28 C1.99 28.66 2.98 29.32 4 30 C3.67 31.32 3.34 32.64 3 34 C0.8125 34.8125 0.8125 34.8125 -2 35 C-4.8125 32.6875 -4.8125 32.6875 -7 30 C-7 29.34 -7 28.68 -7 28 C-7.721875 27.95875 -8.44375 27.9175 -9.1875 27.875 C-13.16608196 26.63721895 -14.60744824 24.32298855 -17 21 C-18.35593231 16.93220306 -18.53075585 13.25331741 -18 9 C-13.69142517 0.69060569 -8.9301924 -1.04378872 0 0 Z " fill="#0B445A" transform="translate(604,22)"/>
<path d="M0 0 C2.64 0 5.28 0 8 0 C9.98 3.63 11.96 7.26 14 11 C14.33 7.37 14.66 3.74 15 0 C17.31 0 19.62 0 22 0 C22 9.24 22 18.48 22 28 C19.36 28 16.72 28 14 28 C12.35 25.03 10.7 22.06 9 19 C8.67 21.97 8.34 24.94 8 28 C5.36 28 2.72 28 0 28 C0 18.76 0 9.52 0 0 Z " fill="#0B445B" transform="translate(686,22)"/>
<path d="M0 0 C1.47726563 -0.02900391 1.47726563 -0.02900391 2.984375 -0.05859375 C7.77512201 -0.02622384 10.22682286 0.04751534 14.1484375 2.9765625 C16 5.625 16 5.625 16.625 8.625 C15.74952595 12.82727546 14.44619808 14.05104064 11 16.625 C7.31963136 17.36573147 3.74267136 17.32348177 0 17.25 C-1.47726563 17.27900391 -1.47726563 17.27900391 -2.984375 17.30859375 C-7.77512201 17.27622384 -10.22682286 17.20248466 -14.1484375 14.2734375 C-16 11.625 -16 11.625 -16.625 8.625 C-14.75456808 -0.3530732 -7.60103253 -0.14923493 0 0 Z " fill="#198EBB" transform="translate(32,92.375)"/>
<path d="M0 0 C2.31 0 4.62 0 7 0 C7.33 3.96 7.66 7.92 8 12 C8.66 10.68 9.32 9.36 10 8 C12.64 8 15.28 8 18 8 C17.68804688 8.51949219 17.37609375 9.03898437 17.0546875 9.57421875 C14.50643596 13.82769262 14.50643596 13.82769262 14.5625 18.5625 C15.036875 19.366875 15.51125 20.17125 16 21 C16.55538584 22.2648979 17.09657243 23.5361049 17.625 24.8125 C18.07875 25.864375 18.5325 26.91625 19 28 C16.03 28 13.06 28 10 28 C9.34 26.35 8.68 24.7 8 23 C7.67 24.65 7.34 26.3 7 28 C4.69 28 2.38 28 0 28 C0 18.76 0 9.52 0 0 Z " fill="#0A445A" transform="translate(665,22)"/>
<path d="M0 0 C2.16015625 0.58203125 2.16015625 0.58203125 5.22265625 3.14453125 C7.45945567 7.11304635 7.81217487 9.09940322 7.16015625 13.58203125 C5.75554928 16.45509097 4.41504626 18.32714124 2.16015625 20.58203125 C-0.91998888 21.21137328 -3.75603389 21.17752557 -6.83984375 20.58203125 C-9.99849401 18.00354124 -11.3749471 16.51846029 -12.3125 12.61328125 C-12.59027737 8.90958295 -11.99301427 6.17068735 -9.90234375 3.08203125 C-6.33981546 0.17384489 -4.49599786 -0.3227511 0 0 Z " fill="#0B445A" transform="translate(722.83984375,29.41796875)"/>
<path d="M0 0 C2.31 0 4.62 0 7 0 C7 4.62 7 9.24 7 14 C7.99 14 8.98 14 10 14 C10 9.38 10 4.76 10 0 C12.31 0 14.62 0 17 0 C17 4.29 17 8.58 17 13 C17.66 13 18.32 13 19 13 C19 14.98 19 16.96 19 19 C15.43127262 19.79809721 12.03111519 20.21681654 8.375 20.3125 C6.96347656 20.36857422 6.96347656 20.36857422 5.5234375 20.42578125 C3 20 3 20 1.17578125 18.49609375 C-0.49613444 14.94674449 -0.31957387 11.58352887 -0.1875 7.75 C-0.17396484 7.00492188 -0.16042969 6.25984375 -0.14648438 5.4921875 C-0.11127204 3.66114584 -0.05746851 1.83047831 0 0 Z " fill="#0B445B" transform="translate(615,30)"/>
<path d="M0 0 C2.09375 0.453125 2.09375 0.453125 4.65625 2.078125 C6.52174134 5.16024112 6.69660455 6.91135452 6.09375 10.453125 C4.46875 12.328125 4.46875 12.328125 2.09375 13.453125 C-1.15625 13.640625 -1.15625 13.640625 -3.90625 13.453125 C-3.90625 14.113125 -3.90625 14.773125 -3.90625 15.453125 C-1.26625 15.123125 1.37375 14.793125 4.09375 14.453125 C4.42375 16.103125 4.75375 17.753125 5.09375 19.453125 C1.3447577 21.32762115 -2.83345547 21.11167733 -6.90625 20.453125 C-9.74689179 18.75375651 -10.25479524 17.53584056 -11.90625 14.453125 C-12.75970537 10.86861245 -12.58604374 7.98835296 -11.08984375 4.609375 C-8.10115338 0.19402756 -4.95360396 -0.36326429 0 0 Z " fill="#0B4259" transform="translate(757.90625,29.546875)"/>
<path d="M0 0 C1.18154663 -0.00430527 1.18154663 -0.00430527 2.38696289 -0.00869751 C4.05127685 -0.01073772 5.71561481 -0.00521082 7.37988281 0.00732422 C9.92827947 0.02337941 12.47509021 0.00747506 15.0234375 -0.01171875 C16.6406285 -0.00973631 18.25781852 -0.00589261 19.875 0 C20.63756104 -0.00607269 21.40012207 -0.01214539 22.18579102 -0.0184021 C25.03689636 0.019527 27.36845796 0.09636645 29.91650391 1.44897461 C31.52264824 4.51570405 31.36461314 7.60881202 31.3359375 10.98828125 C31.33880768 11.72921524 31.34167786 12.47014923 31.34463501 13.23353577 C31.346675 14.79949712 31.34114958 16.36548399 31.32861328 17.93139648 C31.31258008 20.32398762 31.32845094 22.7148838 31.34765625 25.10742188 C31.34567336 26.63021205 31.34182873 28.15300118 31.3359375 29.67578125 C31.34504654 30.74625954 31.34504654 30.74625954 31.3543396 31.83836365 C31.31313043 34.76120849 31.0449444 37.14066858 29.91650391 39.84790039 C26.83989065 42.25840752 23.62052134 41.96945769 19.875 41.9296875 C19.08730225 41.9335144 18.29960449 41.93734131 17.48803711 41.94128418 C15.82371746 41.94400446 14.15935514 41.93663496 12.49511719 41.91992188 C9.94629688 41.8985114 7.40029505 41.91971689 4.8515625 41.9453125 C3.23436877 41.94266924 1.6171768 41.9375443 0 41.9296875 C-0.76256104 41.93778442 -1.52512207 41.94588135 -2.31079102 41.95422363 C-5.44258746 41.89867267 -7.53194835 41.81412138 -10.04150391 39.84790039 C-11.45276011 36.46216785 -11.49164031 33.28392186 -11.4609375 29.67578125 C-11.46380768 28.93389053 -11.46667786 28.19199982 -11.46963501 27.42762756 C-11.4716718 25.86344639 -11.46616883 24.29923953 -11.45361328 22.73510742 C-11.43753001 20.34040522 -11.45348528 17.94738479 -11.47265625 15.55273438 C-11.47067419 14.03124628 -11.46683129 12.50975922 -11.4609375 10.98828125 C-11.46701019 10.27260483 -11.47308289 9.55692841 -11.4793396 8.81956482 C-11.44068845 6.09103645 -11.32007282 3.89024021 -10.04150391 1.44897461 C-6.84210935 -0.24939632 -3.53471887 -0.02814891 0 0 Z M-9.01855469 2.46972656 C-10.66408864 5.50988517 -10.41493741 8.22610483 -10.390625 11.65625 C-10.38875183 12.35990692 -10.38687866 13.06356384 -10.38494873 13.7885437 C-10.3782351 15.27297722 -10.36433409 16.75739324 -10.34375 18.24169922 C-10.31252002 20.52197578 -10.3027715 22.80156177 -10.296875 25.08203125 C-10.92806599 31.74921929 -10.92806599 31.74921929 -9.0625 37.3984375 C-6.26256403 37.49947005 -3.48781356 37.53813838 -0.6875 37.53125 C0.15216309 37.53220673 0.99182617 37.53316345 1.85693359 37.53414917 C3.63574295 37.53483098 5.41455477 37.53297667 7.19335938 37.52880859 C9.92583776 37.52346033 12.65815176 37.52875355 15.390625 37.53515625 C17.1145837 37.53449547 18.83854229 37.53321431 20.5625 37.53125 C21.38540527 37.53327423 22.20831055 37.53529846 23.05615234 37.53738403 C26.80129866 37.8841921 26.80129866 37.8841921 29.9375 36.3984375 C30.18019806 31.87469273 30.16602257 27.34545681 30.17773438 22.81591797 C30.18743087 20.53966611 30.21843629 18.26432058 30.25 15.98828125 C30.25653079 14.54427621 30.26178096 13.10026469 30.265625 11.65625 C30.2749707 10.3377002 30.28431641 9.01915039 30.29394531 7.66064453 C30.1581457 4.51607929 30.1581457 4.51607929 28.89355469 2.46972656 C25.82696743 0.79022271 22.72017433 0.97121122 19.3125 1 C18.56919434 0.99712982 17.82588867 0.99425964 17.06005859 0.99130249 C15.4899011 0.98926274 13.91971814 0.9947865 12.34960938 1.00732422 C9.94603668 1.02338047 7.54414539 1.00747398 5.140625 0.98828125 C3.61457962 0.9902637 2.08853529 0.99410741 0.5625 1 C-0.15631348 0.99392731 -0.87512695 0.98785461 -1.61572266 0.9815979 C-4.37992998 1.02056605 -6.56738562 1.12727401 -9.01855469 2.46972656 Z " fill="#0A445A" transform="translate(1210.0625,705.6015625)"/>
<path d="M0 0 C1.18154663 -0.00430527 1.18154663 -0.00430527 2.38696289 -0.00869751 C4.05127685 -0.01073772 5.71561481 -0.00521082 7.37988281 0.00732422 C9.92827947 0.02337941 12.47509021 0.00747506 15.0234375 -0.01171875 C16.6406285 -0.00973631 18.25781852 -0.00589261 19.875 0 C20.63756104 -0.00607269 21.40012207 -0.01214539 22.18579102 -0.0184021 C25.03689636 0.019527 27.36845796 0.09636645 29.91650391 1.44897461 C31.52264824 4.51570405 31.36461314 7.60881202 31.3359375 10.98828125 C31.33880768 11.72921524 31.34167786 12.47014923 31.34463501 13.23353577 C31.346675 14.79949712 31.34114958 16.36548399 31.32861328 17.93139648 C31.31258008 20.32398762 31.32845094 22.7148838 31.34765625 25.10742188 C31.34567336 26.63021205 31.34182873 28.15300118 31.3359375 29.67578125 C31.34504654 30.74625954 31.34504654 30.74625954 31.3543396 31.83836365 C31.31313043 34.76120849 31.0449444 37.14066858 29.91650391 39.84790039 C26.83989065 42.25840752 23.62052134 41.96945769 19.875 41.9296875 C19.08730225 41.9335144 18.29960449 41.93734131 17.48803711 41.94128418 C15.82371746 41.94400446 14.15935514 41.93663496 12.49511719 41.91992188 C9.94629688 41.8985114 7.40029505 41.91971689 4.8515625 41.9453125 C3.23436877 41.94266924 1.6171768 41.9375443 0 41.9296875 C-0.76256104 41.93778442 -1.52512207 41.94588135 -2.31079102 41.95422363 C-5.44258746 41.89867267 -7.53194835 41.81412138 -10.04150391 39.84790039 C-11.45276011 36.46216785 -11.49164031 33.28392186 -11.4609375 29.67578125 C-11.46380768 28.93389053 -11.46667786 28.19199982 -11.46963501 27.42762756 C-11.4716718 25.86344639 -11.46616883 24.29923953 -11.45361328 22.73510742 C-11.43753001 20.34040522 -11.45348528 17.94738479 -11.47265625 15.55273438 C-11.47067419 14.03124628 -11.46683129 12.50975922 -11.4609375 10.98828125 C-11.46701019 10.27260483 -11.47308289 9.55692841 -11.4793396 8.81956482 C-11.44068845 6.09103645 -11.32007282 3.89024021 -10.04150391 1.44897461 C-6.84210935 -0.24939632 -3.53471887 -0.02814891 0 0 Z M-9.01855469 2.46972656 C-10.66408864 5.50988517 -10.41493741 8.22610483 -10.390625 11.65625 C-10.38875183 12.35990692 -10.38687866 13.06356384 -10.38494873 13.7885437 C-10.3782351 15.27297722 -10.36433409 16.75739324 -10.34375 18.24169922 C-10.31252002 20.52197578 -10.3027715 22.80156177 -10.296875 25.08203125 C-10.92806599 31.74921929 -10.92806599 31.74921929 -9.0625 37.3984375 C-6.26256403 37.49947005 -3.48781356 37.53813838 -0.6875 37.53125 C0.15216309 37.53220673 0.99182617 37.53316345 1.85693359 37.53414917 C3.63574295 37.53483098 5.41455477 37.53297667 7.19335938 37.52880859 C9.92583776 37.52346033 12.65815176 37.52875355 15.390625 37.53515625 C17.1145837 37.53449547 18.83854229 37.53321431 20.5625 37.53125 C21.38540527 37.53327423 22.20831055 37.53529846 23.05615234 37.53738403 C26.80129866 37.8841921 26.80129866 37.8841921 29.9375 36.3984375 C30.18019806 31.87469273 30.16602257 27.34545681 30.17773438 22.81591797 C30.18743087 20.53966611 30.21843629 18.26432058 30.25 15.98828125 C30.25653079 14.54427621 30.26178096 13.10026469 30.265625 11.65625 C30.2749707 10.3377002 30.28431641 9.01915039 30.29394531 7.66064453 C30.1581457 4.51607929 30.1581457 4.51607929 28.89355469 2.46972656 C25.82696743 0.79022271 22.72017433 0.97121122 19.3125 1 C18.56919434 0.99712982 17.82588867 0.99425964 17.06005859 0.99130249 C15.4899011 0.98926274 13.91971814 0.9947865 12.34960938 1.00732422 C9.94603668 1.02338047 7.54414539 1.00747398 5.140625 0.98828125 C3.61457962 0.9902637 2.08853529 0.99410741 0.5625 1 C-0.15631348 0.99392731 -0.87512695 0.98785461 -1.61572266 0.9815979 C-4.37992998 1.02056605 -6.56738562 1.12727401 -9.01855469 2.46972656 Z " fill="#0A445A" transform="translate(1165.0625,705.6015625)"/>
<path d="M0 0 C1.18154663 -0.00430527 1.18154663 -0.00430527 2.38696289 -0.00869751 C4.05127685 -0.01073772 5.71561481 -0.00521082 7.37988281 0.00732422 C9.92827947 0.02337941 12.47509021 0.00747506 15.0234375 -0.01171875 C16.6406285 -0.00973631 18.25781852 -0.00589261 19.875 0 C20.63756104 -0.00607269 21.40012207 -0.01214539 22.18579102 -0.0184021 C25.03689636 0.019527 27.36845796 0.09636645 29.91650391 1.44897461 C31.52264824 4.51570405 31.36461314 7.60881202 31.3359375 10.98828125 C31.33880768 11.72921524 31.34167786 12.47014923 31.34463501 13.23353577 C31.346675 14.79949712 31.34114958 16.36548399 31.32861328 17.93139648 C31.31258008 20.32398762 31.32845094 22.7148838 31.34765625 25.10742188 C31.34567336 26.63021205 31.34182873 28.15300118 31.3359375 29.67578125 C31.34504654 30.74625954 31.34504654 30.74625954 31.3543396 31.83836365 C31.31313043 34.76120849 31.0449444 37.14066858 29.91650391 39.84790039 C26.83989065 42.25840752 23.62052134 41.96945769 19.875 41.9296875 C19.08730225 41.9335144 18.29960449 41.93734131 17.48803711 41.94128418 C15.82371746 41.94400446 14.15935514 41.93663496 12.49511719 41.91992188 C9.94629688 41.8985114 7.40029505 41.91971689 4.8515625 41.9453125 C3.23436877 41.94266924 1.6171768 41.9375443 0 41.9296875 C-0.76256104 41.93778442 -1.52512207 41.94588135 -2.31079102 41.95422363 C-5.44258746 41.89867267 -7.53194835 41.81412138 -10.04150391 39.84790039 C-11.45276011 36.46216785 -11.49164031 33.28392186 -11.4609375 29.67578125 C-11.46380768 28.93389053 -11.46667786 28.19199982 -11.46963501 27.42762756 C-11.4716718 25.86344639 -11.46616883 24.29923953 -11.45361328 22.73510742 C-11.43753001 20.34040522 -11.45348528 17.94738479 -11.47265625 15.55273438 C-11.47067419 14.03124628 -11.46683129 12.50975922 -11.4609375 10.98828125 C-11.46701019 10.27260483 -11.47308289 9.55692841 -11.4793396 8.81956482 C-11.44068845 6.09103645 -11.32007282 3.89024021 -10.04150391 1.44897461 C-6.84210935 -0.24939632 -3.53471887 -0.02814891 0 0 Z M-9.01855469 2.46972656 C-10.66408864 5.50988517 -10.41493741 8.22610483 -10.390625 11.65625 C-10.38875183 12.35990692 -10.38687866 13.06356384 -10.38494873 13.7885437 C-10.3782351 15.27297722 -10.36433409 16.75739324 -10.34375 18.24169922 C-10.31252002 20.52197578 -10.3027715 22.80156177 -10.296875 25.08203125 C-10.92806599 31.74921929 -10.92806599 31.74921929 -9.0625 37.3984375 C-6.26256403 37.49947005 -3.48781356 37.53813838 -0.6875 37.53125 C0.15216309 37.53220673 0.99182617 37.53316345 1.85693359 37.53414917 C3.63574295 37.53483098 5.41455477 37.53297667 7.19335938 37.52880859 C9.92583776 37.52346033 12.65815176 37.52875355 15.390625 37.53515625 C17.1145837 37.53449547 18.83854229 37.53321431 20.5625 37.53125 C21.38540527 37.53327423 22.20831055 37.53529846 23.05615234 37.53738403 C26.80129866 37.8841921 26.80129866 37.8841921 29.9375 36.3984375 C30.18019806 31.87469273 30.16602257 27.34545681 30.17773438 22.81591797 C30.18743087 20.53966611 30.21843629 18.26432058 30.25 15.98828125 C30.25653079 14.54427621 30.26178096 13.10026469 30.265625 11.65625 C30.2749707 10.3377002 30.28431641 9.01915039 30.29394531 7.66064453 C30.1581457 4.51607929 30.1581457 4.51607929 28.89355469 2.46972656 C25.82696743 0.79022271 22.72017433 0.97121122 19.3125 1 C18.56919434 0.99712982 17.82588867 0.99425964 17.06005859 0.99130249 C15.4899011 0.98926274 13.91971814 0.9947865 12.34960938 1.00732422 C9.94603668 1.02338047 7.54414539 1.00747398 5.140625 0.98828125 C3.61457962 0.9902637 2.08853529 0.99410741 0.5625 1 C-0.15631348 0.99392731 -0.87512695 0.98785461 -1.61572266 0.9815979 C-4.37992998 1.02056605 -6.56738562 1.12727401 -9.01855469 2.46972656 Z " fill="#1E90BC" transform="translate(352.0625,15.6015625)"/>
<path d="M0 0 C1.98828125 0.40625 1.98828125 0.40625 3.98828125 2.40625 C3.61328125 5.03125 3.61328125 5.03125 2.98828125 7.40625 C0.98828125 7.40625 -1.01171875 7.40625 -3.01171875 7.40625 C-3.01171875 9.38625 -3.01171875 11.36625 -3.01171875 13.40625 C-2.20734375 13.385625 -1.40296875 13.365 -0.57421875 13.34375 C1.98828125 13.40625 1.98828125 13.40625 2.98828125 14.40625 C3.11328125 16.90625 3.11328125 16.90625 2.98828125 19.40625 C1.42898157 20.96554968 -0.10031443 20.72566003 -2.26171875 20.84375 C-6.18726841 20.7874024 -6.85301232 20.53580627 -10.07421875 17.90625 C-12.16488927 14.8175939 -12.76215237 12.0786983 -12.484375 8.375 C-10.85585096 1.59172631 -6.57150293 -0.26506903 0 0 Z " fill="#0B445A" transform="translate(659.01171875,29.59375)"/>
<path d="M0 0 C2.31 0 4.62 0 7 0 C7 1.32 7 2.64 7 4 C8.32 4 9.64 4 11 4 C11 5.98 11 7.96 11 10 C10.01 10 9.02 10 8 10 C8 14.62 8 19.24 8 24 C5.36 24 2.72 24 0 24 C0 19.38 0 14.76 0 10 C-0.66 10 -1.32 10 -2 10 C-2 8.02 -2 6.04 -2 4 C-1.34 4 -0.68 4 0 4 C0 2.68 0 1.36 0 0 Z " fill="#0B435A" transform="translate(734,26)"/>
<path d="M0 0 C4.66666667 0 9.33333333 0 14 0 C15 3 15 3 14.0625 5.1875 C13.711875 5.785625 13.36125 6.38375 13 7 C11.68 7 10.36 7 9 7 C9 11.29 9 15.58 9 20 C6.69 20 4.38 20 2 20 C2 15.71 2 11.42 2 7 C1.34 7 0.68 7 0 7 C0 4.69 0 2.38 0 0 Z " fill="#0B445B" transform="translate(766,30)"/>
<path d="M0 0 C0.66 0 1.32 0 2 0 C3.66666667 0 5.33333333 0 7 0 C7.33 0.66 7.66 1.32 8 2 C6.35 2 4.7 2 3 2 C4.25541557 4.51083114 5.50063488 4.87125446 8 6 C7.67 7.32 7.34 8.64 7 10 C2.25 11.125 2.25 11.125 0 10 C-0.33 11.32 -0.66 12.64 -1 14 C-3.31 14.33 -5.62 14.66 -8 15 C-7.34 14.34 -6.68 13.68 -6 13 C-5.01 13 -4.02 13 -3 13 C-3 12.34 -3 11.68 -3 11 C-4.65 11 -6.3 11 -8 11 C-8.33 7.7 -8.66 4.4 -9 1 C-6.0387106 -0.4806447 -3.26914933 -0.05837767 0 0 Z " fill="#E4E9E7" transform="translate(80,34)"/>
<path d="M0 0 C0.99 0 1.98 0 3 0 C3 0.66 3 1.32 3 2 C4.65 2 6.3 2 8 2 C10.21538462 8.27692308 10.21538462 8.27692308 9.125 11.9375 C8.568125 12.9584375 8.568125 12.9584375 8 14 C6.35 14 4.7 14 3 14 C3 14.66 3 15.32 3 16 C-0.375 15.4375 -0.375 15.4375 -4 14 C-5.79376029 10.19722819 -6.3328822 8.11753308 -5.125 4.0625 C-4.75375 3.381875 -4.3825 2.70125 -4 2 C-2.68 2 -1.36 2 0 2 C0 1.34 0 0.68 0 0 Z " fill="#0C4258" transform="translate(1218,717)"/>
<path d="M0 0 C-0.14029419 2.1462026 -0.28738164 4.29196218 -0.4375 6.4375 C-0.51871094 7.63246094 -0.59992188 8.82742188 -0.68359375 10.05859375 C-1 13 -1 13 -2 14 C-5.00331018 14.14193337 -7.99217134 14.04236378 -11 14 C-11 10.37 -11 6.74 -11 3 C-11.66 3 -12.32 3 -13 3 C-13 2.01 -13 1.02 -13 0 C-8.38926889 -1.29676812 -4.66159911 -0.71109139 0 0 Z " fill="#0D3C4F" transform="translate(1181,718)"/>
<path d="M0 0 C3.29714793 0.32971479 4.6226839 0.6226839 7 3 C7.66 2.01 8.32 1.02 9 0 C10.65 0.33 12.3 0.66 14 1 C14.75 2.75 14.75 2.75 15 5 C13.0625 7.25 13.0625 7.25 11 9 C12.32 9.66 13.64 10.32 15 11 C12.54137599 11.05383848 10.0839245 11.09359038 7.625 11.125 C6.57699219 11.15013672 6.57699219 11.15013672 5.5078125 11.17578125 C3.67102514 11.19344267 1.83398037 11.10303261 0 11 C-2 9 -2 9 -2.25 5.5 C-2 2 -2 2 0 0 Z " fill="#434E64" transform="translate(208,735)"/>
<path d="M0 0 C2.31 0 4.62 0 7 0 C7 6.6 7 13.2 7 20 C4.69 20 2.38 20 0 20 C0 13.4 0 6.8 0 0 Z " fill="#0B455D" transform="translate(637,30)"/>
<path d="M0 0 C0.33 0.99 0.66 1.98 1 3 C3.64 3 6.28 3 9 3 C9 6.63 9 10.26 9 14 C1.25 14.125 1.25 14.125 -1 13 C-1.4140625 10.71484375 -1.4140625 10.71484375 -1.625 7.9375 C-1.69976562 7.01839844 -1.77453125 6.09929688 -1.8515625 5.15234375 C-1.90054688 4.44207031 -1.94953125 3.73179688 -2 3 C-1.34 3 -0.68 3 0 3 C0 2.01 0 1.02 0 0 Z " fill="#AAA4AA" transform="translate(48,31)"/>
<path d="M0 0 C2 3 2 3 1.8125 5.5625 C1 8 1 8 -2 10 C-5.6875 9.625 -5.6875 9.625 -9 9 C-10.32 2.64 -10.32 2.64 -9 0 C-5.78881337 -1.60559331 -3.38634233 -0.86197805 0 0 Z " fill="#6B6B78" transform="translate(116,736)"/>
<path d="M0 0 C6.625 -0.25 6.625 -0.25 10 2 C10.39570119 5.0996593 10.49754211 7.12198451 8.9375 9.875 C5.99772876 11.58196395 3.32129197 11.18799766 0 11 C0 7.37 0 3.74 0 0 Z " fill="#543923" transform="translate(57,96)"/>
<path d="M0 0 C0.66 0 1.32 0 2 0 C2 0.99 2 1.98 2 3 C4.20872638 3 6.41877359 2.9800584 8.625 2.875 C11 3 11 3 13 5 C12.44444444 9.55555556 12.44444444 9.55555556 11 11 C9.33388095 11.042721 7.66617115 11.04063832 6 11 C5.34 11 4.68 11 4 11 C2.68 11 1.36 11 0 11 C0 7.37 0 3.74 0 0 Z " fill="#616362" transform="translate(399,79)"/>
<path d="M0 0 C1.99954746 -0.04254356 4.00041636 -0.04080783 6 0 C7 1 7 1 7.09765625 3.28515625 C7.08605469 4.20167969 7.07445312 5.11820313 7.0625 6.0625 C7.05347656 6.98160156 7.04445313 7.90070312 7.03515625 8.84765625 C7.02355469 9.55792969 7.01195312 10.26820312 7 11 C5.35 11.66 3.7 12.32 2 13 C0.5 12 0.5 12 -1 10 C-1.42372144 6.54667028 -1.58512383 3.17024765 0 0 Z " fill="#171B1E" transform="translate(596,30)"/>
<path d="M0 0 C0.99 0 1.98 0 3 0 C3 3.63 3 7.26 3 11 C1.68 10.67 0.36 10.34 -1 10 C-2.546875 10.2784375 -2.546875 10.2784375 -4.125 10.5625 C-5.548125 10.7790625 -5.548125 10.7790625 -7 11 C-7.66 10.34 -8.32 9.68 -9 9 C-8.625 6.375 -8.625 6.375 -8 4 C-5.625 3.375 -5.625 3.375 -3 3 C-2.34 3.66 -1.68 4.32 -1 5 C-0.67 3.35 -0.34 1.7 0 0 Z " fill="#939D9E" transform="translate(34,146)"/>
<path d="M0 0 C6.57692308 0.57692308 6.57692308 0.57692308 8 2 C8.1875 4.9375 8.1875 4.9375 8 8 C6 10 6 10 3 10.25 C0 10 0 10 -2 8 C-2.25 5 -2.25 5 -2 2 C-1.34 1.34 -0.68 0.68 0 0 Z " fill="#F3F9FB" transform="translate(37,96)"/>
<path d="M0 0 C-0.66 1.98 -1.32 3.96 -2 6 C-3.65 6.33 -5.3 6.66 -7 7 C-7 7.66 -7 8.32 -7 9 C-5.35 9 -3.7 9 -2 9 C-1.67 10.65 -1.34 12.3 -1 14 C-3.31 14.33 -5.62 14.66 -8 15 C-7.34 14.34 -6.68 13.68 -6 13 C-5.01 13 -4.02 13 -3 13 C-3 12.34 -3 11.68 -3 11 C-4.65 11 -6.3 11 -8 11 C-8.33 7.7 -8.66 4.4 -9 1 C-6.04335481 -0.4783226 -3.25770263 -0.06032783 0 0 Z " fill="#887C71" transform="translate(80,34)"/>
<path d="M0 0 C1.67542976 0.28604898 3.34385343 0.61781233 5 1 C5.75 2.75 5.75 2.75 6 5 C4.0625 7.25 4.0625 7.25 2 9 C3.32 9.66 4.64 10.32 6 11 C3.03 11 0.06 11 -3 11 C-3 7.26446332 -2.82224473 2.82224473 0 0 Z " fill="#959392" transform="translate(217,735)"/>
<path d="M0 0 C2.33294775 -0.04241723 4.66702567 -0.04092937 7 0 C8 1 8 1 8.1875 3.4375 C8 6 8 6 6 8 C4.68 8 3.36 8 2 8 C2 8.99 2 9.98 2 11 C1.34 11 0.68 11 0 11 C0 7.37 0 3.74 0 0 Z " fill="#605B57" transform="translate(500,82)"/>
<path d="M0 0 C2.33294775 -0.04241723 4.66702567 -0.04092937 7 0 C8 1 8 1 8.1875 3.4375 C8 6 8 6 6 8 C4.68 8 3.36 8 2 8 C2 8.99 2 9.98 2 11 C1.34 11 0.68 11 0 11 C0 7.37 0 3.74 0 0 Z " fill="#605B57" transform="translate(491,82)"/>
<path d="M0 0 C2.33944736 0.28730055 4.6739143 0.61936779 7 1 C6.34 1.66 5.68 2.32 5 3 C3.68 3 2.36 3 1 3 C0.67 3.66 0.34 4.32 0 5 C0.969375 5.309375 1.93875 5.61875 2.9375 5.9375 C6 7 6 7 7 8 C7.25 10.4375 7.25 10.4375 7 13 C3.77208445 15.1519437 2.71599191 15.20086443 -1 15 C-1.33 14.01 -1.66 13.02 -2 12 C-0.02 12 1.96 12 4 12 C4 11.34 4 10.68 4 10 C2.03852126 8.61061923 0.03833424 7.2739589 -2 6 C-1.125 1.125 -1.125 1.125 0 0 Z " fill="#353849" transform="translate(19,30)"/>
<path d="M0 0 C3.125 0.375 3.125 0.375 6 1 C6.33 2.65 6.66 4.3 7 6 C4.69 6 2.38 6 0 6 C0.33 6.66 0.66 7.32 1 8 C2.65 8 4.3 8 6 8 C5.67 8.99 5.34 9.98 5 11 C2.625 11.125 2.625 11.125 0 11 C-2 9 -2 9 -2.25 5.5 C-2 2 -2 2 0 0 Z " fill="#4B494F" transform="translate(30,34)"/>
<path d="M0 0 C0.66 0 1.32 0 2 0 C2 3.63 2 7.26 2 11 C-0.875 11.125 -0.875 11.125 -4 11 C-4.66 10.34 -5.32 9.68 -6 9 C-5.625 6.375 -5.625 6.375 -5 4 C-3.35 3.67 -1.7 3.34 0 3 C0 2.01 0 1.02 0 0 Z " fill="#76747B" transform="translate(125,96)"/>
<path d="M0 0 C1.4540625 0.0309375 1.4540625 0.0309375 2.9375 0.0625 C2.56625 0.805 2.195 1.5475 1.8125 2.3125 C0.64234137 5.00533647 0.64234137 5.00533647 1.8125 7.375 C2.369375 8.2103125 2.369375 8.2103125 2.9375 9.0625 C2.2775 9.7225 1.6175 10.3825 0.9375 11.0625 C-1.6875 10.6875 -1.6875 10.6875 -4.0625 10.0625 C-4.08939216 8.58343108 -4.10884621 7.10422517 -4.125 5.625 C-4.13660156 4.80128906 -4.14820313 3.97757813 -4.16015625 3.12890625 C-4.00103255 -0.23815127 -3.43619093 0.07012635 0 0 Z " fill="#6D6971" transform="translate(174.0625,737.9375)"/>
<path d="M0 0 C3 0.125 3 0.125 4 1.125 C4.125 4.125 4.125 4.125 4 7.125 C3 8.125 3 8.125 0 8.25 C-3 8.125 -3 8.125 -4 7.125 C-4.125 4.125 -4.125 4.125 -4 1.125 C-3 0.125 -3 0.125 0 0 Z " fill="#616261" transform="translate(459,81.875)"/>
<path d="M0 0 C3.375 -0.125 3.375 -0.125 7 0 C9 2 9 2 9.1953125 4.1640625 C9.17210938 4.97617187 9.14890625 5.78828125 9.125 6.625 C9.10695313 7.44226562 9.08890625 8.25953125 9.0703125 9.1015625 C9.03550781 10.04128906 9.03550781 10.04128906 9 11 C8.01 11 7.02 11 6 11 C6 8.03 6 5.06 6 2 C5.01 2.33 4.02 2.66 3 3 C2.67 5.64 2.34 8.28 2 11 C1.34 11 0.68 11 0 11 C0 7.37 0 3.74 0 0 Z " fill="#3B404F" transform="translate(60,34)"/>
<path d="M0 0 C3.73639216 1.24546405 4.18756513 2.63404953 6 6 C6.61875 5.01 7.2375 4.02 7.875 3 C8.57625 2.01 9.2775 1.02 10 0 C10.66 0 11.32 0 12 0 C12 3.63 12 7.26 12 11 C11.67 11 11.34 11 11 11 C10.67 9.02 10.34 7.04 10 5 C9.54625 5.66 9.0925 6.32 8.625 7 C8.08875 7.66 7.5525 8.32 7 9 C6.34 9 5.68 9 5 9 C4.34 8.01 3.68 7.02 3 6 C2.67 7.65 2.34 9.3 2 11 C1.34 11 0.68 11 0 11 C0 7.37 0 3.74 0 0 Z " fill="#4A3845" transform="translate(96,96)"/>
<path d="M0 0 C4.70588235 0.70588235 4.70588235 0.70588235 6 2 C6.04063832 3.66617115 6.042721 5.33388095 6 7 C3.125 7.625 3.125 7.625 0 8 C-0.66 7.34 -1.32 6.68 -2 6 C-1.44444444 1.44444444 -1.44444444 1.44444444 0 0 Z " fill="#675142" transform="translate(134,738)"/>
<path d="M0 0 C4.70588235 0.70588235 4.70588235 0.70588235 6 2 C6.04063832 3.66617115 6.042721 5.33388095 6 7 C3.125 7.625 3.125 7.625 0 8 C-0.66 7.34 -1.32 6.68 -2 6 C-1.44444444 1.44444444 -1.44444444 1.44444444 0 0 Z " fill="#675142" transform="translate(54,188)"/>
<path d="M0 0 C4.70588235 0.70588235 4.70588235 0.70588235 6 2 C6.04063832 3.66617115 6.042721 5.33388095 6 7 C3.125 7.625 3.125 7.625 0 8 C-0.66 7.34 -1.32 6.68 -2 6 C-1.44444444 1.44444444 -1.44444444 1.44444444 0 0 Z " fill="#675142" transform="translate(112,99)"/>
<path d="M0 0 C2.625 0.375 2.625 0.375 5 1 C5.625 3.375 5.625 3.375 6 6 C5.34 6.66 4.68 7.32 4 8 C1.375 7.625 1.375 7.625 -1 7 C-1.625 4.625 -1.625 4.625 -2 2 C-1.34 1.34 -0.68 0.68 0 0 Z " fill="#7C7A84" transform="translate(268,738)"/>
<path d="M0 0 C2.625 0.375 2.625 0.375 5 1 C5.625 3.375 5.625 3.375 6 6 C5.34 6.66 4.68 7.32 4 8 C1.375 7.625 1.375 7.625 -1 7 C-1.625 4.625 -1.625 4.625 -2 2 C-1.34 1.34 -0.68 0.68 0 0 Z " fill="#7C7A84" transform="translate(259,738)"/>
<path d="M0 0 C2.625 0.375 2.625 0.375 5 1 C5.625 3.375 5.625 3.375 6 6 C5.34 6.66 4.68 7.32 4 8 C1.375 7.625 1.375 7.625 -1 7 C-1.625 4.625 -1.625 4.625 -2 2 C-1.34 1.34 -0.68 0.68 0 0 Z " fill="#493444" transform="translate(74,149)"/>
<path d="M0 0 C1.2065625 0.0309375 1.2065625 0.0309375 2.4375 0.0625 C3.23703138 3.34946233 3.53408936 4.77273192 2.4375 8.0625 C0.0625 8.1875 0.0625 8.1875 -2.5625 8.0625 C-3.2225 7.4025 -3.8825 6.7425 -4.5625 6.0625 C-3.83457637 0.09352625 -3.83457637 0.09352625 0 0 Z " fill="#6C6F6F" transform="translate(474.5625,81.9375)"/>
<path d="M0 0 C2.33294775 -0.04241723 4.66702567 -0.04092937 7 0 C8 1 8 1 8.0625 4.5625 C8.041875 5.696875 8.02125 6.83125 8 8 C7.01 8 6.02 8 5 8 C5 6.02 5 4.04 5 2 C4.34 2 3.68 2 3 2 C3 3.98 3 5.96 3 8 C2.01 8 1.02 8 0 8 C0 5.36 0 2.72 0 0 Z " fill="#69706E" transform="translate(446,82)"/>
<path d="M0 0 C1.2065625 0.0309375 1.2065625 0.0309375 2.4375 0.0625 C3.23703138 3.34946233 3.53408936 4.77273192 2.4375 8.0625 C0.0625 8.1875 0.0625 8.1875 -2.5625 8.0625 C-3.2225 7.4025 -3.8825 6.7425 -4.5625 6.0625 C-3.83457637 0.09352625 -3.83457637 0.09352625 0 0 Z " fill="#6C6F6F" transform="translate(438.5625,81.9375)"/>
<path d="M0 0 C1.66611905 -0.042721 3.33382885 -0.04063832 5 0 C6 1 6 1 6.0625 4.5625 C6.041875 5.696875 6.02125 6.83125 6 8 C3.69 8 1.38 8 -1 8 C-0.835 7.236875 -0.67 6.47375 -0.5 5.6875 C0.09145396 2.96403764 0.09145396 2.96403764 0 0 Z " fill="#737674" transform="translate(483,82)"/>
<path d="M0 0 C0.33 0.66 0.66 1.32 1 2 C-1.31 2 -3.62 2 -6 2 C-5.67 3.98 -5.34 5.96 -5 8 C-3.35 8.33 -1.7 8.66 0 9 C0 8.01 0 7.02 0 6 C-0.66 5.67 -1.32 5.34 -2 5 C-1.01 5 -0.02 5 1 5 C1.042721 6.66611905 1.04063832 8.33382885 1 10 C0.67 10.33 0.34 10.66 0 11 C-3.4375 10.75 -3.4375 10.75 -7 10 C-9 7 -9 7 -8.8125 4.4375 C-7.27887606 -0.16337183 -4.30761319 -0.23284396 0 0 Z " fill="#4F4B4A" transform="translate(254,735)"/>
<path d="M0 0 C4.875 0.875 4.875 0.875 6 2 C6.1875 4.4375 6.1875 4.4375 6 7 C5.34 7.66 4.68 8.32 4 9 C2.68 9 1.36 9 0 9 C0 6.03 0 3.06 0 0 Z " fill="#DEEAEC" transform="translate(59,97)"/>
<path d="M0 0 C1.125 7.625 1.125 7.625 0 11 C-0.66 11 -1.32 11 -2 11 C-2 10.01 -2 9.02 -2 8 C-3.65 8 -5.3 8 -7 8 C-4.18918919 0 -4.18918919 0 0 0 Z " fill="#3D314F" transform="translate(231,735)"/>
<path d="M0 0 C0.33 0.99 0.66 1.98 1 3 C1.99 3 2.98 3 4 3 C4 3.66 4 4.32 4 5 C3.34 5 2.68 5 2 5 C2 7.31 2 9.62 2 12 C2.66 12 3.32 12 4 12 C4 12.66 4 13.32 4 14 C2.35 13.67 0.7 13.34 -1 13 C-1.33 9.7 -1.66 6.4 -2 3 C-1.34 3 -0.68 3 0 3 C0 2.01 0 1.02 0 0 Z " fill="#464540" transform="translate(48,31)"/>
<path d="M0 0 C0.33 0 0.66 0 1 0 C1 2.97 1 5.94 1 9 C1.66 9 2.32 9 3 9 C3 6.36 3 3.72 3 1 C3.33 1 3.66 1 4 1 C4 3.64 4 6.28 4 9 C5.32 9 6.64 9 8 9 C8 6.36 8 3.72 8 1 C8.33 1 8.66 1 9 1 C9 4.3 9 7.6 9 11 C6.03 11 3.06 11 0 11 C0 7.37 0 3.74 0 0 Z " fill="#0E455C" transform="translate(1170,721)"/>
<path d="M0 0 C2.625 0.375 2.625 0.375 5 1 C5.33 1.99 5.66 2.98 6 4 C4.35 4 2.7 4 1 4 C1 4.66 1 5.32 1 6 C2.65 6 4.3 6 6 6 C5.67 6.66 5.34 7.32 5 8 C2.03 7.505 2.03 7.505 -1 7 C-1.625 4.625 -1.625 4.625 -2 2 C-1.34 1.34 -0.68 0.68 0 0 Z " fill="#696464" transform="translate(130,99)"/>
<path d="M0 0 C0.33 0.66 0.66 1.32 1 2 C-0.98 2.33 -2.96 2.66 -5 3 C-5 4.65 -5 6.3 -5 8 C-2.03 8.495 -2.03 8.495 1 9 C0.67 9.66 0.34 10.32 0 11 C-6.875 10.125 -6.875 10.125 -8 9 C-8.25 5.5625 -8.25 5.5625 -8 2 C-4.77208445 -0.1519437 -3.71599191 -0.20086443 0 0 Z " fill="#4F4D58" transform="translate(130,735)"/>
<path d="M0 0 C1.65 0 3.3 0 5 0 C5.33 0.66 5.66 1.32 6 2 C4.35 2 2.7 2 1 2 C1 2.66 1 3.32 1 4 C3.475 4.99 3.475 4.99 6 6 C5.67 7.32 5.34 8.64 5 10 C3.35 10.33 1.7 10.66 0 11 C-0.33 10.34 -0.66 9.68 -1 9 C0.65 9 2.3 9 4 9 C2.74458443 6.48916886 1.49936512 6.12874554 -1 5 C-0.67 3.35 -0.34 1.7 0 0 Z " fill="#433C49" transform="translate(18,146)"/>
<path d="M0 0 C1.65 0 3.3 0 5 0 C5.33 0.66 5.66 1.32 6 2 C4.35 2 2.7 2 1 2 C2.25541557 4.51083114 3.50063488 4.87125446 6 6 C5.67 7.32 5.34 8.64 5 10 C3.35 10.33 1.7 10.66 0 11 C-0.33 10.34 -0.66 9.68 -1 9 C0.65 9 2.3 9 4 9 C4 8.34 4 7.68 4 7 C1.525 6.01 1.525 6.01 -1 5 C-0.67 3.35 -0.34 1.7 0 0 Z " fill="#3B353D" transform="translate(82,34)"/>
<path d="M0 0 C2.31 0 4.62 0 7 0 C7 1.98 7 3.96 7 6 C4.69 6 2.38 6 0 6 C0 4.02 0 2.04 0 0 Z " fill="#0B455D" transform="translate(637,22)"/>
<path d="M0 0 C1.67542976 0.28604898 3.34385343 0.61781233 5 1 C5 3.31 5 5.62 5 8 C3.02 8 1.04 8 -1 8 C-1.33 6.68 -1.66 5.36 -2 4 C-1.01 3.34 -0.02 2.68 1 2 C0.34 1.67 -0.32 1.34 -1 1 C-0.67 0.67 -0.34 0.34 0 0 Z " fill="#43475A" transform="translate(40,188)"/>
<path d="M0 0 C0.66 0 1.32 0 2 0 C2 0.99 2 1.98 2 3 C2.99 3 3.98 3 5 3 C5 3.66 5 4.32 5 5 C4.01 5 3.02 5 2 5 C2 7.31 2 9.62 2 12 C2.66 12 3.32 12 4 12 C4 12.66 4 13.32 4 14 C2.68 13.67 1.36 13.34 0 13 C0 10.36 0 7.72 0 5 C-0.66 5 -1.32 5 -2 5 C-2 4.34 -2 3.68 -2 3 C-1.34 3 -0.68 3 0 3 C0 2.01 0 1.02 0 0 Z " fill="#2C374D" transform="translate(40,31)"/>
<path d="M0 0 C2.625 0.375 2.625 0.375 5 1 C5 1.99 5 2.98 5 4 C3.35 4 1.7 4 0 4 C0 4.66 0 5.32 0 6 C1.65 6 3.3 6 5 6 C4.67 6.66 4.34 7.32 4 8 C2.35 7.67 0.7 7.34 -1 7 C-1.625 4.625 -1.625 4.625 -2 2 C-1.34 1.34 -0.68 0.68 0 0 Z " fill="#5F5357" transform="translate(277,738)"/>
<path d="M0 0 C2.625 0.375 2.625 0.375 5 1 C5 1.99 5 2.98 5 4 C3.35 4 1.7 4 0 4 C0 4.66 0 5.32 0 6 C1.65 6 3.3 6 5 6 C4.67 6.66 4.34 7.32 4 8 C2.35 7.67 0.7 7.34 -1 7 C-1.625 4.625 -1.625 4.625 -2 2 C-1.34 1.34 -0.68 0.68 0 0 Z " fill="#5F5357" transform="translate(40,149)"/>
<path d="M0 0 C2.625 0.375 2.625 0.375 5 1 C5 1.99 5 2.98 5 4 C3.35 4 1.7 4 0 4 C0 4.66 0 5.32 0 6 C1.65 6 3.3 6 5 6 C4.67 6.66 4.34 7.32 4 8 C2.35 7.67 0.7 7.34 -1 7 C-1.625 4.625 -1.625 4.625 -2 2 C-1.34 1.34 -0.68 0.68 0 0 Z " fill="#5F5357" transform="translate(27,149)"/>
<path d="M0 0 C0.66 0 1.32 0 2 0 C2.33 1.65 2.66 3.3 3 5 C4.32 4.34 5.64 3.68 7 3 C6.62875 3.5775 6.2575 4.155 5.875 4.75 C4.70833333 7 4.70833333 7 5.875 9.25 C6.24625 9.8275 6.6175 10.405 7 11 C6.01 10.67 5.02 10.34 4 10 C3.67 9.34 3.34 8.68 3 8 C2.67 8.99 2.34 9.98 2 11 C1.34 11 0.68 11 0 11 C0 7.37 0 3.74 0 0 Z " fill="#413A54" transform="translate(84,96)"/>
<path d="M0 0 C0.66 0 1.32 0 2 0 C2 1.98 2 3.96 2 6 C2.99 6 3.98 6 5 6 C5 4.02 5 2.04 5 0 C5.66 0 6.32 0 7 0 C7 2.64 7 5.28 7 8 C4.69 8 2.38 8 0 8 C0 5.36 0 2.72 0 0 Z " fill="#797871" transform="translate(419,82)"/>
<path d="M0 0 C0.66 0 1.32 0 2 0 C2 0.99 2 1.98 2 3 C2.66 3 3.32 3 4 3 C4 5.64 4 8.28 4 11 C2.68 11 1.36 11 0 11 C0 7.37 0 3.74 0 0 Z " fill="#605A4D" transform="translate(399,79)"/>
<path d="M0 0 C-0.53069061 3.82097239 -1.49701566 6.06171403 -4 9 C-2.68 9.33 -1.36 9.66 0 10 C-2.31 10 -4.62 10 -7 10 C-5.50163895 6.88801935 -3.80066242 3.9465385 -2 1 C-3.65 1.33 -5.3 1.66 -7 2 C-7 1.34 -7 0.68 -7 0 C-4.3333581 -1.33332095 -2.83319697 -0.67102033 0 0 Z " fill="#4C3D3E" transform="translate(204,736)"/>
<path d="M0 0 C0.66 0 1.32 0 2 0 C2.33 0.99 2.66 1.98 3 3 C5.01508358 3.73323796 5.01508358 3.73323796 7 4 C7 6.31 7 8.62 7 11 C6.67 11 6.34 11 6 11 C6 9.02 6 7.04 6 5 C4.68 5 3.36 5 2 5 C2 6.98 2 8.96 2 11 C1.34 11 0.68 11 0 11 C0 7.37 0 3.74 0 0 Z " fill="#61482C" transform="translate(178,735)"/>
<path d="M0 0 C1.65 0 3.3 0 5 0 C5 2.66666667 5 5.33333333 5 8 C3.02 8 1.04 8 -1 8 C-1 7.34 -1 6.68 -1 6 C-0.34 5.67 0.32 5.34 1 5 C0.67 3.35 0.34 1.7 0 0 Z " fill="#707373" transform="translate(428,82)"/>
<path d="M0 0 C0.66 0 1.32 0 2 0 C2.33 1.32 2.66 2.64 3 4 C2.34 4 1.68 4 1 4 C1 5.65 1 7.3 1 9 C1.99 9 2.98 9 4 9 C4 9.66 4 10.32 4 11 C2.35 10.67 0.7 10.34 -1 10 C-2.25 3.375 -2.25 3.375 0 0 Z " fill="#6D716F" transform="translate(466,79)"/>
<path d="M0 0 C0.66 0 1.32 0 2 0 C2 2.97 2 5.94 2 9 C3.65 9 5.3 9 7 9 C7 9.66 7 10.32 7 11 C4.69 11 2.38 11 0 11 C0 7.37 0 3.74 0 0 Z " fill="#563D2E" transform="translate(30,185)"/>
<path d="M0 0 C2.31 0 4.62 0 7 0 C7 0.33 7 0.66 7 1 C5.35 1 3.7 1 2 1 C2 2.32 2 3.64 2 5 C3.65 5 5.3 5 7 5 C7 5.33 7 5.66 7 6 C5.35 6 3.7 6 2 6 C2 7.65 2 9.3 2 11 C1.34 11 0.68 11 0 11 C0 7.37 0 3.74 0 0 Z " fill="#513A27" transform="translate(64,146)"/>
<path d="M0 0 C0.99 0.33 1.98 0.66 3 1 C3.33 1.99 3.66 2.98 4 4 C4.66 2.68 5.32 1.36 6 0 C6.66 0.33 7.32 0.66 8 1 C6.68 4.3 5.36 7.6 4 11 C3.34 11 2.68 11 2 11 C1.77213542 9.01432292 1.54427083 7.02864583 1.31640625 5.04296875 C1.02829265 2.80603607 1.02829265 2.80603607 0 0 Z " fill="#4F3F4C" transform="translate(283,738)"/>
<path d="M0 0 C0.66 0.33 1.32 0.66 2 1 C2.40729228 3.32156597 2.74438677 5.6568787 3 8 C-0.13349732 9.04449911 -0.98968256 8.93423645 -4 8 C-2.66666667 5.33333333 -1.33333333 2.66666667 0 0 Z " fill="#CFD6D1" transform="translate(204,737)"/>
<path d="M0 0 C2.37437707 0.22977843 3.77919317 0.85016679 5.75 2.1875 C7.54267046 4.78687216 7.20510719 6.92339216 7 10 C6.01 9.67 5.02 9.34 4 9 C3.9071875 7.824375 3.9071875 7.824375 3.8125 6.625 C3.544375 5.75875 3.27625 4.8925 3 4 C0.52363988 2.62533375 0.52363988 2.62533375 -2 2 C-1.34 1.34 -0.68 0.68 0 0 Z " fill="#2996C0" transform="translate(41,94)"/>
<path d="M0 0 C0.66 0 1.32 0 2 0 C2.33 1.32 2.66 2.64 3 4 C3.66 4 4.32 4 5 4 C5.33 2.68 5.66 1.36 6 0 C6.66 0.33 7.32 0.66 8 1 C6.35 4.3 4.7 7.6 3 11 C1.83808126 8.67616253 1.48553615 6.54906476 1 4 C0.67516582 2.66457061 0.3449145 1.33038449 0 0 Z " fill="#473E4F" transform="translate(150,738)"/>
<path d="M0 0 C0.99 0.33 1.98 0.66 3 1 C2.01 1.495 2.01 1.495 1 2 C1 2.99 1 3.98 1 5 C2.32 5.66 3.64 6.32 5 7 C4.67 7.66 4.34 8.32 4 9 C1.69 8.67 -0.62 8.34 -3 8 C-3 7.34 -3 6.68 -3 6 C-2.34 6 -1.68 6 -1 6 C-1.0309375 4.7934375 -1.0309375 4.7934375 -1.0625 3.5625 C-1 1 -1 1 0 0 Z " fill="#4C4A55" transform="translate(110,737)"/>
<path d="M0 0 C0.66 0.33 1.32 0.66 2 1 C2 2.65 2 4.3 2 6 C1.01 6.495 1.01 6.495 0 7 C-2.125 6.0625 -2.125 6.0625 -4 5 C-3.6875 3.0625 -3.6875 3.0625 -3 1 C-2.01 0.67 -1.02 0.34 0 0 Z " fill="#E8F0EC" transform="translate(114,737)"/>
<path d="M0 0 C1.4540625 0.0309375 1.4540625 0.0309375 2.9375 0.0625 C2.1875 2.5 2.1875 2.5 0.9375 5.0625 C-1.1875 5.875 -1.1875 5.875 -3.0625 6.0625 C-3.44468767 4.40635343 -3.77645102 2.73792976 -4.0625 1.0625 C-3.0625 0.0625 -3.0625 0.0625 0 0 Z " fill="#5C5A63" transform="translate(174.0625,737.9375)"/>
<path d="M0 0 C1.67542976 0.28604898 3.34385343 0.61781233 5 1 C3.68 1.33 2.36 1.66 1 2 C1 3.32 1 4.64 1 6 C2.32 6 3.64 6 5 6 C5 6.66 5 7.32 5 8 C3.33388095 8.042721 1.66617115 8.04063832 0 8 C-1 7 -1 7 -1.125 4 C-1 1 -1 1 0 0 Z " fill="#585B61" transform="translate(48,149)"/>
<path d="M0 0 C0.33 0.66 0.66 1.32 1 2 C2.65 2 4.3 2 6 2 C6.33 3.65 6.66 5.3 7 7 C4.69 7.33 2.38 7.66 0 8 C0.66 7.34 1.32 6.68 2 6 C2.99 6 3.98 6 5 6 C5 5.34 5 4.68 5 4 C3.35 4 1.7 4 0 4 C0 2.68 0 1.36 0 0 Z " fill="#322E31" transform="translate(72,41)"/>
<path d="M0 0 C1.32 0 2.64 0 4 0 C4 1.98 4 3.96 4 6 C2.68 6.33 1.36 6.66 0 7 C0 4.69 0 2.38 0 0 Z " fill="#F8F3E4" transform="translate(208,737)"/>
<path d="M0 0 C1.98 0.495 1.98 0.495 4 1 C4 2.32 4 3.64 4 5 C3.01 5.33 2.02 5.66 1 6 C0.34 5.67 -0.32 5.34 -1 5 C-0.67 3.35 -0.34 1.7 0 0 Z " fill="#161E21" transform="translate(1218,722)"/>
<path d="M0 0 C0.99 0.66 1.98 1.32 3 2 C2.67 3.65 2.34 5.3 2 7 C0.68 6.67 -0.64 6.34 -2 6 C-1.125 1.125 -1.125 1.125 0 0 Z " fill="#161E23" transform="translate(720,36)"/>
<path d="M0 0 C0.66 0 1.32 0 2 0 C2 0.66 2 1.32 2 2 C2.66 2.33 3.32 2.66 4 3 C3.34 3 2.68 3 2 3 C2 4.65 2 6.3 2 8 C2.66 8 3.32 8 4 8 C4 8.66 4 9.32 4 10 C2.68 9.67 1.36 9.34 0 9 C-1.125 2.25 -1.125 2.25 0 0 Z " fill="#45425A" transform="translate(188,736)"/>
<path d="M0 0 C0.66 0 1.32 0 2 0 C2 0.66 2 1.32 2 2 C2.66 2.33 3.32 2.66 4 3 C3.34 3 2.68 3 2 3 C2 4.65 2 6.3 2 8 C2.66 8 3.32 8 4 8 C4 8.66 4 9.32 4 10 C2.68 9.67 1.36 9.34 0 9 C-1.125 2.25 -1.125 2.25 0 0 Z " fill="#51364C" transform="translate(91,147)"/>
<path d="M0 0 C2.31 0 4.62 0 7 0 C6.34 1.98 5.68 3.96 5 6 C4.67 4.68 4.34 3.36 4 2 C2.68 2 1.36 2 0 2 C-0.33 2.99 -0.66 3.98 -1 5 C-0.67 3.35 -0.34 1.7 0 0 Z " fill="#26324B" transform="translate(73,34)"/>
<path d="M0 0 C2.33944736 0.28730055 4.6739143 0.61936779 7 1 C6.34 1.66 5.68 2.32 5 3 C3.68 3 2.36 3 1 3 C0.67 3.66 0.34 4.32 0 5 C0.66 5.33 1.32 5.66 2 6 C0.68 6 -0.64 6 -2 6 C-1.125 1.125 -1.125 1.125 0 0 Z " fill="#46383A" transform="translate(19,30)"/>
<path d="M0 0 C1.32 0 2.64 0 4 0 C4 1.98 4 3.96 4 6 C2.68 6 1.36 6 0 6 C0 4.02 0 2.04 0 0 Z " fill="#BAB2A3" transform="translate(144,740)"/>
<path d="M0 0 C0.33 0.66 0.66 1.32 1 2 C1.66 2.33 2.32 2.66 3 3 C2.34 3 1.68 3 1 3 C1 4.65 1 6.3 1 8 C1.66 8 2.32 8 3 8 C3 8.66 3 9.32 3 10 C1.68 9.67 0.36 9.34 -1 9 C-1.33 6.69 -1.66 4.38 -2 2 C-1.34 2 -0.68 2 0 2 C0 1.34 0 0.68 0 0 Z " fill="#5E462F" transform="translate(48,186)"/>
<path d="M0 0 C0.33 0.66 0.66 1.32 1 2 C1.66 2.33 2.32 2.66 3 3 C2.34 3 1.68 3 1 3 C1 4.65 1 6.3 1 8 C1.66 8 2.32 8 3 8 C3 8.66 3 9.32 3 10 C1.68 9.67 0.36 9.34 -1 9 C-1.33 6.69 -1.66 4.38 -2 2 C-1.34 2 -0.68 2 0 2 C0 1.34 0 0.68 0 0 Z " fill="#5E462F" transform="translate(56,147)"/>
<path d="M0 0 C2.19191368 2.19191368 2.27869352 3.11477408 3 6 C3.66 6.66 4.32 7.32 5 8 C4.01 8 3.02 8 2 8 C2 8.99 2 9.98 2 11 C1.34 11 0.68 11 0 11 C0 7.37 0 3.74 0 0 Z " fill="#777E79" transform="translate(500,82)"/>
<path d="M0 0 C2.19191368 2.19191368 2.27869352 3.11477408 3 6 C3.66 6.66 4.32 7.32 5 8 C4.01 8 3.02 8 2 8 C2 8.99 2 9.98 2 11 C1.34 11 0.68 11 0 11 C0 7.37 0 3.74 0 0 Z " fill="#777E79" transform="translate(491,82)"/>
<path d="M0 0 C1.98 0.99 1.98 0.99 4 2 C4.36923077 7.53846154 4.36923077 7.53846154 2.5 9.875 C1.7575 10.431875 1.7575 10.431875 1 11 C1 9.1665483 1.01667802 7.33287902 1.0625 5.5 C1.1186307 2.86852656 1.1186307 2.86852656 0 0 Z " fill="#534246" transform="translate(63,96)"/>
<path d="M0 0 C0 3.90838866 -1.50567876 5.11594107 -4 8 C-4.66 7.67 -5.32 7.34 -6 7 C-6 7.66 -6 8.32 -6 9 C-6.66 8.67 -7.32 8.34 -8 8 C-7.67 6.68 -7.34 5.36 -7 4 C-6.401875 3.896875 -5.80375 3.79375 -5.1875 3.6875 C-2.71756736 2.91123545 -1.67748765 1.92911079 0 0 Z " fill="#837C9B" transform="translate(367,29)"/>
<path d="M0 0 C0.33 1.32 0.66 2.64 1 4 C2.65 4 4.3 4 6 4 C6 4.66 6 5.32 6 6 C3.69 6.33 1.38 6.66 -1 7 C-0.67 4.69 -0.34 2.38 0 0 Z " fill="#A99787" transform="translate(71,41)"/>
<path d="M0 0 C1.65 0 3.3 0 5 0 C5 0.66 5 1.32 5 2 C4.01 2 3.02 2 2 2 C2 3.98 2 5.96 2 8 C1.34 8 0.68 8 0 8 C0 5.36 0 2.72 0 0 Z " fill="#563558" transform="translate(159,738)"/>
<path d="M0 0 C0.33 0 0.66 0 1 0 C1 2.31 1 4.62 1 7 C-0.32 6.67 -1.64 6.34 -3 6 C-2.42655063 3.13275314 -2.1385485 2.1385485 0 0 Z " fill="#9C8A78" transform="translate(229,735)"/>
<path d="M0 0 C1.2065625 0.0309375 1.2065625 0.0309375 2.4375 0.0625 C2.7675 0.7225 3.0975 1.3825 3.4375 2.0625 C1.7875 2.0625 0.1375 2.0625 -1.5625 2.0625 C-1.5625 2.7225 -1.5625 3.3825 -1.5625 4.0625 C-0.9025 4.3925 -0.2425 4.7225 0.4375 5.0625 C-0.5525 5.3925 -1.5425 5.7225 -2.5625 6.0625 C-2.94468767 4.40635343 -3.27645102 2.73792976 -3.5625 1.0625 C-2.5625 0.0625 -2.5625 0.0625 0 0 Z " fill="#585156" transform="translate(20.5625,145.9375)"/>
<path d="M0 0 C0.99 0.33 1.98 0.66 3 1 C2.67 2.65 2.34 4.3 2 6 C1.01 5.67 0.02 5.34 -1 5 C-0.67 3.35 -0.34 1.7 0 0 Z " fill="#DBE6DD" transform="translate(75,150)"/>
<path d="M0 0 C1.65 0 3.3 0 5 0 C4.67 0.66 4.34 1.32 4 2 C3.34 2 2.68 2 2 2 C2 3.98 2 5.96 2 8 C1.34 8 0.68 8 0 8 C0 5.36 0 2.72 0 0 Z " fill="#70502D" transform="translate(77,99)"/>
<path d="M0 0 C0.99 0.33 1.98 0.66 3 1 C3 1.66 3 2.32 3 3 C2.34 3 1.68 3 1 3 C0.67 3.66 0.34 4.32 0 5 C-1.65 4.67 -3.3 4.34 -5 4 C-5 3.34 -5 2.68 -5 2 C-3.35 2 -1.7 2 0 2 C0 1.34 0 0.68 0 0 Z " fill="#D0DEE0" transform="translate(282,740)"/>
<path d="M0 0 C0.99 0.33 1.98 0.66 3 1 C2.67 2.65 2.34 4.3 2 6 C1.01 6 0.02 6 -1 6 C-1.042721 4.33388095 -1.04063832 2.66617115 -1 1 C-0.67 0.67 -0.34 0.34 0 0 Z " fill="#A3918C" transform="translate(107,737)"/>
<path d="M0 0 C0.66 0.33 1.32 0.66 2 1 C2 2.32 2 3.64 2 5 C0.68 5 -0.64 5 -2 5 C-2 3.68 -2 2.36 -2 1 C-1.34 0.67 -0.68 0.34 0 0 Z " fill="#D5E8F1" transform="translate(136,739)"/>
<path d="M0 0 C1.65 0 3.3 0 5 0 C4.67 1.32 4.34 2.64 4 4 C2.68 3.67 1.36 3.34 0 3 C0 2.01 0 1.02 0 0 Z " fill="#847C79" transform="translate(38,192)"/>
<path d="M0 0 C0.66 0.33 1.32 0.66 2 1 C2 2.32 2 3.64 2 5 C0.68 5 -0.64 5 -2 5 C-2 3.68 -2 2.36 -2 1 C-1.34 0.67 -0.68 0.34 0 0 Z " fill="#D5E8F1" transform="translate(56,189)"/>
<path d="M0 0 C0.33 0 0.66 0 1 0 C1 2.64 1 5.28 1 8 C0.34 7.34 -0.32 6.68 -1 6 C-1.99 6 -2.98 6 -4 6 C-2.69593116 3.98079663 -1.36176581 1.98075027 0 0 Z " fill="#D1D0BB" transform="translate(106,99)"/>
<path d="M0 0 C0.66 0.33 1.32 0.66 2 1 C2 2.32 2 3.64 2 5 C0.68 5 -0.64 5 -2 5 C-2 3.68 -2 2.36 -2 1 C-1.34 0.67 -0.68 0.34 0 0 Z " fill="#D5E8F1" transform="translate(114,100)"/>
<path d="M0 0 C1.98 0.495 1.98 0.495 4 1 C3.67 1.99 3.34 2.98 3 4 C0.9375 4.6875 0.9375 4.6875 -1 5 C-0.67 3.35 -0.34 1.7 0 0 Z " fill="#5E6268" transform="translate(483,85)"/>
<path d="M0 0 C2.31 0.33 4.62 0.66 7 1 C7 1.99 7 2.98 7 4 C4.97954558 3.39816251 2.97888961 2.72693904 1 2 C0.67 1.34 0.34 0.68 0 0 Z " fill="#2D2A2B" transform="translate(18,36)"/>
</svg>
